%TF.GenerationSoftware,KiCad,Pcbnew,10.0.4*%
%TF.CreationDate,2026-07-18T16:56:01+02:00*%
%TF.ProjectId,BluePill-SmartNode-RS485,426c7565-5069-46c6-9c2d-536d6172744e,rev?*%
%TF.SameCoordinates,Original*%
%TF.FileFunction,Copper,L3,Inr*%
%TF.FilePolarity,Positive*%
%FSLAX46Y46*%
G04 Gerber Fmt 4.6, Leading zero omitted, Abs format (unit mm)*
G04 Created by KiCad (PCBNEW 10.0.4) date 2026-07-18 16:56:01*
%MOMM*%
%LPD*%
G01*
G04 APERTURE LIST*
G04 Aperture macros list*
%AMRoundRect*
0 Rectangle with rounded corners*
0 $1 Rounding radius*
0 $2 $3 $4 $5 $6 $7 $8 $9 X,Y pos of 4 corners*
0 Add a 4 corners polygon primitive as box body*
4,1,4,$2,$3,$4,$5,$6,$7,$8,$9,$2,$3,0*
0 Add four circle primitives for the rounded corners*
1,1,$1+$1,$2,$3*
1,1,$1+$1,$4,$5*
1,1,$1+$1,$6,$7*
1,1,$1+$1,$8,$9*
0 Add four rect primitives between the rounded corners*
20,1,$1+$1,$2,$3,$4,$5,0*
20,1,$1+$1,$4,$5,$6,$7,0*
20,1,$1+$1,$6,$7,$8,$9,0*
20,1,$1+$1,$8,$9,$2,$3,0*%
G04 Aperture macros list end*
%TA.AperFunction,ComponentPad*%
%ADD10C,1.600000*%
%TD*%
%TA.AperFunction,ComponentPad*%
%ADD11RoundRect,0.250000X-0.550000X-0.550000X0.550000X-0.550000X0.550000X0.550000X-0.550000X0.550000X0*%
%TD*%
%TA.AperFunction,ComponentPad*%
%ADD12R,1.700000X1.700000*%
%TD*%
%TA.AperFunction,ComponentPad*%
%ADD13C,1.700000*%
%TD*%
%TA.AperFunction,ComponentPad*%
%ADD14R,1.905000X2.000000*%
%TD*%
%TA.AperFunction,ComponentPad*%
%ADD15O,1.905000X2.000000*%
%TD*%
%TA.AperFunction,ComponentPad*%
%ADD16C,2.500000*%
%TD*%
%TA.AperFunction,ComponentPad*%
%ADD17RoundRect,0.250000X-1.000000X-1.000000X1.000000X-1.000000X1.000000X1.000000X-1.000000X1.000000X0*%
%TD*%
%TA.AperFunction,ComponentPad*%
%ADD18R,1.800000X1.800000*%
%TD*%
%TA.AperFunction,ComponentPad*%
%ADD19C,1.800000*%
%TD*%
%TA.AperFunction,ComponentPad*%
%ADD20RoundRect,0.250000X-1.050000X-1.050000X1.050000X-1.050000X1.050000X1.050000X-1.050000X1.050000X0*%
%TD*%
%TA.AperFunction,ComponentPad*%
%ADD21C,2.600000*%
%TD*%
%TA.AperFunction,ComponentPad*%
%ADD22RoundRect,0.249999X-0.850001X-0.850001X0.850001X-0.850001X0.850001X0.850001X-0.850001X0.850001X0*%
%TD*%
%TA.AperFunction,ComponentPad*%
%ADD23C,2.200000*%
%TD*%
%TA.AperFunction,ViaPad*%
%ADD24C,0.600000*%
%TD*%
G04 APERTURE END LIST*
D10*
%TO.N,12V_IN*%
%TO.C,C_DEC1*%
X31000000Y-25000000D03*
%TO.N,GND*%
X36000000Y-25000000D03*
%TD*%
D11*
%TO.N,5V*%
%TO.C,C_BULK2*%
X20000000Y-37000000D03*
D10*
%TO.N,GND*%
X22000000Y-37000000D03*
%TD*%
D12*
%TO.N,GND*%
%TO.C,U2*%
X62860000Y-14000000D03*
D13*
X62860000Y-16540000D03*
%TO.N,3V3*%
X62860000Y-19080000D03*
%TO.N,N/C*%
X62860000Y-21620000D03*
X62860000Y-24160000D03*
X62860000Y-26700000D03*
X62860000Y-29240000D03*
X62860000Y-31780000D03*
X62860000Y-34320000D03*
X62860000Y-36860000D03*
X62860000Y-39400000D03*
X62860000Y-41940000D03*
X62860000Y-44480000D03*
X62860000Y-47020000D03*
X62860000Y-49560000D03*
X62860000Y-52100000D03*
%TO.N,PB6*%
X62860000Y-54640000D03*
%TO.N,PB7*%
X62860000Y-57180000D03*
%TO.N,N/C*%
X62860000Y-59720000D03*
X62860000Y-62260000D03*
%TD*%
D14*
%TO.N,GND*%
%TO.C,U_REG3V3*%
X8000000Y-48000000D03*
D15*
%TO.N,3V3*%
X10540000Y-48000000D03*
%TO.N,5V*%
X13080000Y-48000000D03*
%TD*%
D16*
%TO.N,REL1_COM*%
%TO.C,K1*%
X70000000Y-39000000D03*
%TO.N,REL1_NC*%
X84200000Y-33000000D03*
%TO.N,REL1_NO*%
X84200000Y-45000000D03*
D17*
%TO.N,5V*%
X72000000Y-33000000D03*
D16*
%TO.N,K1_DRV*%
X72000000Y-45000000D03*
%TD*%
D10*
%TO.N,5V*%
%TO.C,C_DEC2*%
X31000000Y-37000000D03*
%TO.N,GND*%
X36000000Y-37000000D03*
%TD*%
D11*
%TO.N,PA3*%
%TO.C,U_MAX485*%
X9000000Y-59000000D03*
D10*
%TO.N,PA4*%
X9000000Y-61540000D03*
X9000000Y-64080000D03*
%TO.N,PA2*%
X9000000Y-66620000D03*
%TO.N,GND*%
X16620000Y-66620000D03*
%TO.N,RS485_A*%
X16620000Y-64080000D03*
%TO.N,RS485_B*%
X16620000Y-61540000D03*
%TO.N,5V*%
X16620000Y-59000000D03*
%TD*%
%TO.N,5V*%
%TO.C,C_DEC4*%
X24000000Y-60000000D03*
%TO.N,GND*%
X29000000Y-60000000D03*
%TD*%
D18*
%TO.N,K1_DRV*%
%TO.C,LED1*%
X92000000Y-9000000D03*
D19*
%TO.N,LED1_A*%
X94540000Y-9000000D03*
%TD*%
D14*
%TO.N,12V_IN*%
%TO.C,U_REG5V*%
X8000000Y-37000000D03*
D15*
%TO.N,GND*%
X10540000Y-37000000D03*
%TO.N,5V*%
X13080000Y-37000000D03*
%TD*%
D12*
%TO.N,N/C*%
%TO.C,U1*%
X40000000Y-14000000D03*
D13*
X40000000Y-16540000D03*
X40000000Y-19080000D03*
X40000000Y-21620000D03*
%TO.N,PA0*%
X40000000Y-24160000D03*
%TO.N,PA1*%
X40000000Y-26700000D03*
%TO.N,PA2*%
X40000000Y-29240000D03*
%TO.N,PA3*%
X40000000Y-31780000D03*
%TO.N,PA4*%
X40000000Y-34320000D03*
%TO.N,N/C*%
X40000000Y-36860000D03*
X40000000Y-39400000D03*
X40000000Y-41940000D03*
%TO.N,PB0*%
X40000000Y-44480000D03*
%TO.N,N/C*%
X40000000Y-47020000D03*
X40000000Y-49560000D03*
X40000000Y-52100000D03*
X40000000Y-54640000D03*
%TO.N,3V3*%
X40000000Y-57180000D03*
%TO.N,GND*%
X40000000Y-59720000D03*
X40000000Y-62260000D03*
%TD*%
D16*
%TO.N,REL2_COM*%
%TO.C,K2*%
X70000000Y-60000000D03*
%TO.N,REL2_NC*%
X84200000Y-54000000D03*
%TO.N,REL2_NO*%
X84200000Y-66000000D03*
D17*
%TO.N,5V*%
X72000000Y-54000000D03*
D16*
%TO.N,K2_DRV*%
X72000000Y-66000000D03*
%TD*%
D20*
%TO.N,VIN_RAW*%
%TO.C,J_POWER*%
X8000000Y-16000000D03*
D21*
%TO.N,GND*%
X13080000Y-16000000D03*
%TD*%
D12*
%TO.N,GND*%
%TO.C,J_I2C*%
X93000000Y-55000000D03*
D13*
%TO.N,3V3*%
X93000000Y-57540000D03*
%TO.N,PB7*%
X93000000Y-60080000D03*
%TO.N,PB6*%
X93000000Y-62620000D03*
%TD*%
D11*
%TO.N,3V3*%
%TO.C,C_BULK3*%
X20000000Y-48000000D03*
D10*
%TO.N,GND*%
X22000000Y-48000000D03*
%TD*%
D22*
%TO.N,12V_IN*%
%TO.C,D_REVERSE*%
X8000000Y-27000000D03*
D23*
%TO.N,VIN_RAW*%
X18160000Y-27000000D03*
%TD*%
D11*
%TO.N,PA0*%
%TO.C,U_ULN2003*%
X70000000Y-9000000D03*
D10*
%TO.N,PA1*%
X70000000Y-11540000D03*
%TO.N,N/C*%
X70000000Y-14080000D03*
X70000000Y-16620000D03*
X70000000Y-19160000D03*
X70000000Y-21700000D03*
X70000000Y-24240000D03*
%TO.N,GND*%
X70000000Y-26780000D03*
%TO.N,5V*%
X77620000Y-26780000D03*
%TO.N,N/C*%
X77620000Y-24240000D03*
X77620000Y-21700000D03*
X77620000Y-19160000D03*
X77620000Y-16620000D03*
X77620000Y-14080000D03*
%TO.N,K2_DRV*%
X77620000Y-11540000D03*
%TO.N,K1_DRV*%
X77620000Y-9000000D03*
%TD*%
D11*
%TO.N,12V_IN*%
%TO.C,C_BULK1*%
X25000000Y-15000000D03*
D10*
%TO.N,GND*%
X28500000Y-15000000D03*
%TD*%
%TO.N,3V3*%
%TO.C,C_DEC3*%
X31000000Y-48000000D03*
%TO.N,GND*%
X36000000Y-48000000D03*
%TD*%
%TO.N,5V*%
%TO.C,R2*%
X84000000Y-24000000D03*
%TO.N,LED2_A*%
X84000000Y-13840000D03*
%TD*%
D12*
%TO.N,GND*%
%TO.C,J_DS18B20*%
X93000000Y-40000000D03*
D13*
%TO.N,PB0*%
X93000000Y-42540000D03*
%TO.N,3V3*%
X93000000Y-45080000D03*
%TD*%
D20*
%TO.N,REL2_COM*%
%TO.C,J_REL2*%
X48000000Y-72000000D03*
D21*
%TO.N,REL2_NO*%
X53080000Y-72000000D03*
%TO.N,REL2_NC*%
X58160000Y-72000000D03*
%TD*%
D10*
%TO.N,3V3*%
%TO.C,R_PULL1*%
X50000000Y-60000000D03*
%TO.N,PB0*%
X60160000Y-60000000D03*
%TD*%
D18*
%TO.N,K2_DRV*%
%TO.C,LED2*%
X92000000Y-19000000D03*
D19*
%TO.N,LED2_A*%
X94540000Y-19000000D03*
%TD*%
D20*
%TO.N,RS485_A*%
%TO.C,J_RS485*%
X24000000Y-71000000D03*
D21*
%TO.N,RS485_B*%
X29080000Y-71000000D03*
%TO.N,GND*%
X34160000Y-71000000D03*
%TD*%
D10*
%TO.N,5V*%
%TO.C,R1*%
X84000000Y-10000000D03*
%TO.N,LED1_A*%
X84000000Y160000D03*
%TD*%
D20*
%TO.N,REL1_COM*%
%TO.C,J_REL1*%
X71000000Y-72000000D03*
D21*
%TO.N,REL1_NO*%
X76080000Y-72000000D03*
%TO.N,REL1_NC*%
X81160000Y-72000000D03*
%TD*%
D10*
%TO.N,RS485_A*%
%TO.C,R_TERM*%
X9000000Y-70000000D03*
%TO.N,RS485_B*%
X19160000Y-70000000D03*
%TD*%
D24*
%TO.N,3V3*%
X12857500Y-58519300D03*
%TO.N,PB6*%
X86839500Y-56575100D03*
%TO.N,PB0*%
X81889400Y-57822000D03*
%TO.N,REL2_NC*%
X73944700Y-54507000D03*
%TD*%
%TA.AperFunction,Conductor*%
%TO.N,5V*%
G36*
X83220841Y-618907D02*
G01*
X83232653Y-628996D01*
X83264801Y-661143D01*
X83283072Y-679414D01*
X83423212Y-781232D01*
X83577555Y-859873D01*
X83577557Y-859873D01*
X83577558Y-859874D01*
X83577561Y-859876D01*
X83742293Y-913401D01*
X83742297Y-913402D01*
X83913386Y-940500D01*
X83913389Y-940500D01*
X84086614Y-940500D01*
X84257702Y-913402D01*
X84257706Y-913401D01*
X84422438Y-859876D01*
X84422440Y-859874D01*
X84422445Y-859873D01*
X84576788Y-781232D01*
X84716928Y-679414D01*
X84749969Y-646373D01*
X84767347Y-628996D01*
X84821864Y-601219D01*
X84837350Y-600000D01*
X97669328Y-600000D01*
X97698780Y-604483D01*
X97777446Y-628996D01*
X97880617Y-661145D01*
X97891786Y-665380D01*
X98149197Y-781232D01*
X98156118Y-784347D01*
X98166690Y-789895D01*
X98414770Y-939864D01*
X98424583Y-946638D01*
X98652755Y-1125400D01*
X98661704Y-1133327D01*
X98866672Y-1338295D01*
X98874599Y-1347244D01*
X99053356Y-1575409D01*
X99060138Y-1585233D01*
X99210100Y-1833303D01*
X99215652Y-1843881D01*
X99334616Y-2108206D01*
X99338855Y-2119384D01*
X99395517Y-2301218D01*
X99400000Y-2330671D01*
X99400000Y-77669327D01*
X99395517Y-77698780D01*
X99338855Y-77880615D01*
X99334616Y-77891793D01*
X99215652Y-78156118D01*
X99210096Y-78166703D01*
X99060142Y-78414758D01*
X99053356Y-78424590D01*
X98874599Y-78652755D01*
X98866672Y-78661704D01*
X98661704Y-78866672D01*
X98652755Y-78874599D01*
X98424590Y-79053356D01*
X98414758Y-79060142D01*
X98177212Y-79203744D01*
X98166703Y-79210097D01*
X98156118Y-79215652D01*
X97891793Y-79334616D01*
X97880615Y-79338855D01*
X97698781Y-79395517D01*
X97669328Y-79400000D01*
X2330672Y-79400000D01*
X2301219Y-79395517D01*
X2119384Y-79338855D01*
X2108206Y-79334616D01*
X1843881Y-79215652D01*
X1833303Y-79210100D01*
X1585233Y-79060138D01*
X1575413Y-79053359D01*
X1347244Y-78874599D01*
X1338295Y-78866672D01*
X1133327Y-78661704D01*
X1125400Y-78652755D01*
X946638Y-78424583D01*
X939864Y-78414770D01*
X789895Y-78166690D01*
X784347Y-78156118D01*
X665383Y-77891793D01*
X661150Y-77880632D01*
X604481Y-77698777D01*
X600000Y-77669327D01*
X600000Y-74878710D01*
X3149500Y-74878710D01*
X3149500Y-75121289D01*
X3181161Y-75361781D01*
X3181161Y-75361786D01*
X3243944Y-75596092D01*
X3243948Y-75596105D01*
X3336772Y-75820204D01*
X3336774Y-75820208D01*
X3336776Y-75820212D01*
X3458064Y-76030289D01*
X3458066Y-76030292D01*
X3605729Y-76222731D01*
X3605731Y-76222733D01*
X3605735Y-76222738D01*
X3777262Y-76394265D01*
X3777266Y-76394268D01*
X3777268Y-76394270D01*
X3969707Y-76541933D01*
X3969711Y-76541936D01*
X4179788Y-76663224D01*
X4403900Y-76756054D01*
X4638211Y-76818838D01*
X4878712Y-76850500D01*
X4878713Y-76850500D01*
X5121287Y-76850500D01*
X5121288Y-76850500D01*
X5361789Y-76818838D01*
X5596100Y-76756054D01*
X5820212Y-76663224D01*
X6030289Y-76541936D01*
X6222738Y-76394265D01*
X6394265Y-76222738D01*
X6541936Y-76030289D01*
X6663224Y-75820212D01*
X6756054Y-75596100D01*
X6818838Y-75361789D01*
X6850500Y-75121288D01*
X6850500Y-74878712D01*
X6850500Y-74878710D01*
X93149500Y-74878710D01*
X93149500Y-75121289D01*
X93181161Y-75361781D01*
X93181161Y-75361786D01*
X93243944Y-75596092D01*
X93243948Y-75596105D01*
X93336772Y-75820204D01*
X93336774Y-75820208D01*
X93336776Y-75820212D01*
X93458064Y-76030289D01*
X93458066Y-76030292D01*
X93605729Y-76222731D01*
X93605731Y-76222733D01*
X93605735Y-76222738D01*
X93777262Y-76394265D01*
X93777266Y-76394268D01*
X93777268Y-76394270D01*
X93969707Y-76541933D01*
X93969711Y-76541936D01*
X94179788Y-76663224D01*
X94403900Y-76756054D01*
X94638211Y-76818838D01*
X94878712Y-76850500D01*
X94878713Y-76850500D01*
X95121287Y-76850500D01*
X95121288Y-76850500D01*
X95361789Y-76818838D01*
X95596100Y-76756054D01*
X95820212Y-76663224D01*
X96030289Y-76541936D01*
X96222738Y-76394265D01*
X96394265Y-76222738D01*
X96541936Y-76030289D01*
X96663224Y-75820212D01*
X96756054Y-75596100D01*
X96818838Y-75361789D01*
X96850500Y-75121288D01*
X96850500Y-74878712D01*
X96818838Y-74638211D01*
X96756054Y-74403900D01*
X96663224Y-74179788D01*
X96541936Y-73969711D01*
X96394265Y-73777262D01*
X96222738Y-73605735D01*
X96222733Y-73605731D01*
X96222731Y-73605729D01*
X96030292Y-73458066D01*
X96030289Y-73458064D01*
X95820212Y-73336776D01*
X95820208Y-73336774D01*
X95820204Y-73336772D01*
X95596105Y-73243948D01*
X95596104Y-73243947D01*
X95596100Y-73243946D01*
X95361789Y-73181162D01*
X95361786Y-73181161D01*
X95361784Y-73181161D01*
X95121289Y-73149500D01*
X95121288Y-73149500D01*
X94878712Y-73149500D01*
X94878710Y-73149500D01*
X94638218Y-73181161D01*
X94638213Y-73181161D01*
X94403907Y-73243944D01*
X94403894Y-73243948D01*
X94179795Y-73336772D01*
X93969707Y-73458066D01*
X93777268Y-73605729D01*
X93605729Y-73777268D01*
X93458066Y-73969707D01*
X93336772Y-74179795D01*
X93243948Y-74403894D01*
X93243944Y-74403907D01*
X93181161Y-74638213D01*
X93181161Y-74638218D01*
X93149500Y-74878710D01*
X6850500Y-74878710D01*
X6818838Y-74638211D01*
X6756054Y-74403900D01*
X6663224Y-74179788D01*
X6541936Y-73969711D01*
X6394265Y-73777262D01*
X6222738Y-73605735D01*
X6222733Y-73605731D01*
X6222731Y-73605729D01*
X6030292Y-73458066D01*
X6030289Y-73458064D01*
X5820212Y-73336776D01*
X5820208Y-73336774D01*
X5820204Y-73336772D01*
X5596105Y-73243948D01*
X5596104Y-73243947D01*
X5596100Y-73243946D01*
X5361789Y-73181162D01*
X5361786Y-73181161D01*
X5361784Y-73181161D01*
X5121289Y-73149500D01*
X5121288Y-73149500D01*
X4878712Y-73149500D01*
X4878710Y-73149500D01*
X4638218Y-73181161D01*
X4638213Y-73181161D01*
X4403907Y-73243944D01*
X4403894Y-73243948D01*
X4179795Y-73336772D01*
X3969707Y-73458066D01*
X3777268Y-73605729D01*
X3605729Y-73777268D01*
X3458066Y-73969707D01*
X3336772Y-74179795D01*
X3243948Y-74403894D01*
X3243944Y-74403907D01*
X3181161Y-74638213D01*
X3181161Y-74638218D01*
X3149500Y-74878710D01*
X600000Y-74878710D01*
X600000Y-69913385D01*
X7899500Y-69913385D01*
X7899500Y-70086614D01*
X7926597Y-70257702D01*
X7926598Y-70257706D01*
X7980123Y-70422438D01*
X7980125Y-70422441D01*
X8048726Y-70557081D01*
X8058768Y-70576788D01*
X8160586Y-70716928D01*
X8283072Y-70839414D01*
X8423212Y-70941232D01*
X8577555Y-71019873D01*
X8577557Y-71019873D01*
X8577558Y-71019874D01*
X8577561Y-71019876D01*
X8742293Y-71073401D01*
X8742297Y-71073402D01*
X8913386Y-71100500D01*
X8913389Y-71100500D01*
X9086614Y-71100500D01*
X9257702Y-71073402D01*
X9257706Y-71073401D01*
X9422438Y-71019876D01*
X9422440Y-71019874D01*
X9422445Y-71019873D01*
X9576788Y-70941232D01*
X9716928Y-70839414D01*
X9839414Y-70716928D01*
X9941232Y-70576788D01*
X10019873Y-70422445D01*
X10019874Y-70422440D01*
X10019876Y-70422438D01*
X10073401Y-70257706D01*
X10073402Y-70257702D01*
X10100500Y-70086614D01*
X10100500Y-69913385D01*
X18059500Y-69913385D01*
X18059500Y-70086614D01*
X18086597Y-70257702D01*
X18086598Y-70257706D01*
X18140123Y-70422438D01*
X18140125Y-70422441D01*
X18208726Y-70557081D01*
X18218768Y-70576788D01*
X18320586Y-70716928D01*
X18443072Y-70839414D01*
X18583212Y-70941232D01*
X18737555Y-71019873D01*
X18737557Y-71019873D01*
X18737558Y-71019874D01*
X18737561Y-71019876D01*
X18902293Y-71073401D01*
X18902297Y-71073402D01*
X19073386Y-71100500D01*
X19073389Y-71100500D01*
X19246614Y-71100500D01*
X19417702Y-71073402D01*
X19417706Y-71073401D01*
X19582438Y-71019876D01*
X19582440Y-71019874D01*
X19582445Y-71019873D01*
X19736788Y-70941232D01*
X19876928Y-70839414D01*
X19999414Y-70716928D01*
X20101232Y-70576788D01*
X20179873Y-70422445D01*
X20179874Y-70422440D01*
X20179876Y-70422438D01*
X20233401Y-70257706D01*
X20233402Y-70257702D01*
X20260500Y-70086614D01*
X20260500Y-69913388D01*
X20260499Y-69913383D01*
X20259471Y-69906893D01*
X22399500Y-69906893D01*
X22399500Y-72093106D01*
X22410123Y-72181565D01*
X22465637Y-72322339D01*
X22465638Y-72322341D01*
X22465639Y-72322342D01*
X22557078Y-72442922D01*
X22677658Y-72534361D01*
X22677659Y-72534361D01*
X22677660Y-72534362D01*
X22745438Y-72561090D01*
X22818436Y-72589877D01*
X22906898Y-72600500D01*
X22906900Y-72600500D01*
X25093100Y-72600500D01*
X25093102Y-72600500D01*
X25181564Y-72589877D01*
X25322342Y-72534361D01*
X25442922Y-72442922D01*
X25534361Y-72322342D01*
X25589877Y-72181564D01*
X25600500Y-72093102D01*
X25600500Y-70874034D01*
X27479500Y-70874034D01*
X27479500Y-71125965D01*
X27518908Y-71374780D01*
X27596759Y-71614379D01*
X27711130Y-71838845D01*
X27859207Y-72042656D01*
X28037344Y-72220793D01*
X28241155Y-72368870D01*
X28465621Y-72483241D01*
X28705215Y-72561090D01*
X28705216Y-72561090D01*
X28705219Y-72561091D01*
X28954035Y-72600500D01*
X28954038Y-72600500D01*
X29205965Y-72600500D01*
X29454780Y-72561091D01*
X29454781Y-72561090D01*
X29454785Y-72561090D01*
X29694379Y-72483241D01*
X29918845Y-72368870D01*
X30122656Y-72220793D01*
X30300793Y-72042656D01*
X30448870Y-71838845D01*
X30563241Y-71614379D01*
X30641090Y-71374785D01*
X30680500Y-71125962D01*
X30680500Y-70874038D01*
X30680500Y-70874034D01*
X32559500Y-70874034D01*
X32559500Y-71125965D01*
X32598908Y-71374780D01*
X32676759Y-71614379D01*
X32791130Y-71838845D01*
X32939207Y-72042656D01*
X33117344Y-72220793D01*
X33321155Y-72368870D01*
X33545621Y-72483241D01*
X33785215Y-72561090D01*
X33785216Y-72561090D01*
X33785219Y-72561091D01*
X34034035Y-72600500D01*
X34034038Y-72600500D01*
X34285965Y-72600500D01*
X34534780Y-72561091D01*
X34534781Y-72561090D01*
X34534785Y-72561090D01*
X34774379Y-72483241D01*
X34998845Y-72368870D01*
X35202656Y-72220793D01*
X35380793Y-72042656D01*
X35528870Y-71838845D01*
X35643241Y-71614379D01*
X35721090Y-71374785D01*
X35760500Y-71125962D01*
X35760500Y-70906893D01*
X46399500Y-70906893D01*
X46399500Y-73093106D01*
X46410123Y-73181565D01*
X46465637Y-73322339D01*
X46465638Y-73322341D01*
X46465639Y-73322342D01*
X46557078Y-73442922D01*
X46677658Y-73534361D01*
X46677659Y-73534361D01*
X46677660Y-73534362D01*
X46745438Y-73561090D01*
X46818436Y-73589877D01*
X46906898Y-73600500D01*
X46906900Y-73600500D01*
X49093100Y-73600500D01*
X49093102Y-73600500D01*
X49181564Y-73589877D01*
X49322342Y-73534361D01*
X49442922Y-73442922D01*
X49534361Y-73322342D01*
X49589877Y-73181564D01*
X49600500Y-73093102D01*
X49600500Y-71874034D01*
X51479500Y-71874034D01*
X51479500Y-72125965D01*
X51518908Y-72374780D01*
X51570760Y-72534362D01*
X51596759Y-72614379D01*
X51711130Y-72838845D01*
X51859207Y-73042656D01*
X52037344Y-73220793D01*
X52241155Y-73368870D01*
X52465621Y-73483241D01*
X52705215Y-73561090D01*
X52705216Y-73561090D01*
X52705219Y-73561091D01*
X52954035Y-73600500D01*
X52954038Y-73600500D01*
X53205965Y-73600500D01*
X53454780Y-73561091D01*
X53454781Y-73561090D01*
X53454785Y-73561090D01*
X53694379Y-73483241D01*
X53918845Y-73368870D01*
X54122656Y-73220793D01*
X54300793Y-73042656D01*
X54448870Y-72838845D01*
X54563241Y-72614379D01*
X54641090Y-72374785D01*
X54649397Y-72322339D01*
X54680500Y-72125965D01*
X54680500Y-71874034D01*
X56559500Y-71874034D01*
X56559500Y-72125965D01*
X56598908Y-72374780D01*
X56650760Y-72534362D01*
X56676759Y-72614379D01*
X56791130Y-72838845D01*
X56939207Y-73042656D01*
X57117344Y-73220793D01*
X57321155Y-73368870D01*
X57545621Y-73483241D01*
X57785215Y-73561090D01*
X57785216Y-73561090D01*
X57785219Y-73561091D01*
X58034035Y-73600500D01*
X58034038Y-73600500D01*
X58285965Y-73600500D01*
X58534780Y-73561091D01*
X58534781Y-73561090D01*
X58534785Y-73561090D01*
X58774379Y-73483241D01*
X58998845Y-73368870D01*
X59202656Y-73220793D01*
X59380793Y-73042656D01*
X59528870Y-72838845D01*
X59643241Y-72614379D01*
X59721090Y-72374785D01*
X59729397Y-72322339D01*
X59760500Y-72125965D01*
X59760500Y-71874034D01*
X59721091Y-71625219D01*
X59717569Y-71614379D01*
X59643241Y-71385621D01*
X59586055Y-71273388D01*
X59528871Y-71161156D01*
X59384270Y-70962130D01*
X59384269Y-70962128D01*
X59380796Y-70957348D01*
X59380795Y-70957347D01*
X59380793Y-70957344D01*
X59330342Y-70906893D01*
X69399500Y-70906893D01*
X69399500Y-73093106D01*
X69410123Y-73181565D01*
X69465637Y-73322339D01*
X69465638Y-73322341D01*
X69465639Y-73322342D01*
X69557078Y-73442922D01*
X69677658Y-73534361D01*
X69677659Y-73534361D01*
X69677660Y-73534362D01*
X69745438Y-73561090D01*
X69818436Y-73589877D01*
X69906898Y-73600500D01*
X69906900Y-73600500D01*
X72093100Y-73600500D01*
X72093102Y-73600500D01*
X72181564Y-73589877D01*
X72322342Y-73534361D01*
X72442922Y-73442922D01*
X72534361Y-73322342D01*
X72589877Y-73181564D01*
X72600500Y-73093102D01*
X72600500Y-71874034D01*
X74479500Y-71874034D01*
X74479500Y-72125965D01*
X74518908Y-72374780D01*
X74570760Y-72534362D01*
X74596759Y-72614379D01*
X74711130Y-72838845D01*
X74859207Y-73042656D01*
X75037344Y-73220793D01*
X75241155Y-73368870D01*
X75465621Y-73483241D01*
X75705215Y-73561090D01*
X75705216Y-73561090D01*
X75705219Y-73561091D01*
X75954035Y-73600500D01*
X75954038Y-73600500D01*
X76205965Y-73600500D01*
X76454780Y-73561091D01*
X76454781Y-73561090D01*
X76454785Y-73561090D01*
X76694379Y-73483241D01*
X76918845Y-73368870D01*
X77122656Y-73220793D01*
X77300793Y-73042656D01*
X77448870Y-72838845D01*
X77563241Y-72614379D01*
X77641090Y-72374785D01*
X77649397Y-72322339D01*
X77680500Y-72125965D01*
X77680500Y-71874034D01*
X79559500Y-71874034D01*
X79559500Y-72125965D01*
X79598908Y-72374780D01*
X79650760Y-72534362D01*
X79676759Y-72614379D01*
X79791130Y-72838845D01*
X79939207Y-73042656D01*
X80117344Y-73220793D01*
X80321155Y-73368870D01*
X80545621Y-73483241D01*
X80785215Y-73561090D01*
X80785216Y-73561090D01*
X80785219Y-73561091D01*
X81034035Y-73600500D01*
X81034038Y-73600500D01*
X81285965Y-73600500D01*
X81534780Y-73561091D01*
X81534781Y-73561090D01*
X81534785Y-73561090D01*
X81774379Y-73483241D01*
X81998845Y-73368870D01*
X82202656Y-73220793D01*
X82380793Y-73042656D01*
X82528870Y-72838845D01*
X82643241Y-72614379D01*
X82721090Y-72374785D01*
X82729397Y-72322339D01*
X82760500Y-72125965D01*
X82760500Y-71874034D01*
X82721091Y-71625219D01*
X82717569Y-71614379D01*
X82643241Y-71385621D01*
X82528870Y-71161155D01*
X82380793Y-70957344D01*
X82202656Y-70779207D01*
X81998845Y-70631130D01*
X81998844Y-70631129D01*
X81998842Y-70631128D01*
X81774379Y-70516759D01*
X81534780Y-70438908D01*
X81285965Y-70399500D01*
X81285962Y-70399500D01*
X81034038Y-70399500D01*
X81034035Y-70399500D01*
X80785219Y-70438908D01*
X80545620Y-70516759D01*
X80321157Y-70631128D01*
X80117345Y-70779206D01*
X79939206Y-70957345D01*
X79791128Y-71161157D01*
X79676759Y-71385620D01*
X79598908Y-71625219D01*
X79559500Y-71874034D01*
X77680500Y-71874034D01*
X77641091Y-71625219D01*
X77637569Y-71614379D01*
X77563241Y-71385621D01*
X77448870Y-71161155D01*
X77300793Y-70957344D01*
X77122656Y-70779207D01*
X76918845Y-70631130D01*
X76918844Y-70631129D01*
X76918842Y-70631128D01*
X76694379Y-70516759D01*
X76454780Y-70438908D01*
X76205965Y-70399500D01*
X76205962Y-70399500D01*
X75954038Y-70399500D01*
X75954035Y-70399500D01*
X75705219Y-70438908D01*
X75465620Y-70516759D01*
X75241157Y-70631128D01*
X75037345Y-70779206D01*
X74859206Y-70957345D01*
X74711128Y-71161157D01*
X74596759Y-71385620D01*
X74518908Y-71625219D01*
X74479500Y-71874034D01*
X72600500Y-71874034D01*
X72600500Y-70906898D01*
X72589877Y-70818436D01*
X72534361Y-70677658D01*
X72442922Y-70557078D01*
X72322342Y-70465639D01*
X72322341Y-70465638D01*
X72322339Y-70465637D01*
X72181565Y-70410123D01*
X72093106Y-70399500D01*
X72093102Y-70399500D01*
X69906898Y-70399500D01*
X69906893Y-70399500D01*
X69818434Y-70410123D01*
X69677660Y-70465637D01*
X69677656Y-70465640D01*
X69557081Y-70557075D01*
X69557075Y-70557081D01*
X69465640Y-70677656D01*
X69465637Y-70677660D01*
X69410123Y-70818434D01*
X69399500Y-70906893D01*
X59330342Y-70906893D01*
X59202656Y-70779207D01*
X58998845Y-70631130D01*
X58998844Y-70631129D01*
X58998842Y-70631128D01*
X58774379Y-70516759D01*
X58534780Y-70438908D01*
X58285965Y-70399500D01*
X58285962Y-70399500D01*
X58034038Y-70399500D01*
X58034035Y-70399500D01*
X57785219Y-70438908D01*
X57545620Y-70516759D01*
X57321157Y-70631128D01*
X57117345Y-70779206D01*
X56939206Y-70957345D01*
X56791128Y-71161157D01*
X56676759Y-71385620D01*
X56598908Y-71625219D01*
X56559500Y-71874034D01*
X54680500Y-71874034D01*
X54641091Y-71625219D01*
X54637569Y-71614379D01*
X54563241Y-71385621D01*
X54448870Y-71161155D01*
X54300793Y-70957344D01*
X54122656Y-70779207D01*
X53918845Y-70631130D01*
X53918844Y-70631129D01*
X53918842Y-70631128D01*
X53694379Y-70516759D01*
X53454780Y-70438908D01*
X53205965Y-70399500D01*
X53205962Y-70399500D01*
X52954038Y-70399500D01*
X52954035Y-70399500D01*
X52705219Y-70438908D01*
X52465620Y-70516759D01*
X52241157Y-70631128D01*
X52037345Y-70779206D01*
X51859206Y-70957345D01*
X51711128Y-71161157D01*
X51596759Y-71385620D01*
X51518908Y-71625219D01*
X51479500Y-71874034D01*
X49600500Y-71874034D01*
X49600500Y-70906898D01*
X49589877Y-70818436D01*
X49534361Y-70677658D01*
X49442922Y-70557078D01*
X49322342Y-70465639D01*
X49322341Y-70465638D01*
X49322339Y-70465637D01*
X49181565Y-70410123D01*
X49093106Y-70399500D01*
X49093102Y-70399500D01*
X46906898Y-70399500D01*
X46906893Y-70399500D01*
X46818434Y-70410123D01*
X46677660Y-70465637D01*
X46677656Y-70465640D01*
X46557081Y-70557075D01*
X46557075Y-70557081D01*
X46465640Y-70677656D01*
X46465637Y-70677660D01*
X46410123Y-70818434D01*
X46399500Y-70906893D01*
X35760500Y-70906893D01*
X35760500Y-70874038D01*
X35760500Y-70874034D01*
X35721091Y-70625219D01*
X35705354Y-70576785D01*
X35643241Y-70385621D01*
X35528870Y-70161155D01*
X35380793Y-69957344D01*
X35202656Y-69779207D01*
X34998845Y-69631130D01*
X34998844Y-69631129D01*
X34998842Y-69631128D01*
X34774379Y-69516759D01*
X34534780Y-69438908D01*
X34285965Y-69399500D01*
X34285962Y-69399500D01*
X34034038Y-69399500D01*
X34034035Y-69399500D01*
X33785219Y-69438908D01*
X33545620Y-69516759D01*
X33321157Y-69631128D01*
X33117345Y-69779206D01*
X32939206Y-69957345D01*
X32791128Y-70161157D01*
X32676759Y-70385620D01*
X32598908Y-70625219D01*
X32559500Y-70874034D01*
X30680500Y-70874034D01*
X30641091Y-70625219D01*
X30625354Y-70576785D01*
X30563241Y-70385621D01*
X30448870Y-70161155D01*
X30300793Y-69957344D01*
X30122656Y-69779207D01*
X29918845Y-69631130D01*
X29918844Y-69631129D01*
X29918842Y-69631128D01*
X29694379Y-69516759D01*
X29454780Y-69438908D01*
X29205965Y-69399500D01*
X29205962Y-69399500D01*
X28954038Y-69399500D01*
X28954035Y-69399500D01*
X28705219Y-69438908D01*
X28465620Y-69516759D01*
X28241157Y-69631128D01*
X28037345Y-69779206D01*
X27859206Y-69957345D01*
X27711128Y-70161157D01*
X27596759Y-70385620D01*
X27518908Y-70625219D01*
X27479500Y-70874034D01*
X25600500Y-70874034D01*
X25600500Y-69906898D01*
X25589877Y-69818436D01*
X25534361Y-69677658D01*
X25442922Y-69557078D01*
X25322342Y-69465639D01*
X25322341Y-69465638D01*
X25322339Y-69465637D01*
X25181565Y-69410123D01*
X25093106Y-69399500D01*
X25093102Y-69399500D01*
X22906898Y-69399500D01*
X22906893Y-69399500D01*
X22818434Y-69410123D01*
X22677660Y-69465637D01*
X22677656Y-69465640D01*
X22557081Y-69557075D01*
X22557075Y-69557081D01*
X22465640Y-69677656D01*
X22465637Y-69677660D01*
X22410123Y-69818434D01*
X22399500Y-69906893D01*
X20259471Y-69906893D01*
X20233402Y-69742297D01*
X20233401Y-69742293D01*
X20179876Y-69577561D01*
X20179874Y-69577558D01*
X20179873Y-69577557D01*
X20179873Y-69577555D01*
X20101232Y-69423212D01*
X19999414Y-69283072D01*
X19876928Y-69160586D01*
X19736788Y-69058768D01*
X19736787Y-69058767D01*
X19736785Y-69058766D01*
X19582441Y-68980125D01*
X19582438Y-68980123D01*
X19417706Y-68926598D01*
X19417702Y-68926597D01*
X19246614Y-68899500D01*
X19246611Y-68899500D01*
X19073389Y-68899500D01*
X19073386Y-68899500D01*
X18902297Y-68926597D01*
X18902293Y-68926598D01*
X18737561Y-68980123D01*
X18737558Y-68980125D01*
X18583214Y-69058766D01*
X18443073Y-69160585D01*
X18320585Y-69283073D01*
X18218766Y-69423214D01*
X18140125Y-69577558D01*
X18140123Y-69577561D01*
X18086598Y-69742293D01*
X18086597Y-69742297D01*
X18059500Y-69913385D01*
X10100500Y-69913385D01*
X10073402Y-69742297D01*
X10073401Y-69742293D01*
X10019876Y-69577561D01*
X10019874Y-69577558D01*
X10019873Y-69577557D01*
X10019873Y-69577555D01*
X9941232Y-69423212D01*
X9839414Y-69283072D01*
X9716928Y-69160586D01*
X9576788Y-69058768D01*
X9576787Y-69058767D01*
X9576785Y-69058766D01*
X9422441Y-68980125D01*
X9422438Y-68980123D01*
X9257706Y-68926598D01*
X9257702Y-68926597D01*
X9086614Y-68899500D01*
X9086611Y-68899500D01*
X8913389Y-68899500D01*
X8913386Y-68899500D01*
X8742297Y-68926597D01*
X8742293Y-68926598D01*
X8577561Y-68980123D01*
X8577558Y-68980125D01*
X8423214Y-69058766D01*
X8283073Y-69160585D01*
X8160585Y-69283073D01*
X8058766Y-69423214D01*
X7980125Y-69577558D01*
X7980123Y-69577561D01*
X7926598Y-69742293D01*
X7926597Y-69742297D01*
X7899500Y-69913385D01*
X600000Y-69913385D01*
X600000Y-66533385D01*
X7899500Y-66533385D01*
X7899500Y-66706614D01*
X7926597Y-66877702D01*
X7926598Y-66877706D01*
X7980123Y-67042438D01*
X7980125Y-67042441D01*
X7980126Y-67042444D01*
X7980127Y-67042445D01*
X8058768Y-67196788D01*
X8160586Y-67336928D01*
X8283072Y-67459414D01*
X8423212Y-67561232D01*
X8577555Y-67639873D01*
X8577557Y-67639873D01*
X8577558Y-67639874D01*
X8577561Y-67639876D01*
X8742293Y-67693401D01*
X8742297Y-67693402D01*
X8913386Y-67720500D01*
X8913389Y-67720500D01*
X9086614Y-67720500D01*
X9257702Y-67693402D01*
X9257706Y-67693401D01*
X9422438Y-67639876D01*
X9422440Y-67639874D01*
X9422445Y-67639873D01*
X9576788Y-67561232D01*
X9716928Y-67459414D01*
X9839414Y-67336928D01*
X9941232Y-67196788D01*
X10019873Y-67042445D01*
X10019874Y-67042440D01*
X10019876Y-67042438D01*
X10073401Y-66877706D01*
X10073402Y-66877702D01*
X10100500Y-66706614D01*
X10100500Y-66533385D01*
X15519500Y-66533385D01*
X15519500Y-66706614D01*
X15546597Y-66877702D01*
X15546598Y-66877706D01*
X15600123Y-67042438D01*
X15600125Y-67042441D01*
X15600126Y-67042444D01*
X15600127Y-67042445D01*
X15678768Y-67196788D01*
X15780586Y-67336928D01*
X15903072Y-67459414D01*
X16043212Y-67561232D01*
X16197555Y-67639873D01*
X16197557Y-67639873D01*
X16197558Y-67639874D01*
X16197561Y-67639876D01*
X16362293Y-67693401D01*
X16362297Y-67693402D01*
X16533386Y-67720500D01*
X16533389Y-67720500D01*
X16706614Y-67720500D01*
X16877702Y-67693402D01*
X16877706Y-67693401D01*
X17042438Y-67639876D01*
X17042440Y-67639874D01*
X17042445Y-67639873D01*
X17196788Y-67561232D01*
X17336928Y-67459414D01*
X17459414Y-67336928D01*
X17561232Y-67196788D01*
X17639873Y-67042445D01*
X17639874Y-67042440D01*
X17639876Y-67042438D01*
X17693401Y-66877706D01*
X17693402Y-66877702D01*
X17720500Y-66706614D01*
X17720500Y-66533385D01*
X17693402Y-66362297D01*
X17693401Y-66362293D01*
X17639876Y-66197561D01*
X17639874Y-66197558D01*
X17639873Y-66197557D01*
X17639873Y-66197555D01*
X17561232Y-66043212D01*
X17459414Y-65903072D01*
X17434311Y-65877969D01*
X70449500Y-65877969D01*
X70449500Y-66122030D01*
X70487677Y-66363071D01*
X70563096Y-66595185D01*
X70673892Y-66812637D01*
X70721164Y-66877701D01*
X70817345Y-67010083D01*
X70989917Y-67182655D01*
X71133369Y-67286878D01*
X71187362Y-67326107D01*
X71208600Y-67336928D01*
X71404815Y-67436904D01*
X71636924Y-67512321D01*
X71636925Y-67512321D01*
X71636928Y-67512322D01*
X71877970Y-67550500D01*
X71877973Y-67550500D01*
X72122030Y-67550500D01*
X72363071Y-67512322D01*
X72363072Y-67512321D01*
X72363076Y-67512321D01*
X72595185Y-67436904D01*
X72812639Y-67326106D01*
X73010083Y-67182655D01*
X73182655Y-67010083D01*
X73326106Y-66812639D01*
X73436904Y-66595185D01*
X73512321Y-66363076D01*
X73512444Y-66362299D01*
X73550500Y-66122030D01*
X73550500Y-65877969D01*
X82649500Y-65877969D01*
X82649500Y-66122030D01*
X82687677Y-66363071D01*
X82763096Y-66595185D01*
X82873892Y-66812637D01*
X82921164Y-66877701D01*
X83017345Y-67010083D01*
X83189917Y-67182655D01*
X83333369Y-67286878D01*
X83387362Y-67326107D01*
X83408600Y-67336928D01*
X83604815Y-67436904D01*
X83836924Y-67512321D01*
X83836925Y-67512321D01*
X83836928Y-67512322D01*
X84077970Y-67550500D01*
X84077973Y-67550500D01*
X84322030Y-67550500D01*
X84563071Y-67512322D01*
X84563072Y-67512321D01*
X84563076Y-67512321D01*
X84795185Y-67436904D01*
X85012639Y-67326106D01*
X85210083Y-67182655D01*
X85382655Y-67010083D01*
X85526106Y-66812639D01*
X85636904Y-66595185D01*
X85712321Y-66363076D01*
X85712444Y-66362299D01*
X85750500Y-66122030D01*
X85750500Y-65877969D01*
X85712322Y-65636928D01*
X85700364Y-65600125D01*
X85636904Y-65404815D01*
X85526106Y-65187361D01*
X85501433Y-65153402D01*
X85486878Y-65133369D01*
X85382655Y-64989917D01*
X85210083Y-64817345D01*
X85120623Y-64752348D01*
X85012637Y-64673892D01*
X84795185Y-64563096D01*
X84563071Y-64487677D01*
X84322030Y-64449500D01*
X84322027Y-64449500D01*
X84077973Y-64449500D01*
X84077970Y-64449500D01*
X83836928Y-64487677D01*
X83604814Y-64563096D01*
X83387362Y-64673892D01*
X83189918Y-64817344D01*
X83017344Y-64989918D01*
X82873892Y-65187362D01*
X82763096Y-65404814D01*
X82687677Y-65636928D01*
X82649500Y-65877969D01*
X73550500Y-65877969D01*
X73512322Y-65636928D01*
X73500364Y-65600125D01*
X73436904Y-65404815D01*
X73326106Y-65187361D01*
X73301433Y-65153402D01*
X73286878Y-65133369D01*
X73182655Y-64989917D01*
X73010083Y-64817345D01*
X72920623Y-64752348D01*
X72812637Y-64673892D01*
X72595185Y-64563096D01*
X72363071Y-64487677D01*
X72122030Y-64449500D01*
X72122027Y-64449500D01*
X71877973Y-64449500D01*
X71877970Y-64449500D01*
X71636928Y-64487677D01*
X71404814Y-64563096D01*
X71187362Y-64673892D01*
X70989918Y-64817344D01*
X70817344Y-64989918D01*
X70673892Y-65187362D01*
X70563096Y-65404814D01*
X70487677Y-65636928D01*
X70449500Y-65877969D01*
X17434311Y-65877969D01*
X17336928Y-65780586D01*
X17196788Y-65678768D01*
X17196787Y-65678767D01*
X17196785Y-65678766D01*
X17042441Y-65600125D01*
X17042438Y-65600123D01*
X16877706Y-65546598D01*
X16877702Y-65546597D01*
X16706614Y-65519500D01*
X16706611Y-65519500D01*
X16533389Y-65519500D01*
X16533386Y-65519500D01*
X16362297Y-65546597D01*
X16362293Y-65546598D01*
X16197561Y-65600123D01*
X16197558Y-65600125D01*
X16043214Y-65678766D01*
X15903073Y-65780585D01*
X15780585Y-65903073D01*
X15678766Y-66043214D01*
X15600125Y-66197558D01*
X15600123Y-66197561D01*
X15546598Y-66362293D01*
X15546597Y-66362297D01*
X15519500Y-66533385D01*
X10100500Y-66533385D01*
X10073402Y-66362297D01*
X10073401Y-66362293D01*
X10019876Y-66197561D01*
X10019874Y-66197558D01*
X10019873Y-66197557D01*
X10019873Y-66197555D01*
X9941232Y-66043212D01*
X9839414Y-65903072D01*
X9716928Y-65780586D01*
X9576788Y-65678768D01*
X9576787Y-65678767D01*
X9576785Y-65678766D01*
X9422441Y-65600125D01*
X9422438Y-65600123D01*
X9257706Y-65546598D01*
X9257702Y-65546597D01*
X9086614Y-65519500D01*
X9086611Y-65519500D01*
X8913389Y-65519500D01*
X8913386Y-65519500D01*
X8742297Y-65546597D01*
X8742293Y-65546598D01*
X8577561Y-65600123D01*
X8577558Y-65600125D01*
X8423214Y-65678766D01*
X8283073Y-65780585D01*
X8160585Y-65903073D01*
X8058766Y-66043214D01*
X7980125Y-66197558D01*
X7980123Y-66197561D01*
X7926598Y-66362293D01*
X7926597Y-66362297D01*
X7899500Y-66533385D01*
X600000Y-66533385D01*
X600000Y-63993385D01*
X7899500Y-63993385D01*
X7899500Y-64166614D01*
X7926597Y-64337702D01*
X7926598Y-64337706D01*
X7980123Y-64502438D01*
X7980125Y-64502441D01*
X7980126Y-64502444D01*
X7980127Y-64502445D01*
X8058768Y-64656788D01*
X8160586Y-64796928D01*
X8283072Y-64919414D01*
X8423212Y-65021232D01*
X8577555Y-65099873D01*
X8577557Y-65099873D01*
X8577558Y-65099874D01*
X8577561Y-65099876D01*
X8742293Y-65153401D01*
X8742297Y-65153402D01*
X8913386Y-65180500D01*
X8913389Y-65180500D01*
X9086614Y-65180500D01*
X9257702Y-65153402D01*
X9257706Y-65153401D01*
X9422438Y-65099876D01*
X9422440Y-65099874D01*
X9422445Y-65099873D01*
X9576788Y-65021232D01*
X9716928Y-64919414D01*
X9839414Y-64796928D01*
X9941232Y-64656788D01*
X10019873Y-64502445D01*
X10019874Y-64502440D01*
X10019876Y-64502438D01*
X10073401Y-64337706D01*
X10073402Y-64337702D01*
X10100500Y-64166614D01*
X10100500Y-63993385D01*
X15519500Y-63993385D01*
X15519500Y-64166614D01*
X15546597Y-64337702D01*
X15546598Y-64337706D01*
X15600123Y-64502438D01*
X15600125Y-64502441D01*
X15600126Y-64502444D01*
X15600127Y-64502445D01*
X15678768Y-64656788D01*
X15780586Y-64796928D01*
X15903072Y-64919414D01*
X16043212Y-65021232D01*
X16197555Y-65099873D01*
X16197557Y-65099873D01*
X16197558Y-65099874D01*
X16197561Y-65099876D01*
X16362293Y-65153401D01*
X16362297Y-65153402D01*
X16533386Y-65180500D01*
X16533389Y-65180500D01*
X16706614Y-65180500D01*
X16877702Y-65153402D01*
X16877706Y-65153401D01*
X17042438Y-65099876D01*
X17042440Y-65099874D01*
X17042445Y-65099873D01*
X17196788Y-65021232D01*
X17336928Y-64919414D01*
X17459414Y-64796928D01*
X17561232Y-64656788D01*
X17639873Y-64502445D01*
X17639874Y-64502440D01*
X17639876Y-64502438D01*
X17693401Y-64337706D01*
X17693402Y-64337702D01*
X17720500Y-64166614D01*
X17720500Y-63993385D01*
X17693402Y-63822297D01*
X17693401Y-63822293D01*
X17639876Y-63657561D01*
X17639874Y-63657558D01*
X17639873Y-63657557D01*
X17639873Y-63657555D01*
X17561232Y-63503212D01*
X17459414Y-63363072D01*
X17336928Y-63240586D01*
X17196788Y-63138768D01*
X17196787Y-63138767D01*
X17196785Y-63138766D01*
X17042441Y-63060125D01*
X17042438Y-63060123D01*
X16877706Y-63006598D01*
X16877702Y-63006597D01*
X16706614Y-62979500D01*
X16706611Y-62979500D01*
X16533389Y-62979500D01*
X16533386Y-62979500D01*
X16362297Y-63006597D01*
X16362293Y-63006598D01*
X16197561Y-63060123D01*
X16197558Y-63060125D01*
X16043214Y-63138766D01*
X15903073Y-63240585D01*
X15780585Y-63363073D01*
X15678766Y-63503214D01*
X15600125Y-63657558D01*
X15600123Y-63657561D01*
X15546598Y-63822293D01*
X15546597Y-63822297D01*
X15519500Y-63993385D01*
X10100500Y-63993385D01*
X10073402Y-63822297D01*
X10073401Y-63822293D01*
X10019876Y-63657561D01*
X10019874Y-63657558D01*
X10019873Y-63657557D01*
X10019873Y-63657555D01*
X9941232Y-63503212D01*
X9839414Y-63363072D01*
X9716928Y-63240586D01*
X9576788Y-63138768D01*
X9576787Y-63138767D01*
X9576785Y-63138766D01*
X9422441Y-63060125D01*
X9422438Y-63060123D01*
X9257706Y-63006598D01*
X9257702Y-63006597D01*
X9086614Y-62979500D01*
X9086611Y-62979500D01*
X8913389Y-62979500D01*
X8913386Y-62979500D01*
X8742297Y-63006597D01*
X8742293Y-63006598D01*
X8577561Y-63060123D01*
X8577558Y-63060125D01*
X8423214Y-63138766D01*
X8283073Y-63240585D01*
X8160585Y-63363073D01*
X8058766Y-63503214D01*
X7980125Y-63657558D01*
X7980123Y-63657561D01*
X7926598Y-63822293D01*
X7926597Y-63822297D01*
X7899500Y-63993385D01*
X600000Y-63993385D01*
X600000Y-61453385D01*
X7899500Y-61453385D01*
X7899500Y-61626614D01*
X7926597Y-61797702D01*
X7926598Y-61797706D01*
X7980123Y-61962438D01*
X7980125Y-61962441D01*
X8058765Y-62116784D01*
X8058768Y-62116788D01*
X8160586Y-62256928D01*
X8283072Y-62379414D01*
X8423212Y-62481232D01*
X8577555Y-62559873D01*
X8577557Y-62559873D01*
X8577558Y-62559874D01*
X8577561Y-62559876D01*
X8742293Y-62613401D01*
X8742297Y-62613402D01*
X8913386Y-62640500D01*
X8913389Y-62640500D01*
X9086614Y-62640500D01*
X9257702Y-62613402D01*
X9257706Y-62613401D01*
X9422438Y-62559876D01*
X9422440Y-62559874D01*
X9422445Y-62559873D01*
X9576788Y-62481232D01*
X9716928Y-62379414D01*
X9839414Y-62256928D01*
X9941232Y-62116788D01*
X10019873Y-61962445D01*
X10019874Y-61962440D01*
X10019876Y-61962438D01*
X10073401Y-61797706D01*
X10073402Y-61797702D01*
X10100500Y-61626614D01*
X10100500Y-61453385D01*
X10073402Y-61282297D01*
X10073401Y-61282293D01*
X10019876Y-61117561D01*
X10019874Y-61117558D01*
X10019873Y-61117557D01*
X10019873Y-61117555D01*
X9941232Y-60963212D01*
X9839414Y-60823072D01*
X9716928Y-60700586D01*
X9576788Y-60598768D01*
X9576787Y-60598767D01*
X9576785Y-60598766D01*
X9422441Y-60520125D01*
X9422438Y-60520123D01*
X9257706Y-60466598D01*
X9257702Y-60466597D01*
X9086614Y-60439500D01*
X9086611Y-60439500D01*
X8913389Y-60439500D01*
X8913386Y-60439500D01*
X8742297Y-60466597D01*
X8742293Y-60466598D01*
X8577561Y-60520123D01*
X8577558Y-60520125D01*
X8423214Y-60598766D01*
X8283073Y-60700585D01*
X8160585Y-60823073D01*
X8058766Y-60963214D01*
X7980125Y-61117558D01*
X7980123Y-61117561D01*
X7926598Y-61282293D01*
X7926597Y-61282297D01*
X7899500Y-61453385D01*
X600000Y-61453385D01*
X600000Y-58406893D01*
X7899500Y-58406893D01*
X7899500Y-59593106D01*
X7910123Y-59681565D01*
X7965637Y-59822339D01*
X7965638Y-59822341D01*
X7965639Y-59822342D01*
X8057078Y-59942922D01*
X8177658Y-60034361D01*
X8177659Y-60034361D01*
X8177660Y-60034362D01*
X8224063Y-60052661D01*
X8318436Y-60089877D01*
X8406898Y-60100500D01*
X8406900Y-60100500D01*
X9593100Y-60100500D01*
X9593102Y-60100500D01*
X9681564Y-60089877D01*
X9822342Y-60034361D01*
X9942922Y-59942922D01*
X10034361Y-59822342D01*
X10089877Y-59681564D01*
X10100500Y-59593102D01*
X10100500Y-58440243D01*
X12257000Y-58440243D01*
X12257000Y-58598357D01*
X12297923Y-58751084D01*
X12376980Y-58888016D01*
X12488784Y-58999820D01*
X12625716Y-59078877D01*
X12778443Y-59119800D01*
X12778445Y-59119800D01*
X12936555Y-59119800D01*
X12936557Y-59119800D01*
X13089284Y-59078877D01*
X13226216Y-58999820D01*
X13328352Y-58897684D01*
X15320000Y-58897684D01*
X15320000Y-59102315D01*
X15352008Y-59304412D01*
X15415243Y-59499027D01*
X15508139Y-59681348D01*
X15508143Y-59681353D01*
X15540523Y-59725920D01*
X15540524Y-59725920D01*
X16220000Y-59046444D01*
X16220000Y-59052661D01*
X16247259Y-59154394D01*
X16299920Y-59245606D01*
X16374394Y-59320080D01*
X16465606Y-59372741D01*
X16567339Y-59400000D01*
X16573553Y-59400000D01*
X15894078Y-60079475D01*
X15938647Y-60111858D01*
X16120972Y-60204756D01*
X16315587Y-60267991D01*
X16350636Y-60273542D01*
X16405153Y-60301319D01*
X16432931Y-60355835D01*
X16423360Y-60416267D01*
X16380096Y-60459532D01*
X16365743Y-60465477D01*
X16197561Y-60520123D01*
X16197558Y-60520125D01*
X16043214Y-60598766D01*
X15903073Y-60700585D01*
X15780585Y-60823073D01*
X15678766Y-60963214D01*
X15600125Y-61117558D01*
X15600123Y-61117561D01*
X15546598Y-61282293D01*
X15546597Y-61282297D01*
X15519500Y-61453385D01*
X15519500Y-61626614D01*
X15546597Y-61797702D01*
X15546598Y-61797706D01*
X15600123Y-61962438D01*
X15600125Y-61962441D01*
X15678765Y-62116784D01*
X15678768Y-62116788D01*
X15780586Y-62256928D01*
X15903072Y-62379414D01*
X16043212Y-62481232D01*
X16197555Y-62559873D01*
X16197557Y-62559873D01*
X16197558Y-62559874D01*
X16197561Y-62559876D01*
X16362293Y-62613401D01*
X16362297Y-62613402D01*
X16533386Y-62640500D01*
X16533389Y-62640500D01*
X16706614Y-62640500D01*
X16877702Y-62613402D01*
X16877706Y-62613401D01*
X17042438Y-62559876D01*
X17042440Y-62559874D01*
X17042445Y-62559873D01*
X17196788Y-62481232D01*
X17336928Y-62379414D01*
X17459414Y-62256928D01*
X17522971Y-62169450D01*
X38849500Y-62169450D01*
X38849500Y-62350549D01*
X38877828Y-62529406D01*
X38905119Y-62613402D01*
X38933789Y-62701639D01*
X39016004Y-62862994D01*
X39122447Y-63009501D01*
X39250499Y-63137553D01*
X39397006Y-63243996D01*
X39558361Y-63326211D01*
X39730591Y-63382171D01*
X39802136Y-63393502D01*
X39909451Y-63410500D01*
X39909454Y-63410500D01*
X40090549Y-63410500D01*
X40179977Y-63396335D01*
X40269409Y-63382171D01*
X40441639Y-63326211D01*
X40602994Y-63243996D01*
X40749501Y-63137553D01*
X40877553Y-63009501D01*
X40983996Y-62862994D01*
X41066211Y-62701639D01*
X41122171Y-62529409D01*
X41150500Y-62350546D01*
X41150500Y-62169454D01*
X41150500Y-62169450D01*
X61709500Y-62169450D01*
X61709500Y-62350549D01*
X61737828Y-62529406D01*
X61765119Y-62613402D01*
X61793789Y-62701639D01*
X61876004Y-62862994D01*
X61982447Y-63009501D01*
X62110499Y-63137553D01*
X62257006Y-63243996D01*
X62418361Y-63326211D01*
X62590591Y-63382171D01*
X62662136Y-63393502D01*
X62769451Y-63410500D01*
X62769454Y-63410500D01*
X62950549Y-63410500D01*
X63039977Y-63396335D01*
X63129409Y-63382171D01*
X63301639Y-63326211D01*
X63462994Y-63243996D01*
X63609501Y-63137553D01*
X63737553Y-63009501D01*
X63843996Y-62862994D01*
X63926211Y-62701639D01*
X63982158Y-62529450D01*
X91849500Y-62529450D01*
X91849500Y-62710549D01*
X91877828Y-62889406D01*
X91933297Y-63060127D01*
X91933789Y-63061639D01*
X92016004Y-63222994D01*
X92122447Y-63369501D01*
X92250499Y-63497553D01*
X92397006Y-63603996D01*
X92558361Y-63686211D01*
X92730591Y-63742171D01*
X92802136Y-63753502D01*
X92909451Y-63770500D01*
X92909454Y-63770500D01*
X93090549Y-63770500D01*
X93179977Y-63756335D01*
X93269409Y-63742171D01*
X93441639Y-63686211D01*
X93602994Y-63603996D01*
X93749501Y-63497553D01*
X93877553Y-63369501D01*
X93983996Y-63222994D01*
X94066211Y-63061639D01*
X94122171Y-62889409D01*
X94150500Y-62710546D01*
X94150500Y-62529454D01*
X94150500Y-62529450D01*
X94122171Y-62350593D01*
X94122171Y-62350591D01*
X94066211Y-62178361D01*
X93983996Y-62017006D01*
X93877553Y-61870499D01*
X93749501Y-61742447D01*
X93602994Y-61636004D01*
X93602993Y-61636003D01*
X93602991Y-61636002D01*
X93441637Y-61553788D01*
X93269406Y-61497828D01*
X93090549Y-61469500D01*
X93090546Y-61469500D01*
X92909454Y-61469500D01*
X92909451Y-61469500D01*
X92730593Y-61497828D01*
X92558362Y-61553788D01*
X92397008Y-61636002D01*
X92368099Y-61657006D01*
X92250499Y-61742447D01*
X92122447Y-61870499D01*
X92069225Y-61943752D01*
X92016002Y-62017008D01*
X91933788Y-62178362D01*
X91877828Y-62350593D01*
X91849500Y-62529450D01*
X63982158Y-62529450D01*
X63982171Y-62529409D01*
X63982171Y-62529407D01*
X63982172Y-62529405D01*
X63985233Y-62510079D01*
X63985233Y-62510077D01*
X64010500Y-62350549D01*
X64010500Y-62169450D01*
X63982171Y-61990593D01*
X63982171Y-61990591D01*
X63926211Y-61818361D01*
X63843996Y-61657006D01*
X63737553Y-61510499D01*
X63609501Y-61382447D01*
X63462994Y-61276004D01*
X63462993Y-61276003D01*
X63462991Y-61276002D01*
X63301637Y-61193788D01*
X63129406Y-61137828D01*
X62950549Y-61109500D01*
X62950546Y-61109500D01*
X62769454Y-61109500D01*
X62769451Y-61109500D01*
X62590593Y-61137828D01*
X62418362Y-61193788D01*
X62257008Y-61276002D01*
X62223978Y-61300000D01*
X62110499Y-61382447D01*
X61982447Y-61510499D01*
X61981123Y-61512322D01*
X61876002Y-61657008D01*
X61793788Y-61818362D01*
X61737828Y-61990593D01*
X61709500Y-62169450D01*
X41150500Y-62169450D01*
X41122171Y-61990593D01*
X41122171Y-61990591D01*
X41066211Y-61818361D01*
X40983996Y-61657006D01*
X40877553Y-61510499D01*
X40749501Y-61382447D01*
X40602994Y-61276004D01*
X40602993Y-61276003D01*
X40602991Y-61276002D01*
X40441637Y-61193788D01*
X40269406Y-61137828D01*
X40090549Y-61109500D01*
X40090546Y-61109500D01*
X39909454Y-61109500D01*
X39909451Y-61109500D01*
X39730593Y-61137828D01*
X39558362Y-61193788D01*
X39397008Y-61276002D01*
X39363978Y-61300000D01*
X39250499Y-61382447D01*
X39122447Y-61510499D01*
X39121123Y-61512322D01*
X39016002Y-61657008D01*
X38933788Y-61818362D01*
X38877828Y-61990593D01*
X38849500Y-62169450D01*
X17522971Y-62169450D01*
X17561232Y-62116788D01*
X17639873Y-61962445D01*
X17639874Y-61962440D01*
X17639876Y-61962438D01*
X17693401Y-61797706D01*
X17693402Y-61797702D01*
X17720500Y-61626614D01*
X17720500Y-61453385D01*
X17693402Y-61282297D01*
X17693401Y-61282293D01*
X17639876Y-61117561D01*
X17639872Y-61117552D01*
X17624147Y-61086689D01*
X17624146Y-61086688D01*
X17561233Y-60963214D01*
X17545263Y-60941233D01*
X17459414Y-60823072D01*
X17336928Y-60700586D01*
X17196788Y-60598768D01*
X17196787Y-60598767D01*
X17196785Y-60598766D01*
X17042441Y-60520125D01*
X17042438Y-60520123D01*
X16874256Y-60465477D01*
X16824756Y-60429513D01*
X16805849Y-60371322D01*
X16824757Y-60313132D01*
X16874257Y-60277168D01*
X16889364Y-60273542D01*
X16924411Y-60267991D01*
X17119027Y-60204756D01*
X17301342Y-60111863D01*
X17301350Y-60111858D01*
X17345920Y-60079475D01*
X17164129Y-59897684D01*
X22700000Y-59897684D01*
X22700000Y-60102315D01*
X22732008Y-60304412D01*
X22795243Y-60499027D01*
X22888139Y-60681348D01*
X22888143Y-60681353D01*
X22920523Y-60725920D01*
X22920524Y-60725920D01*
X23600000Y-60046444D01*
X23600000Y-60052661D01*
X23627259Y-60154394D01*
X23679920Y-60245606D01*
X23754394Y-60320080D01*
X23845606Y-60372741D01*
X23947339Y-60400000D01*
X23953553Y-60400000D01*
X23274078Y-61079475D01*
X23318647Y-61111858D01*
X23500972Y-61204756D01*
X23695587Y-61267991D01*
X23897685Y-61300000D01*
X24102315Y-61300000D01*
X24304412Y-61267991D01*
X24499027Y-61204756D01*
X24681342Y-61111863D01*
X24681350Y-61111858D01*
X24725920Y-61079475D01*
X24046445Y-60400000D01*
X24052661Y-60400000D01*
X24154394Y-60372741D01*
X24245606Y-60320080D01*
X24320080Y-60245606D01*
X24372741Y-60154394D01*
X24400000Y-60052661D01*
X24400000Y-60046445D01*
X25079475Y-60725920D01*
X25111858Y-60681350D01*
X25111863Y-60681342D01*
X25204756Y-60499027D01*
X25267991Y-60304412D01*
X25300000Y-60102315D01*
X25300000Y-59913385D01*
X27899500Y-59913385D01*
X27899500Y-60086614D01*
X27926597Y-60257702D01*
X27926598Y-60257706D01*
X27980123Y-60422438D01*
X27980125Y-60422441D01*
X28004103Y-60469502D01*
X28058768Y-60576788D01*
X28160586Y-60716928D01*
X28283072Y-60839414D01*
X28423212Y-60941232D01*
X28577555Y-61019873D01*
X28577557Y-61019873D01*
X28577558Y-61019874D01*
X28577561Y-61019876D01*
X28742293Y-61073401D01*
X28742297Y-61073402D01*
X28913386Y-61100500D01*
X28913389Y-61100500D01*
X29086614Y-61100500D01*
X29257702Y-61073402D01*
X29257706Y-61073401D01*
X29422438Y-61019876D01*
X29422440Y-61019874D01*
X29422445Y-61019873D01*
X29576788Y-60941232D01*
X29716928Y-60839414D01*
X29839414Y-60716928D01*
X29941232Y-60576788D01*
X30019873Y-60422445D01*
X30019874Y-60422440D01*
X30019876Y-60422438D01*
X30073401Y-60257706D01*
X30073402Y-60257702D01*
X30100500Y-60086614D01*
X30100500Y-59913385D01*
X30082434Y-59799329D01*
X30073402Y-59742299D01*
X30045413Y-59656157D01*
X30045413Y-59656153D01*
X30036736Y-59629450D01*
X38849500Y-59629450D01*
X38849500Y-59810549D01*
X38877828Y-59989406D01*
X38933788Y-60161637D01*
X38990806Y-60273542D01*
X39016004Y-60322994D01*
X39122447Y-60469501D01*
X39250499Y-60597553D01*
X39397006Y-60703996D01*
X39558361Y-60786211D01*
X39730591Y-60842171D01*
X39802136Y-60853502D01*
X39909451Y-60870500D01*
X39909454Y-60870500D01*
X40090549Y-60870500D01*
X40179977Y-60856335D01*
X40269409Y-60842171D01*
X40441639Y-60786211D01*
X40602994Y-60703996D01*
X40749501Y-60597553D01*
X40877553Y-60469501D01*
X40983996Y-60322994D01*
X41066211Y-60161639D01*
X41122171Y-59989409D01*
X41128834Y-59947339D01*
X41134212Y-59913385D01*
X48899500Y-59913385D01*
X48899500Y-60086614D01*
X48926597Y-60257702D01*
X48926598Y-60257706D01*
X48980123Y-60422438D01*
X48980125Y-60422441D01*
X49004103Y-60469502D01*
X49058768Y-60576788D01*
X49160586Y-60716928D01*
X49283072Y-60839414D01*
X49423212Y-60941232D01*
X49577555Y-61019873D01*
X49577557Y-61019873D01*
X49577558Y-61019874D01*
X49577561Y-61019876D01*
X49742293Y-61073401D01*
X49742297Y-61073402D01*
X49913386Y-61100500D01*
X49913389Y-61100500D01*
X50086614Y-61100500D01*
X50257702Y-61073402D01*
X50257706Y-61073401D01*
X50422438Y-61019876D01*
X50422440Y-61019874D01*
X50422445Y-61019873D01*
X50576788Y-60941232D01*
X50716928Y-60839414D01*
X50839414Y-60716928D01*
X50941232Y-60576788D01*
X51019873Y-60422445D01*
X51019874Y-60422440D01*
X51019876Y-60422438D01*
X51073401Y-60257706D01*
X51073402Y-60257702D01*
X51100500Y-60086614D01*
X51100500Y-59913385D01*
X59059500Y-59913385D01*
X59059500Y-60086614D01*
X59086597Y-60257702D01*
X59086598Y-60257706D01*
X59140123Y-60422438D01*
X59140125Y-60422441D01*
X59164103Y-60469502D01*
X59218768Y-60576788D01*
X59320586Y-60716928D01*
X59443072Y-60839414D01*
X59583212Y-60941232D01*
X59737555Y-61019873D01*
X59737557Y-61019873D01*
X59737558Y-61019874D01*
X59737561Y-61019876D01*
X59902293Y-61073401D01*
X59902297Y-61073402D01*
X60073386Y-61100500D01*
X60073389Y-61100500D01*
X60246614Y-61100500D01*
X60417702Y-61073402D01*
X60417706Y-61073401D01*
X60582438Y-61019876D01*
X60582440Y-61019874D01*
X60582445Y-61019873D01*
X60736788Y-60941232D01*
X60876928Y-60839414D01*
X60999414Y-60716928D01*
X61101232Y-60576788D01*
X61179873Y-60422445D01*
X61179874Y-60422440D01*
X61179876Y-60422438D01*
X61233401Y-60257706D01*
X61233402Y-60257702D01*
X61260500Y-60086614D01*
X61260500Y-59913385D01*
X61242434Y-59799329D01*
X61233402Y-59742299D01*
X61205413Y-59656157D01*
X61205413Y-59656153D01*
X61196736Y-59629450D01*
X61709500Y-59629450D01*
X61709500Y-59810549D01*
X61737828Y-59989406D01*
X61793788Y-60161637D01*
X61850806Y-60273542D01*
X61876004Y-60322994D01*
X61982447Y-60469501D01*
X62110499Y-60597553D01*
X62257006Y-60703996D01*
X62418361Y-60786211D01*
X62590591Y-60842171D01*
X62662136Y-60853502D01*
X62769451Y-60870500D01*
X62769454Y-60870500D01*
X62950549Y-60870500D01*
X63039977Y-60856335D01*
X63129409Y-60842171D01*
X63301639Y-60786211D01*
X63462994Y-60703996D01*
X63609501Y-60597553D01*
X63737553Y-60469501D01*
X63843996Y-60322994D01*
X63926211Y-60161639D01*
X63982171Y-59989409D01*
X63999821Y-59877973D01*
X63999822Y-59877969D01*
X68449500Y-59877969D01*
X68449500Y-60122030D01*
X68487677Y-60363071D01*
X68563096Y-60595185D01*
X68673892Y-60812637D01*
X68693347Y-60839414D01*
X68817345Y-61010083D01*
X68989917Y-61182655D01*
X69107372Y-61267991D01*
X69187362Y-61326107D01*
X69296088Y-61381505D01*
X69404815Y-61436904D01*
X69636924Y-61512321D01*
X69636925Y-61512321D01*
X69636928Y-61512322D01*
X69877970Y-61550500D01*
X69877973Y-61550500D01*
X70122030Y-61550500D01*
X70363071Y-61512322D01*
X70363072Y-61512321D01*
X70363076Y-61512321D01*
X70595185Y-61436904D01*
X70812639Y-61326106D01*
X71010083Y-61182655D01*
X71182655Y-61010083D01*
X71326106Y-60812639D01*
X71436904Y-60595185D01*
X71512321Y-60363076D01*
X71514486Y-60349406D01*
X71550500Y-60122030D01*
X71550500Y-59989450D01*
X91849500Y-59989450D01*
X91849500Y-60170549D01*
X91877828Y-60349406D01*
X91933788Y-60521637D01*
X92015167Y-60681353D01*
X92016004Y-60682994D01*
X92122447Y-60829501D01*
X92250499Y-60957553D01*
X92397006Y-61063996D01*
X92558361Y-61146211D01*
X92730591Y-61202171D01*
X92802136Y-61213502D01*
X92909451Y-61230500D01*
X92909454Y-61230500D01*
X93090549Y-61230500D01*
X93179977Y-61216335D01*
X93269409Y-61202171D01*
X93441639Y-61146211D01*
X93602994Y-61063996D01*
X93749501Y-60957553D01*
X93877553Y-60829501D01*
X93983996Y-60682994D01*
X94066211Y-60521639D01*
X94122171Y-60349409D01*
X94150500Y-60170546D01*
X94150500Y-59989454D01*
X94150500Y-59989450D01*
X94124032Y-59822342D01*
X94122171Y-59810591D01*
X94066211Y-59638361D01*
X93983996Y-59477006D01*
X93877553Y-59330499D01*
X93749501Y-59202447D01*
X93602994Y-59096004D01*
X93602993Y-59096003D01*
X93602991Y-59096002D01*
X93441637Y-59013788D01*
X93269406Y-58957828D01*
X93090549Y-58929500D01*
X93090546Y-58929500D01*
X92909454Y-58929500D01*
X92909451Y-58929500D01*
X92730593Y-58957828D01*
X92558362Y-59013788D01*
X92397008Y-59096002D01*
X92368099Y-59117006D01*
X92250499Y-59202447D01*
X92122447Y-59330499D01*
X92105697Y-59353554D01*
X92016002Y-59477008D01*
X91933788Y-59638362D01*
X91877828Y-59810593D01*
X91849500Y-59989450D01*
X71550500Y-59989450D01*
X71550500Y-59877969D01*
X71512322Y-59636928D01*
X71509894Y-59629454D01*
X71436904Y-59404815D01*
X71326106Y-59187361D01*
X71182655Y-58989917D01*
X71010083Y-58817345D01*
X70918881Y-58751083D01*
X70812637Y-58673892D01*
X70595185Y-58563096D01*
X70363071Y-58487677D01*
X70122030Y-58449500D01*
X70122027Y-58449500D01*
X69877973Y-58449500D01*
X69877970Y-58449500D01*
X69636928Y-58487677D01*
X69404814Y-58563096D01*
X69187362Y-58673892D01*
X68989918Y-58817344D01*
X68817344Y-58989918D01*
X68673892Y-59187362D01*
X68563096Y-59404814D01*
X68487677Y-59636928D01*
X68449500Y-59877969D01*
X63999822Y-59877969D01*
X64002890Y-59858596D01*
X64010500Y-59810549D01*
X64010500Y-59629450D01*
X63991614Y-59510212D01*
X63982171Y-59450591D01*
X63926211Y-59278361D01*
X63843996Y-59117006D01*
X63737553Y-58970499D01*
X63609501Y-58842447D01*
X63462994Y-58736004D01*
X63462993Y-58736003D01*
X63462991Y-58736002D01*
X63301637Y-58653788D01*
X63129406Y-58597828D01*
X62950549Y-58569500D01*
X62950546Y-58569500D01*
X62769454Y-58569500D01*
X62769451Y-58569500D01*
X62590593Y-58597828D01*
X62418362Y-58653788D01*
X62257008Y-58736002D01*
X62231694Y-58754394D01*
X62110499Y-58842447D01*
X61982447Y-58970499D01*
X61950996Y-59013788D01*
X61876002Y-59117008D01*
X61793788Y-59278362D01*
X61737828Y-59450593D01*
X61709500Y-59629450D01*
X61196736Y-59629450D01*
X61179876Y-59577561D01*
X61179874Y-59577558D01*
X61179873Y-59577557D01*
X61179873Y-59577555D01*
X61101232Y-59423212D01*
X60999414Y-59283072D01*
X60876928Y-59160586D01*
X60736788Y-59058768D01*
X60736787Y-59058767D01*
X60736785Y-59058766D01*
X60582441Y-58980125D01*
X60582438Y-58980123D01*
X60417706Y-58926598D01*
X60417702Y-58926597D01*
X60246614Y-58899500D01*
X60246611Y-58899500D01*
X60073389Y-58899500D01*
X60073386Y-58899500D01*
X59902297Y-58926597D01*
X59902293Y-58926598D01*
X59737561Y-58980123D01*
X59737558Y-58980125D01*
X59583214Y-59058766D01*
X59443073Y-59160585D01*
X59320585Y-59283073D01*
X59218766Y-59423214D01*
X59140125Y-59577558D01*
X59140123Y-59577561D01*
X59086598Y-59742293D01*
X59086597Y-59742297D01*
X59059500Y-59913385D01*
X51100500Y-59913385D01*
X51073402Y-59742297D01*
X51073401Y-59742293D01*
X51019876Y-59577561D01*
X51019874Y-59577558D01*
X51019873Y-59577557D01*
X51019873Y-59577555D01*
X50941232Y-59423212D01*
X50839414Y-59283072D01*
X50716928Y-59160586D01*
X50576788Y-59058768D01*
X50576787Y-59058767D01*
X50576785Y-59058766D01*
X50422441Y-58980125D01*
X50422438Y-58980123D01*
X50257706Y-58926598D01*
X50257702Y-58926597D01*
X50086614Y-58899500D01*
X50086611Y-58899500D01*
X49913389Y-58899500D01*
X49913386Y-58899500D01*
X49742297Y-58926597D01*
X49742293Y-58926598D01*
X49577561Y-58980123D01*
X49577558Y-58980125D01*
X49423214Y-59058766D01*
X49283073Y-59160585D01*
X49160585Y-59283073D01*
X49058766Y-59423214D01*
X48980125Y-59577558D01*
X48980123Y-59577561D01*
X48926598Y-59742293D01*
X48926597Y-59742297D01*
X48899500Y-59913385D01*
X41134212Y-59913385D01*
X41137281Y-59894012D01*
X41150500Y-59810549D01*
X41150500Y-59629450D01*
X41131614Y-59510212D01*
X41122171Y-59450591D01*
X41066211Y-59278361D01*
X40983996Y-59117006D01*
X40877553Y-58970499D01*
X40749501Y-58842447D01*
X40602994Y-58736004D01*
X40602993Y-58736003D01*
X40602991Y-58736002D01*
X40441637Y-58653788D01*
X40269406Y-58597828D01*
X40090549Y-58569500D01*
X40090546Y-58569500D01*
X39909454Y-58569500D01*
X39909451Y-58569500D01*
X39730593Y-58597828D01*
X39558362Y-58653788D01*
X39397008Y-58736002D01*
X39371694Y-58754394D01*
X39250499Y-58842447D01*
X39122447Y-58970499D01*
X39090996Y-59013788D01*
X39016002Y-59117008D01*
X38933788Y-59278362D01*
X38877828Y-59450593D01*
X38849500Y-59629450D01*
X30036736Y-59629450D01*
X30019876Y-59577561D01*
X30019874Y-59577558D01*
X30019873Y-59577557D01*
X30019873Y-59577555D01*
X29941232Y-59423212D01*
X29839414Y-59283072D01*
X29716928Y-59160586D01*
X29576788Y-59058768D01*
X29576787Y-59058767D01*
X29576785Y-59058766D01*
X29422441Y-58980125D01*
X29422438Y-58980123D01*
X29257706Y-58926598D01*
X29257702Y-58926597D01*
X29086614Y-58899500D01*
X29086611Y-58899500D01*
X28913389Y-58899500D01*
X28913386Y-58899500D01*
X28742297Y-58926597D01*
X28742293Y-58926598D01*
X28577561Y-58980123D01*
X28577558Y-58980125D01*
X28423214Y-59058766D01*
X28283073Y-59160585D01*
X28160585Y-59283073D01*
X28058766Y-59423214D01*
X27980125Y-59577558D01*
X27980123Y-59577561D01*
X27926598Y-59742293D01*
X27926597Y-59742297D01*
X27899500Y-59913385D01*
X25300000Y-59913385D01*
X25300000Y-59897684D01*
X25267991Y-59695587D01*
X25204756Y-59500972D01*
X25111858Y-59318647D01*
X25079475Y-59274078D01*
X24400000Y-59953553D01*
X24400000Y-59947339D01*
X24372741Y-59845606D01*
X24320080Y-59754394D01*
X24245606Y-59679920D01*
X24154394Y-59627259D01*
X24052661Y-59600000D01*
X24046445Y-59600000D01*
X24725920Y-58920524D01*
X24725920Y-58920523D01*
X24681353Y-58888143D01*
X24681348Y-58888139D01*
X24499027Y-58795243D01*
X24304412Y-58732008D01*
X24102315Y-58700000D01*
X23897685Y-58700000D01*
X23695587Y-58732008D01*
X23500972Y-58795243D01*
X23318651Y-58888139D01*
X23318647Y-58888141D01*
X23274078Y-58920523D01*
X23953555Y-59600000D01*
X23947339Y-59600000D01*
X23845606Y-59627259D01*
X23754394Y-59679920D01*
X23679920Y-59754394D01*
X23627259Y-59845606D01*
X23600000Y-59947339D01*
X23600000Y-59953555D01*
X22920523Y-59274078D01*
X22888141Y-59318647D01*
X22888139Y-59318651D01*
X22795243Y-59500972D01*
X22732008Y-59695587D01*
X22700000Y-59897684D01*
X17164129Y-59897684D01*
X16666445Y-59400000D01*
X16672661Y-59400000D01*
X16774394Y-59372741D01*
X16865606Y-59320080D01*
X16940080Y-59245606D01*
X16992741Y-59154394D01*
X17020000Y-59052661D01*
X17020000Y-59046445D01*
X17699475Y-59725920D01*
X17731858Y-59681350D01*
X17731863Y-59681342D01*
X17824756Y-59499027D01*
X17887991Y-59304412D01*
X17920000Y-59102315D01*
X17920000Y-58897684D01*
X17887991Y-58695587D01*
X17824756Y-58500972D01*
X17731858Y-58318647D01*
X17699475Y-58274078D01*
X17020000Y-58953553D01*
X17020000Y-58947339D01*
X16992741Y-58845606D01*
X16940080Y-58754394D01*
X16865606Y-58679920D01*
X16774394Y-58627259D01*
X16672661Y-58600000D01*
X16666445Y-58600000D01*
X17345920Y-57920524D01*
X17345920Y-57920523D01*
X17301353Y-57888143D01*
X17301348Y-57888139D01*
X17119027Y-57795243D01*
X16924412Y-57732008D01*
X16722315Y-57700000D01*
X16517685Y-57700000D01*
X16315587Y-57732008D01*
X16120972Y-57795243D01*
X15938651Y-57888139D01*
X15938647Y-57888141D01*
X15894078Y-57920523D01*
X16573555Y-58600000D01*
X16567339Y-58600000D01*
X16465606Y-58627259D01*
X16374394Y-58679920D01*
X16299920Y-58754394D01*
X16247259Y-58845606D01*
X16220000Y-58947339D01*
X16220000Y-58953555D01*
X15540523Y-58274078D01*
X15508141Y-58318647D01*
X15508139Y-58318651D01*
X15415243Y-58500972D01*
X15352008Y-58695587D01*
X15320000Y-58897684D01*
X13328352Y-58897684D01*
X13338020Y-58888016D01*
X13351556Y-58864570D01*
X13363261Y-58844298D01*
X13417076Y-58751085D01*
X13417077Y-58751084D01*
X13458000Y-58598357D01*
X13458000Y-58440243D01*
X13417077Y-58287516D01*
X13338020Y-58150584D01*
X13226216Y-58038780D01*
X13089284Y-57959723D01*
X12936557Y-57918800D01*
X12778443Y-57918800D01*
X12625716Y-57959723D01*
X12488784Y-58038780D01*
X12376980Y-58150584D01*
X12297923Y-58287516D01*
X12257000Y-58440243D01*
X10100500Y-58440243D01*
X10100500Y-58406898D01*
X10089877Y-58318436D01*
X10061395Y-58246211D01*
X10034362Y-58177660D01*
X10034361Y-58177659D01*
X10034361Y-58177658D01*
X9942922Y-58057078D01*
X9822342Y-57965639D01*
X9822341Y-57965638D01*
X9822339Y-57965637D01*
X9681565Y-57910123D01*
X9593106Y-57899500D01*
X9593102Y-57899500D01*
X8406898Y-57899500D01*
X8406893Y-57899500D01*
X8318434Y-57910123D01*
X8177660Y-57965637D01*
X8177656Y-57965640D01*
X8057081Y-58057075D01*
X8057075Y-58057081D01*
X7965640Y-58177656D01*
X7965637Y-58177660D01*
X7910123Y-58318434D01*
X7899500Y-58406893D01*
X600000Y-58406893D01*
X600000Y-57089450D01*
X38849500Y-57089450D01*
X38849500Y-57270549D01*
X38877828Y-57449406D01*
X38877829Y-57449409D01*
X38933789Y-57621639D01*
X39016004Y-57782994D01*
X39122447Y-57929501D01*
X39250499Y-58057553D01*
X39397006Y-58163996D01*
X39558361Y-58246211D01*
X39730591Y-58302171D01*
X39802136Y-58313502D01*
X39909451Y-58330500D01*
X39909454Y-58330500D01*
X40090549Y-58330500D01*
X40179977Y-58316335D01*
X40269409Y-58302171D01*
X40441639Y-58246211D01*
X40602994Y-58163996D01*
X40749501Y-58057553D01*
X40877553Y-57929501D01*
X40983996Y-57782994D01*
X41066211Y-57621639D01*
X41122171Y-57449409D01*
X41150500Y-57270546D01*
X41150500Y-57089454D01*
X41150500Y-57089450D01*
X61709500Y-57089450D01*
X61709500Y-57270549D01*
X61737828Y-57449406D01*
X61737829Y-57449409D01*
X61793789Y-57621639D01*
X61876004Y-57782994D01*
X61982447Y-57929501D01*
X62110499Y-58057553D01*
X62257006Y-58163996D01*
X62418361Y-58246211D01*
X62590591Y-58302171D01*
X62662136Y-58313502D01*
X62769451Y-58330500D01*
X62769454Y-58330500D01*
X62950549Y-58330500D01*
X63039977Y-58316335D01*
X63129409Y-58302171D01*
X63301639Y-58246211D01*
X63462994Y-58163996D01*
X63609501Y-58057553D01*
X63737553Y-57929501D01*
X63843996Y-57782994D01*
X63864403Y-57742943D01*
X81288900Y-57742943D01*
X81288900Y-57901057D01*
X81329823Y-58053784D01*
X81408880Y-58190716D01*
X81520684Y-58302520D01*
X81657616Y-58381577D01*
X81810343Y-58422500D01*
X81810345Y-58422500D01*
X81968455Y-58422500D01*
X81968457Y-58422500D01*
X82121184Y-58381577D01*
X82258116Y-58302520D01*
X82369920Y-58190716D01*
X82448977Y-58053784D01*
X82489900Y-57901057D01*
X82489900Y-57742943D01*
X82448977Y-57590216D01*
X82369920Y-57453284D01*
X82366086Y-57449450D01*
X91849500Y-57449450D01*
X91849500Y-57630549D01*
X91877828Y-57809406D01*
X91928590Y-57965640D01*
X91933789Y-57981639D01*
X92016004Y-58142994D01*
X92122447Y-58289501D01*
X92250499Y-58417553D01*
X92397006Y-58523996D01*
X92558361Y-58606211D01*
X92730591Y-58662171D01*
X92802136Y-58673502D01*
X92909451Y-58690500D01*
X92909454Y-58690500D01*
X93090549Y-58690500D01*
X93179977Y-58676335D01*
X93269409Y-58662171D01*
X93441639Y-58606211D01*
X93602994Y-58523996D01*
X93749501Y-58417553D01*
X93877553Y-58289501D01*
X93983996Y-58142994D01*
X94066211Y-57981639D01*
X94122171Y-57809409D01*
X94139500Y-57700000D01*
X94150500Y-57630549D01*
X94150500Y-57449450D01*
X94122171Y-57270593D01*
X94122171Y-57270591D01*
X94066211Y-57098361D01*
X93983996Y-56937006D01*
X93877553Y-56790499D01*
X93749501Y-56662447D01*
X93602994Y-56556004D01*
X93602993Y-56556003D01*
X93602991Y-56556002D01*
X93441637Y-56473788D01*
X93269406Y-56417828D01*
X93090549Y-56389500D01*
X93090546Y-56389500D01*
X92909454Y-56389500D01*
X92909451Y-56389500D01*
X92730593Y-56417828D01*
X92558362Y-56473788D01*
X92397008Y-56556002D01*
X92368107Y-56577000D01*
X92250499Y-56662447D01*
X92122447Y-56790499D01*
X92110543Y-56806884D01*
X92016002Y-56937008D01*
X91933788Y-57098362D01*
X91877828Y-57270593D01*
X91849500Y-57449450D01*
X82366086Y-57449450D01*
X82258116Y-57341480D01*
X82121184Y-57262423D01*
X81968457Y-57221500D01*
X81810343Y-57221500D01*
X81657616Y-57262423D01*
X81520684Y-57341480D01*
X81408880Y-57453284D01*
X81329823Y-57590216D01*
X81288900Y-57742943D01*
X63864403Y-57742943D01*
X63890612Y-57691506D01*
X63926208Y-57621646D01*
X63926210Y-57621640D01*
X63926211Y-57621639D01*
X63982171Y-57449409D01*
X64010500Y-57270546D01*
X64010500Y-57089454D01*
X64010500Y-57089450D01*
X63982171Y-56910593D01*
X63982171Y-56910591D01*
X63926211Y-56738361D01*
X63843996Y-56577006D01*
X63785173Y-56496043D01*
X86239000Y-56496043D01*
X86239000Y-56654157D01*
X86279923Y-56806884D01*
X86358980Y-56943816D01*
X86470784Y-57055620D01*
X86607716Y-57134677D01*
X86760443Y-57175600D01*
X86760445Y-57175600D01*
X86918555Y-57175600D01*
X86918557Y-57175600D01*
X87071284Y-57134677D01*
X87208216Y-57055620D01*
X87320020Y-56943816D01*
X87399077Y-56806884D01*
X87440000Y-56654157D01*
X87440000Y-56496043D01*
X87399077Y-56343316D01*
X87320020Y-56206384D01*
X87208216Y-56094580D01*
X87071284Y-56015523D01*
X86918557Y-55974600D01*
X86760443Y-55974600D01*
X86607716Y-56015523D01*
X86470784Y-56094580D01*
X86358980Y-56206384D01*
X86279923Y-56343316D01*
X86239000Y-56496043D01*
X63785173Y-56496043D01*
X63737553Y-56430499D01*
X63609501Y-56302447D01*
X63462994Y-56196004D01*
X63462993Y-56196003D01*
X63462991Y-56196002D01*
X63301637Y-56113788D01*
X63129406Y-56057828D01*
X62950549Y-56029500D01*
X62950546Y-56029500D01*
X62769454Y-56029500D01*
X62769451Y-56029500D01*
X62590593Y-56057828D01*
X62418362Y-56113788D01*
X62257008Y-56196002D01*
X62183752Y-56249225D01*
X62110499Y-56302447D01*
X61982447Y-56430499D01*
X61950996Y-56473788D01*
X61876002Y-56577008D01*
X61793788Y-56738362D01*
X61737828Y-56910593D01*
X61709500Y-57089450D01*
X41150500Y-57089450D01*
X41122171Y-56910593D01*
X41122171Y-56910591D01*
X41066211Y-56738361D01*
X40983996Y-56577006D01*
X40877553Y-56430499D01*
X40749501Y-56302447D01*
X40602994Y-56196004D01*
X40602993Y-56196003D01*
X40602991Y-56196002D01*
X40441637Y-56113788D01*
X40269406Y-56057828D01*
X40090549Y-56029500D01*
X40090546Y-56029500D01*
X39909454Y-56029500D01*
X39909451Y-56029500D01*
X39730593Y-56057828D01*
X39558362Y-56113788D01*
X39397008Y-56196002D01*
X39323752Y-56249225D01*
X39250499Y-56302447D01*
X39122447Y-56430499D01*
X39090996Y-56473788D01*
X39016002Y-56577008D01*
X38933788Y-56738362D01*
X38877828Y-56910593D01*
X38849500Y-57089450D01*
X600000Y-57089450D01*
X600000Y-54549450D01*
X38849500Y-54549450D01*
X38849500Y-54730549D01*
X38877828Y-54909406D01*
X38933788Y-55081637D01*
X38985259Y-55182655D01*
X39016004Y-55242994D01*
X39122447Y-55389501D01*
X39250499Y-55517553D01*
X39397006Y-55623996D01*
X39558361Y-55706211D01*
X39730591Y-55762171D01*
X39802136Y-55773502D01*
X39909451Y-55790500D01*
X39909454Y-55790500D01*
X40090549Y-55790500D01*
X40179977Y-55776335D01*
X40269409Y-55762171D01*
X40441639Y-55706211D01*
X40602994Y-55623996D01*
X40749501Y-55517553D01*
X40877553Y-55389501D01*
X40983996Y-55242994D01*
X41066211Y-55081639D01*
X41122171Y-54909409D01*
X41137498Y-54812637D01*
X41150500Y-54730549D01*
X41150500Y-54549450D01*
X61709500Y-54549450D01*
X61709500Y-54730549D01*
X61737828Y-54909406D01*
X61793788Y-55081637D01*
X61845259Y-55182655D01*
X61876004Y-55242994D01*
X61982447Y-55389501D01*
X62110499Y-55517553D01*
X62257006Y-55623996D01*
X62418361Y-55706211D01*
X62590591Y-55762171D01*
X62662136Y-55773502D01*
X62769451Y-55790500D01*
X62769454Y-55790500D01*
X62950549Y-55790500D01*
X63039977Y-55776335D01*
X63129409Y-55762171D01*
X63301639Y-55706211D01*
X63462994Y-55623996D01*
X63609501Y-55517553D01*
X63737553Y-55389501D01*
X63843996Y-55242994D01*
X63926211Y-55081639D01*
X63982171Y-54909409D01*
X63997498Y-54812637D01*
X64010500Y-54730549D01*
X64010500Y-54549450D01*
X63982171Y-54370593D01*
X63982171Y-54370591D01*
X63926211Y-54198361D01*
X63843996Y-54037006D01*
X63737553Y-53890499D01*
X63609501Y-53762447D01*
X63462994Y-53656004D01*
X63462993Y-53656003D01*
X63462991Y-53656002D01*
X63301637Y-53573788D01*
X63129406Y-53517828D01*
X62950549Y-53489500D01*
X62950546Y-53489500D01*
X62769454Y-53489500D01*
X62769451Y-53489500D01*
X62590593Y-53517828D01*
X62418362Y-53573788D01*
X62257008Y-53656002D01*
X62207310Y-53692110D01*
X62110499Y-53762447D01*
X61982447Y-53890499D01*
X61970822Y-53906500D01*
X61876002Y-54037008D01*
X61793788Y-54198362D01*
X61737828Y-54370593D01*
X61709500Y-54549450D01*
X41150500Y-54549450D01*
X41122171Y-54370593D01*
X41122171Y-54370591D01*
X41066211Y-54198361D01*
X40983996Y-54037006D01*
X40877553Y-53890499D01*
X40749501Y-53762447D01*
X40602994Y-53656004D01*
X40602993Y-53656003D01*
X40602991Y-53656002D01*
X40441637Y-53573788D01*
X40269406Y-53517828D01*
X40090549Y-53489500D01*
X40090546Y-53489500D01*
X39909454Y-53489500D01*
X39909451Y-53489500D01*
X39730593Y-53517828D01*
X39558362Y-53573788D01*
X39397008Y-53656002D01*
X39347310Y-53692110D01*
X39250499Y-53762447D01*
X39122447Y-53890499D01*
X39110822Y-53906500D01*
X39016002Y-54037008D01*
X38933788Y-54198362D01*
X38877828Y-54370593D01*
X38849500Y-54549450D01*
X600000Y-54549450D01*
X600000Y-52009450D01*
X38849500Y-52009450D01*
X38849500Y-52190549D01*
X38877828Y-52369406D01*
X38933788Y-52541637D01*
X39004733Y-52680875D01*
X39016004Y-52702994D01*
X39122447Y-52849501D01*
X39250499Y-52977553D01*
X39397006Y-53083996D01*
X39558361Y-53166211D01*
X39730591Y-53222171D01*
X39802136Y-53233502D01*
X39909451Y-53250500D01*
X39909454Y-53250500D01*
X40090549Y-53250500D01*
X40179977Y-53236335D01*
X40269409Y-53222171D01*
X40441639Y-53166211D01*
X40602994Y-53083996D01*
X40749501Y-52977553D01*
X40877553Y-52849501D01*
X40983996Y-52702994D01*
X41066211Y-52541639D01*
X41122171Y-52369409D01*
X41141083Y-52250001D01*
X41150500Y-52190549D01*
X41150500Y-52009450D01*
X61709500Y-52009450D01*
X61709500Y-52190549D01*
X61737828Y-52369406D01*
X61793788Y-52541637D01*
X61864733Y-52680875D01*
X61876004Y-52702994D01*
X61982447Y-52849501D01*
X62110499Y-52977553D01*
X62257006Y-53083996D01*
X62418361Y-53166211D01*
X62590591Y-53222171D01*
X62662136Y-53233502D01*
X62769451Y-53250500D01*
X62769454Y-53250500D01*
X62950549Y-53250500D01*
X63039977Y-53236335D01*
X63129409Y-53222171D01*
X63301639Y-53166211D01*
X63462994Y-53083996D01*
X63609501Y-52977553D01*
X63637042Y-52950012D01*
X70250000Y-52950012D01*
X70250000Y-53749999D01*
X70250001Y-53750000D01*
X71399999Y-53750000D01*
X71374979Y-53810402D01*
X71350000Y-53935981D01*
X71350000Y-54064019D01*
X71374979Y-54189598D01*
X71399999Y-54250000D01*
X70250002Y-54250000D01*
X70250001Y-54250001D01*
X70250001Y-55049986D01*
X70260492Y-55152687D01*
X70260495Y-55152699D01*
X70315643Y-55319124D01*
X70407680Y-55468340D01*
X70531659Y-55592319D01*
X70680875Y-55684356D01*
X70847306Y-55739506D01*
X70950012Y-55749999D01*
X71749998Y-55749999D01*
X71750000Y-55749998D01*
X71750000Y-54600001D01*
X71810402Y-54625021D01*
X71935981Y-54650000D01*
X72064019Y-54650000D01*
X72189598Y-54625021D01*
X72250000Y-54600001D01*
X72250000Y-55749998D01*
X72250001Y-55749999D01*
X73049986Y-55749999D01*
X73152687Y-55739507D01*
X73152699Y-55739504D01*
X73319124Y-55684356D01*
X73468340Y-55592319D01*
X73592319Y-55468340D01*
X73684356Y-55319124D01*
X73734167Y-55168804D01*
X73770418Y-55119514D01*
X73828718Y-55100946D01*
X73853762Y-55104316D01*
X73865643Y-55107500D01*
X73865644Y-55107500D01*
X74023755Y-55107500D01*
X74023757Y-55107500D01*
X74176484Y-55066577D01*
X74313416Y-54987520D01*
X74425220Y-54875716D01*
X74504277Y-54738784D01*
X74545200Y-54586057D01*
X74545200Y-54427943D01*
X74504277Y-54275216D01*
X74425220Y-54138284D01*
X74313416Y-54026480D01*
X74176484Y-53947423D01*
X74023757Y-53906500D01*
X73865643Y-53906500D01*
X73865642Y-53906500D01*
X73861922Y-53906990D01*
X73859278Y-53906500D01*
X73859154Y-53906500D01*
X73859154Y-53906476D01*
X73801761Y-53895840D01*
X73784802Y-53877969D01*
X82649500Y-53877969D01*
X82649500Y-54122030D01*
X82687677Y-54363071D01*
X82763096Y-54595185D01*
X82873892Y-54812637D01*
X82919721Y-54875715D01*
X83017345Y-55010083D01*
X83189917Y-55182655D01*
X83272963Y-55242991D01*
X83387362Y-55326107D01*
X83496088Y-55381505D01*
X83604815Y-55436904D01*
X83836924Y-55512321D01*
X83836925Y-55512321D01*
X83836928Y-55512322D01*
X84077970Y-55550500D01*
X84077973Y-55550500D01*
X84322030Y-55550500D01*
X84563071Y-55512322D01*
X84563072Y-55512321D01*
X84563076Y-55512321D01*
X84795185Y-55436904D01*
X85012639Y-55326106D01*
X85210083Y-55182655D01*
X85382655Y-55010083D01*
X85526106Y-54812639D01*
X85636904Y-54595185D01*
X85712321Y-54363076D01*
X85730231Y-54250000D01*
X85750500Y-54122030D01*
X85750500Y-54105130D01*
X91849500Y-54105130D01*
X91849500Y-55894860D01*
X91849501Y-55894863D01*
X91852414Y-55919990D01*
X91876527Y-55974600D01*
X91897794Y-56022765D01*
X91977235Y-56102206D01*
X92080009Y-56147585D01*
X92105135Y-56150500D01*
X93894864Y-56150499D01*
X93919991Y-56147585D01*
X94022765Y-56102206D01*
X94102206Y-56022765D01*
X94147585Y-55919991D01*
X94150500Y-55894865D01*
X94150499Y-54105136D01*
X94147585Y-54080009D01*
X94102206Y-53977235D01*
X94022765Y-53897794D01*
X93919991Y-53852415D01*
X93919990Y-53852414D01*
X93919988Y-53852414D01*
X93894868Y-53849500D01*
X92105139Y-53849500D01*
X92105136Y-53849501D01*
X92080009Y-53852414D01*
X91977235Y-53897794D01*
X91897794Y-53977235D01*
X91852414Y-54080011D01*
X91849500Y-54105130D01*
X85750500Y-54105130D01*
X85750500Y-53877969D01*
X85712322Y-53636928D01*
X85712321Y-53636924D01*
X85636904Y-53404815D01*
X85526106Y-53187361D01*
X85382655Y-52989917D01*
X85210083Y-52817345D01*
X85022248Y-52680875D01*
X85012637Y-52673892D01*
X84795185Y-52563096D01*
X84563071Y-52487677D01*
X84322030Y-52449500D01*
X84322027Y-52449500D01*
X84077973Y-52449500D01*
X84077970Y-52449500D01*
X83836928Y-52487677D01*
X83604814Y-52563096D01*
X83387362Y-52673892D01*
X83189918Y-52817344D01*
X83017344Y-52989918D01*
X82873892Y-53187362D01*
X82763096Y-53404814D01*
X82687677Y-53636928D01*
X82649500Y-53877969D01*
X73784802Y-53877969D01*
X73759643Y-53851458D01*
X73749999Y-53808837D01*
X73749999Y-52950013D01*
X73739507Y-52847312D01*
X73739504Y-52847300D01*
X73684356Y-52680875D01*
X73592319Y-52531659D01*
X73468340Y-52407680D01*
X73319124Y-52315643D01*
X73152693Y-52260493D01*
X73049987Y-52250000D01*
X72250001Y-52250000D01*
X72250000Y-52250001D01*
X72250000Y-53399998D01*
X72189598Y-53374979D01*
X72064019Y-53350000D01*
X71935981Y-53350000D01*
X71810402Y-53374979D01*
X71750000Y-53399998D01*
X71750000Y-52250001D01*
X71749999Y-52250000D01*
X70950013Y-52250000D01*
X70847312Y-52260492D01*
X70847300Y-52260495D01*
X70680875Y-52315643D01*
X70531659Y-52407680D01*
X70407680Y-52531659D01*
X70315643Y-52680875D01*
X70260493Y-52847306D01*
X70250000Y-52950012D01*
X63637042Y-52950012D01*
X63737553Y-52849501D01*
X63843996Y-52702994D01*
X63926211Y-52541639D01*
X63982171Y-52369409D01*
X64001083Y-52250001D01*
X64010500Y-52190549D01*
X64010500Y-52009450D01*
X63982171Y-51830593D01*
X63982171Y-51830591D01*
X63926211Y-51658361D01*
X63843996Y-51497006D01*
X63737553Y-51350499D01*
X63609501Y-51222447D01*
X63462994Y-51116004D01*
X63462993Y-51116003D01*
X63462991Y-51116002D01*
X63301637Y-51033788D01*
X63129406Y-50977828D01*
X62950549Y-50949500D01*
X62950546Y-50949500D01*
X62769454Y-50949500D01*
X62769451Y-50949500D01*
X62590593Y-50977828D01*
X62418362Y-51033788D01*
X62257008Y-51116002D01*
X62183752Y-51169225D01*
X62110499Y-51222447D01*
X61982447Y-51350499D01*
X61929225Y-51423752D01*
X61876002Y-51497008D01*
X61793788Y-51658362D01*
X61737828Y-51830593D01*
X61709500Y-52009450D01*
X41150500Y-52009450D01*
X41122171Y-51830593D01*
X41122171Y-51830591D01*
X41066211Y-51658361D01*
X40983996Y-51497006D01*
X40877553Y-51350499D01*
X40749501Y-51222447D01*
X40602994Y-51116004D01*
X40602993Y-51116003D01*
X40602991Y-51116002D01*
X40441637Y-51033788D01*
X40269406Y-50977828D01*
X40090549Y-50949500D01*
X40090546Y-50949500D01*
X39909454Y-50949500D01*
X39909451Y-50949500D01*
X39730593Y-50977828D01*
X39558362Y-51033788D01*
X39397008Y-51116002D01*
X39323752Y-51169225D01*
X39250499Y-51222447D01*
X39122447Y-51350499D01*
X39069225Y-51423752D01*
X39016002Y-51497008D01*
X38933788Y-51658362D01*
X38877828Y-51830593D01*
X38849500Y-52009450D01*
X600000Y-52009450D01*
X600000Y-46955130D01*
X6747000Y-46955130D01*
X6747000Y-49044860D01*
X6747001Y-49044863D01*
X6749914Y-49069990D01*
X6763386Y-49100500D01*
X6795294Y-49172765D01*
X6874735Y-49252206D01*
X6977509Y-49297585D01*
X7002635Y-49300500D01*
X8997364Y-49300499D01*
X9022491Y-49297585D01*
X9125265Y-49252206D01*
X9204706Y-49172765D01*
X9250085Y-49069991D01*
X9253000Y-49044865D01*
X9252999Y-48693952D01*
X9271906Y-48635764D01*
X9321406Y-48599800D01*
X9382591Y-48599800D01*
X9432092Y-48635764D01*
X9440208Y-48649009D01*
X9468334Y-48704209D01*
X9468335Y-48704211D01*
X9488224Y-48731586D01*
X9584265Y-48863775D01*
X9723725Y-49003235D01*
X9883285Y-49119162D01*
X10059015Y-49208701D01*
X10246588Y-49269647D01*
X10246589Y-49269647D01*
X10246592Y-49269648D01*
X10441384Y-49300500D01*
X10441387Y-49300500D01*
X10638616Y-49300500D01*
X10833407Y-49269648D01*
X10833408Y-49269647D01*
X10833412Y-49269647D01*
X11020985Y-49208701D01*
X11196715Y-49119162D01*
X11356275Y-49003235D01*
X11495735Y-48863775D01*
X11611662Y-48704215D01*
X11611668Y-48704203D01*
X11613630Y-48701003D01*
X11660155Y-48661265D01*
X11721152Y-48656463D01*
X11773322Y-48688431D01*
X11786253Y-48707783D01*
X11837710Y-48808774D01*
X11972094Y-48993738D01*
X12133761Y-49155405D01*
X12318726Y-49289790D01*
X12522433Y-49393583D01*
X12739876Y-49464235D01*
X12830000Y-49478509D01*
X12830000Y-48490747D01*
X12867708Y-48512518D01*
X13007591Y-48550000D01*
X13152409Y-48550000D01*
X13292292Y-48512518D01*
X13330000Y-48490747D01*
X13330000Y-49478508D01*
X13387194Y-49469450D01*
X38849500Y-49469450D01*
X38849500Y-49650549D01*
X38877828Y-49829406D01*
X38877829Y-49829409D01*
X38933789Y-50001639D01*
X39016004Y-50162994D01*
X39122447Y-50309501D01*
X39250499Y-50437553D01*
X39397006Y-50543996D01*
X39558361Y-50626211D01*
X39730591Y-50682171D01*
X39802136Y-50693502D01*
X39909451Y-50710500D01*
X39909454Y-50710500D01*
X40090549Y-50710500D01*
X40179977Y-50696335D01*
X40269409Y-50682171D01*
X40441639Y-50626211D01*
X40602994Y-50543996D01*
X40749501Y-50437553D01*
X40877553Y-50309501D01*
X40983996Y-50162994D01*
X41066211Y-50001639D01*
X41122171Y-49829409D01*
X41150500Y-49650546D01*
X41150500Y-49469454D01*
X41150500Y-49469450D01*
X61709500Y-49469450D01*
X61709500Y-49650549D01*
X61737828Y-49829406D01*
X61737829Y-49829409D01*
X61793789Y-50001639D01*
X61876004Y-50162994D01*
X61982447Y-50309501D01*
X62110499Y-50437553D01*
X62257006Y-50543996D01*
X62418361Y-50626211D01*
X62590591Y-50682171D01*
X62662136Y-50693502D01*
X62769451Y-50710500D01*
X62769454Y-50710500D01*
X62950549Y-50710500D01*
X63039977Y-50696335D01*
X63129409Y-50682171D01*
X63301639Y-50626211D01*
X63462994Y-50543996D01*
X63609501Y-50437553D01*
X63737553Y-50309501D01*
X63843996Y-50162994D01*
X63926211Y-50001639D01*
X63982171Y-49829409D01*
X64010500Y-49650546D01*
X64010500Y-49469454D01*
X64010500Y-49469450D01*
X63983740Y-49300498D01*
X63982171Y-49290591D01*
X63926211Y-49118361D01*
X63843996Y-48957006D01*
X63737553Y-48810499D01*
X63609501Y-48682447D01*
X63462994Y-48576004D01*
X63462993Y-48576003D01*
X63462991Y-48576002D01*
X63301637Y-48493788D01*
X63129406Y-48437828D01*
X62950549Y-48409500D01*
X62950546Y-48409500D01*
X62769454Y-48409500D01*
X62769451Y-48409500D01*
X62590593Y-48437828D01*
X62418362Y-48493788D01*
X62257008Y-48576002D01*
X62224253Y-48599800D01*
X62110499Y-48682447D01*
X61982447Y-48810499D01*
X61943740Y-48863775D01*
X61876002Y-48957008D01*
X61793788Y-49118362D01*
X61737828Y-49290593D01*
X61709500Y-49469450D01*
X41150500Y-49469450D01*
X41123740Y-49300498D01*
X41122171Y-49290591D01*
X41066211Y-49118361D01*
X40983996Y-48957006D01*
X40877553Y-48810499D01*
X40749501Y-48682447D01*
X40602994Y-48576004D01*
X40602993Y-48576003D01*
X40602991Y-48576002D01*
X40441637Y-48493788D01*
X40269406Y-48437828D01*
X40090549Y-48409500D01*
X40090546Y-48409500D01*
X39909454Y-48409500D01*
X39909451Y-48409500D01*
X39730593Y-48437828D01*
X39558362Y-48493788D01*
X39397008Y-48576002D01*
X39364253Y-48599800D01*
X39250499Y-48682447D01*
X39122447Y-48810499D01*
X39083740Y-48863775D01*
X39016002Y-48957008D01*
X38933788Y-49118362D01*
X38877828Y-49290593D01*
X38849500Y-49469450D01*
X13387194Y-49469450D01*
X13420123Y-49464235D01*
X13637566Y-49393583D01*
X13669419Y-49377354D01*
X13841274Y-49289790D01*
X14026238Y-49155405D01*
X14187905Y-48993738D01*
X14322290Y-48808773D01*
X14426083Y-48605066D01*
X14496735Y-48387623D01*
X14518532Y-48250000D01*
X13570748Y-48250000D01*
X13592518Y-48212292D01*
X13630000Y-48072409D01*
X13630000Y-47927591D01*
X13592518Y-47787708D01*
X13570748Y-47750000D01*
X14518532Y-47750000D01*
X14496735Y-47612376D01*
X14438950Y-47434532D01*
X14429969Y-47406893D01*
X18899500Y-47406893D01*
X18899500Y-48593106D01*
X18910123Y-48681565D01*
X18965637Y-48822339D01*
X18965638Y-48822341D01*
X18965639Y-48822342D01*
X19057078Y-48942922D01*
X19177658Y-49034361D01*
X19177659Y-49034361D01*
X19177660Y-49034362D01*
X19204294Y-49044865D01*
X19318436Y-49089877D01*
X19406898Y-49100500D01*
X19406900Y-49100500D01*
X20593100Y-49100500D01*
X20593102Y-49100500D01*
X20681564Y-49089877D01*
X20822342Y-49034361D01*
X20942922Y-48942922D01*
X21034361Y-48822342D01*
X21044501Y-48796626D01*
X21083436Y-48749431D01*
X21142679Y-48734134D01*
X21199598Y-48756580D01*
X21206591Y-48762933D01*
X21283072Y-48839414D01*
X21423212Y-48941232D01*
X21577555Y-49019873D01*
X21577557Y-49019873D01*
X21577558Y-49019874D01*
X21577561Y-49019876D01*
X21742293Y-49073401D01*
X21742297Y-49073402D01*
X21913386Y-49100500D01*
X21913389Y-49100500D01*
X22086614Y-49100500D01*
X22257702Y-49073402D01*
X22257706Y-49073401D01*
X22422438Y-49019876D01*
X22422440Y-49019874D01*
X22422445Y-49019873D01*
X22576788Y-48941232D01*
X22716928Y-48839414D01*
X22839414Y-48716928D01*
X22941232Y-48576788D01*
X23019873Y-48422445D01*
X23019874Y-48422440D01*
X23019876Y-48422438D01*
X23073401Y-48257706D01*
X23073402Y-48257702D01*
X23100500Y-48086614D01*
X23100500Y-47913385D01*
X29899500Y-47913385D01*
X29899500Y-48086614D01*
X29926597Y-48257702D01*
X29926598Y-48257706D01*
X29980123Y-48422438D01*
X29980125Y-48422441D01*
X30058368Y-48576004D01*
X30058768Y-48576788D01*
X30160586Y-48716928D01*
X30283072Y-48839414D01*
X30423212Y-48941232D01*
X30577555Y-49019873D01*
X30577557Y-49019873D01*
X30577558Y-49019874D01*
X30577561Y-49019876D01*
X30742293Y-49073401D01*
X30742297Y-49073402D01*
X30913386Y-49100500D01*
X30913389Y-49100500D01*
X31086614Y-49100500D01*
X31257702Y-49073402D01*
X31257706Y-49073401D01*
X31422438Y-49019876D01*
X31422440Y-49019874D01*
X31422445Y-49019873D01*
X31576788Y-48941232D01*
X31716928Y-48839414D01*
X31839414Y-48716928D01*
X31941232Y-48576788D01*
X32019873Y-48422445D01*
X32019874Y-48422440D01*
X32019876Y-48422438D01*
X32073401Y-48257706D01*
X32073402Y-48257702D01*
X32100500Y-48086614D01*
X32100500Y-47913385D01*
X34899500Y-47913385D01*
X34899500Y-48086614D01*
X34926597Y-48257702D01*
X34926598Y-48257706D01*
X34980123Y-48422438D01*
X34980125Y-48422441D01*
X35058368Y-48576004D01*
X35058768Y-48576788D01*
X35160586Y-48716928D01*
X35283072Y-48839414D01*
X35423212Y-48941232D01*
X35577555Y-49019873D01*
X35577557Y-49019873D01*
X35577558Y-49019874D01*
X35577561Y-49019876D01*
X35742293Y-49073401D01*
X35742297Y-49073402D01*
X35913386Y-49100500D01*
X35913389Y-49100500D01*
X36086614Y-49100500D01*
X36257702Y-49073402D01*
X36257706Y-49073401D01*
X36422438Y-49019876D01*
X36422440Y-49019874D01*
X36422445Y-49019873D01*
X36576788Y-48941232D01*
X36716928Y-48839414D01*
X36839414Y-48716928D01*
X36941232Y-48576788D01*
X37019873Y-48422445D01*
X37019874Y-48422440D01*
X37019876Y-48422438D01*
X37073401Y-48257706D01*
X37073402Y-48257702D01*
X37100500Y-48086614D01*
X37100500Y-47913385D01*
X37073402Y-47742297D01*
X37073401Y-47742293D01*
X37019876Y-47577561D01*
X37019874Y-47577558D01*
X37019873Y-47577557D01*
X37019873Y-47577555D01*
X36941232Y-47423212D01*
X36839414Y-47283072D01*
X36716928Y-47160586D01*
X36576788Y-47058768D01*
X36576787Y-47058767D01*
X36576785Y-47058766D01*
X36488482Y-47013774D01*
X36422442Y-46980125D01*
X36422438Y-46980123D01*
X36266483Y-46929450D01*
X38849500Y-46929450D01*
X38849500Y-47110549D01*
X38877828Y-47289406D01*
X38933788Y-47461637D01*
X39010593Y-47612376D01*
X39016004Y-47622994D01*
X39122447Y-47769501D01*
X39250499Y-47897553D01*
X39397006Y-48003996D01*
X39558361Y-48086211D01*
X39730591Y-48142171D01*
X39802136Y-48153502D01*
X39909451Y-48170500D01*
X39909454Y-48170500D01*
X40090549Y-48170500D01*
X40179977Y-48156335D01*
X40269409Y-48142171D01*
X40441639Y-48086211D01*
X40602994Y-48003996D01*
X40749501Y-47897553D01*
X40877553Y-47769501D01*
X40983996Y-47622994D01*
X41066211Y-47461639D01*
X41122171Y-47289409D01*
X41142574Y-47160588D01*
X41150500Y-47110549D01*
X41150500Y-46929450D01*
X61709500Y-46929450D01*
X61709500Y-47110549D01*
X61737828Y-47289406D01*
X61793788Y-47461637D01*
X61870593Y-47612376D01*
X61876004Y-47622994D01*
X61982447Y-47769501D01*
X62110499Y-47897553D01*
X62257006Y-48003996D01*
X62418361Y-48086211D01*
X62590591Y-48142171D01*
X62662136Y-48153502D01*
X62769451Y-48170500D01*
X62769454Y-48170500D01*
X62950549Y-48170500D01*
X63039977Y-48156335D01*
X63129409Y-48142171D01*
X63301639Y-48086211D01*
X63462994Y-48003996D01*
X63609501Y-47897553D01*
X63737553Y-47769501D01*
X63843996Y-47622994D01*
X63926211Y-47461639D01*
X63982171Y-47289409D01*
X64002574Y-47160588D01*
X64010500Y-47110549D01*
X64010500Y-46929450D01*
X63982171Y-46750593D01*
X63982171Y-46750591D01*
X63926211Y-46578361D01*
X63843996Y-46417006D01*
X63737553Y-46270499D01*
X63609501Y-46142447D01*
X63462994Y-46036004D01*
X63462993Y-46036003D01*
X63462991Y-46036002D01*
X63301637Y-45953788D01*
X63129406Y-45897828D01*
X62950549Y-45869500D01*
X62950546Y-45869500D01*
X62769454Y-45869500D01*
X62769451Y-45869500D01*
X62590593Y-45897828D01*
X62418362Y-45953788D01*
X62257008Y-46036002D01*
X62183752Y-46089225D01*
X62110499Y-46142447D01*
X61982447Y-46270499D01*
X61942046Y-46326106D01*
X61876002Y-46417008D01*
X61793788Y-46578362D01*
X61737828Y-46750593D01*
X61709500Y-46929450D01*
X41150500Y-46929450D01*
X41122171Y-46750593D01*
X41122171Y-46750591D01*
X41066211Y-46578361D01*
X40983996Y-46417006D01*
X40877553Y-46270499D01*
X40749501Y-46142447D01*
X40602994Y-46036004D01*
X40602993Y-46036003D01*
X40602991Y-46036002D01*
X40441637Y-45953788D01*
X40269406Y-45897828D01*
X40090549Y-45869500D01*
X40090546Y-45869500D01*
X39909454Y-45869500D01*
X39909451Y-45869500D01*
X39730593Y-45897828D01*
X39558362Y-45953788D01*
X39397008Y-46036002D01*
X39323752Y-46089225D01*
X39250499Y-46142447D01*
X39122447Y-46270499D01*
X39082046Y-46326106D01*
X39016002Y-46417008D01*
X38933788Y-46578362D01*
X38877828Y-46750593D01*
X38849500Y-46929450D01*
X36266483Y-46929450D01*
X36257706Y-46926598D01*
X36257702Y-46926597D01*
X36086614Y-46899500D01*
X36086611Y-46899500D01*
X35913389Y-46899500D01*
X35913386Y-46899500D01*
X35742297Y-46926597D01*
X35742293Y-46926598D01*
X35577561Y-46980123D01*
X35577558Y-46980125D01*
X35423214Y-47058766D01*
X35283073Y-47160585D01*
X35160585Y-47283073D01*
X35058766Y-47423214D01*
X34980125Y-47577558D01*
X34980123Y-47577561D01*
X34926598Y-47742293D01*
X34926597Y-47742297D01*
X34899500Y-47913385D01*
X32100500Y-47913385D01*
X32073402Y-47742297D01*
X32073401Y-47742293D01*
X32019876Y-47577561D01*
X32019874Y-47577558D01*
X32019873Y-47577557D01*
X32019873Y-47577555D01*
X31941232Y-47423212D01*
X31839414Y-47283072D01*
X31716928Y-47160586D01*
X31576788Y-47058768D01*
X31576787Y-47058767D01*
X31576785Y-47058766D01*
X31422441Y-46980125D01*
X31422438Y-46980123D01*
X31257706Y-46926598D01*
X31257702Y-46926597D01*
X31086614Y-46899500D01*
X31086611Y-46899500D01*
X30913389Y-46899500D01*
X30913386Y-46899500D01*
X30742297Y-46926597D01*
X30742293Y-46926598D01*
X30577561Y-46980123D01*
X30577558Y-46980125D01*
X30423214Y-47058766D01*
X30283073Y-47160585D01*
X30160585Y-47283073D01*
X30058766Y-47423214D01*
X29980125Y-47577558D01*
X29980123Y-47577561D01*
X29926598Y-47742293D01*
X29926597Y-47742297D01*
X29899500Y-47913385D01*
X23100500Y-47913385D01*
X23073402Y-47742297D01*
X23073401Y-47742293D01*
X23019876Y-47577561D01*
X23019874Y-47577558D01*
X23019873Y-47577557D01*
X23019873Y-47577555D01*
X22941232Y-47423212D01*
X22839414Y-47283072D01*
X22716928Y-47160586D01*
X22576788Y-47058768D01*
X22576787Y-47058767D01*
X22576785Y-47058766D01*
X22422441Y-46980125D01*
X22422438Y-46980123D01*
X22257706Y-46926598D01*
X22257702Y-46926597D01*
X22086614Y-46899500D01*
X22086611Y-46899500D01*
X21913389Y-46899500D01*
X21913386Y-46899500D01*
X21742297Y-46926597D01*
X21742293Y-46926598D01*
X21577561Y-46980123D01*
X21577558Y-46980125D01*
X21423214Y-47058766D01*
X21283069Y-47160588D01*
X21206601Y-47237056D01*
X21152084Y-47264833D01*
X21091652Y-47255261D01*
X21048388Y-47211997D01*
X21044501Y-47203371D01*
X21034362Y-47177660D01*
X21034361Y-47177659D01*
X21034361Y-47177658D01*
X20942922Y-47057078D01*
X20822342Y-46965639D01*
X20822341Y-46965638D01*
X20822339Y-46965637D01*
X20681565Y-46910123D01*
X20593106Y-46899500D01*
X20593102Y-46899500D01*
X19406898Y-46899500D01*
X19406893Y-46899500D01*
X19318434Y-46910123D01*
X19177660Y-46965637D01*
X19177656Y-46965640D01*
X19057081Y-47057075D01*
X19057075Y-47057081D01*
X18965640Y-47177656D01*
X18965637Y-47177660D01*
X18910123Y-47318434D01*
X18899500Y-47406893D01*
X14429969Y-47406893D01*
X14426083Y-47394933D01*
X14322290Y-47191226D01*
X14187905Y-47006261D01*
X14026238Y-46844594D01*
X13841273Y-46710209D01*
X13637564Y-46606415D01*
X13420127Y-46535766D01*
X13330000Y-46521490D01*
X13330000Y-47509252D01*
X13292292Y-47487482D01*
X13152409Y-47450000D01*
X13007591Y-47450000D01*
X12867708Y-47487482D01*
X12830000Y-47509252D01*
X12830000Y-46521490D01*
X12829999Y-46521490D01*
X12739872Y-46535766D01*
X12522435Y-46606415D01*
X12318726Y-46710209D01*
X12133761Y-46844594D01*
X11972094Y-47006261D01*
X11837709Y-47191226D01*
X11786253Y-47292216D01*
X11742988Y-47335481D01*
X11682556Y-47345052D01*
X11628039Y-47317275D01*
X11613634Y-47299002D01*
X11611666Y-47295792D01*
X11611664Y-47295790D01*
X11611662Y-47295785D01*
X11495735Y-47136225D01*
X11356275Y-46996765D01*
X11196715Y-46880838D01*
X11196714Y-46880837D01*
X11196712Y-46880836D01*
X11020985Y-46791299D01*
X10833407Y-46730351D01*
X10638616Y-46699500D01*
X10638613Y-46699500D01*
X10441387Y-46699500D01*
X10441384Y-46699500D01*
X10246592Y-46730351D01*
X10059014Y-46791299D01*
X9883287Y-46880836D01*
X9723726Y-46996764D01*
X9584264Y-47136226D01*
X9468335Y-47295788D01*
X9468334Y-47295790D01*
X9440208Y-47350991D01*
X9396943Y-47394255D01*
X9336511Y-47403826D01*
X9281995Y-47376048D01*
X9254218Y-47321531D01*
X9252999Y-47306045D01*
X9252999Y-46955139D01*
X9252999Y-46955136D01*
X9250085Y-46930009D01*
X9204706Y-46827235D01*
X9125265Y-46747794D01*
X9022491Y-46702415D01*
X9022490Y-46702414D01*
X9022488Y-46702414D01*
X8997368Y-46699500D01*
X7002639Y-46699500D01*
X7002636Y-46699501D01*
X6977509Y-46702414D01*
X6874735Y-46747794D01*
X6795294Y-46827235D01*
X6749914Y-46930011D01*
X6747000Y-46955130D01*
X600000Y-46955130D01*
X600000Y-44389450D01*
X38849500Y-44389450D01*
X38849500Y-44570549D01*
X38877828Y-44749406D01*
X38933788Y-44921637D01*
X38968340Y-44989450D01*
X39016004Y-45082994D01*
X39122447Y-45229501D01*
X39250499Y-45357553D01*
X39397006Y-45463996D01*
X39558361Y-45546211D01*
X39730591Y-45602171D01*
X39802136Y-45613502D01*
X39909451Y-45630500D01*
X39909454Y-45630500D01*
X40090549Y-45630500D01*
X40179977Y-45616335D01*
X40269409Y-45602171D01*
X40441639Y-45546211D01*
X40602994Y-45463996D01*
X40749501Y-45357553D01*
X40877553Y-45229501D01*
X40983996Y-45082994D01*
X41066211Y-44921639D01*
X41122171Y-44749409D01*
X41150500Y-44570546D01*
X41150500Y-44389454D01*
X41150500Y-44389450D01*
X61709500Y-44389450D01*
X61709500Y-44570549D01*
X61737828Y-44749406D01*
X61793788Y-44921637D01*
X61828340Y-44989450D01*
X61876004Y-45082994D01*
X61982447Y-45229501D01*
X62110499Y-45357553D01*
X62257006Y-45463996D01*
X62418361Y-45546211D01*
X62590591Y-45602171D01*
X62662136Y-45613502D01*
X62769451Y-45630500D01*
X62769454Y-45630500D01*
X62950549Y-45630500D01*
X63039977Y-45616335D01*
X63129409Y-45602171D01*
X63301639Y-45546211D01*
X63462994Y-45463996D01*
X63609501Y-45357553D01*
X63737553Y-45229501D01*
X63843996Y-45082994D01*
X63926211Y-44921639D01*
X63940400Y-44877969D01*
X70449500Y-44877969D01*
X70449500Y-45122030D01*
X70487677Y-45363071D01*
X70563096Y-45595185D01*
X70673892Y-45812637D01*
X70715206Y-45869500D01*
X70817345Y-46010083D01*
X70989917Y-46182655D01*
X71110822Y-46270497D01*
X71187362Y-46326107D01*
X71296088Y-46381505D01*
X71404815Y-46436904D01*
X71636924Y-46512321D01*
X71636925Y-46512321D01*
X71636928Y-46512322D01*
X71877970Y-46550500D01*
X71877973Y-46550500D01*
X72122030Y-46550500D01*
X72363071Y-46512322D01*
X72363072Y-46512321D01*
X72363076Y-46512321D01*
X72595185Y-46436904D01*
X72812639Y-46326106D01*
X73010083Y-46182655D01*
X73182655Y-46010083D01*
X73326106Y-45812639D01*
X73436904Y-45595185D01*
X73512321Y-45363076D01*
X73514486Y-45349406D01*
X73550500Y-45122030D01*
X73550500Y-44877969D01*
X82649500Y-44877969D01*
X82649500Y-45122030D01*
X82687677Y-45363071D01*
X82763096Y-45595185D01*
X82873892Y-45812637D01*
X82915206Y-45869500D01*
X83017345Y-46010083D01*
X83189917Y-46182655D01*
X83310822Y-46270497D01*
X83387362Y-46326107D01*
X83496088Y-46381505D01*
X83604815Y-46436904D01*
X83836924Y-46512321D01*
X83836925Y-46512321D01*
X83836928Y-46512322D01*
X84077970Y-46550500D01*
X84077973Y-46550500D01*
X84322030Y-46550500D01*
X84563071Y-46512322D01*
X84563072Y-46512321D01*
X84563076Y-46512321D01*
X84795185Y-46436904D01*
X85012639Y-46326106D01*
X85210083Y-46182655D01*
X85382655Y-46010083D01*
X85526106Y-45812639D01*
X85636904Y-45595185D01*
X85712321Y-45363076D01*
X85714486Y-45349406D01*
X85750500Y-45122030D01*
X85750500Y-44989450D01*
X91849500Y-44989450D01*
X91849500Y-45170549D01*
X91877828Y-45349406D01*
X91933788Y-45521637D01*
X91989256Y-45630500D01*
X92016004Y-45682994D01*
X92122447Y-45829501D01*
X92250499Y-45957553D01*
X92397006Y-46063996D01*
X92558361Y-46146211D01*
X92730591Y-46202171D01*
X92802136Y-46213502D01*
X92909451Y-46230500D01*
X92909454Y-46230500D01*
X93090549Y-46230500D01*
X93179977Y-46216335D01*
X93269409Y-46202171D01*
X93441639Y-46146211D01*
X93602994Y-46063996D01*
X93749501Y-45957553D01*
X93877553Y-45829501D01*
X93983996Y-45682994D01*
X94066211Y-45521639D01*
X94122171Y-45349409D01*
X94141162Y-45229502D01*
X94150500Y-45170549D01*
X94150500Y-44989450D01*
X94127382Y-44843490D01*
X94122171Y-44810591D01*
X94066211Y-44638361D01*
X93983996Y-44477006D01*
X93877553Y-44330499D01*
X93749501Y-44202447D01*
X93602994Y-44096004D01*
X93602993Y-44096003D01*
X93602991Y-44096002D01*
X93441637Y-44013788D01*
X93269406Y-43957828D01*
X93090549Y-43929500D01*
X93090546Y-43929500D01*
X92909454Y-43929500D01*
X92909451Y-43929500D01*
X92730593Y-43957828D01*
X92558362Y-44013788D01*
X92397008Y-44096002D01*
X92323752Y-44149225D01*
X92250499Y-44202447D01*
X92122447Y-44330499D01*
X92079617Y-44389450D01*
X92016002Y-44477008D01*
X91933788Y-44638362D01*
X91877828Y-44810593D01*
X91849500Y-44989450D01*
X85750500Y-44989450D01*
X85750500Y-44877969D01*
X85712322Y-44636928D01*
X85690753Y-44570546D01*
X85636904Y-44404815D01*
X85581505Y-44296088D01*
X85526107Y-44187362D01*
X85417852Y-44038362D01*
X85382655Y-43989917D01*
X85210083Y-43817345D01*
X85120623Y-43752348D01*
X85012637Y-43673892D01*
X84795185Y-43563096D01*
X84563071Y-43487677D01*
X84322030Y-43449500D01*
X84322027Y-43449500D01*
X84077973Y-43449500D01*
X84077970Y-43449500D01*
X83836928Y-43487677D01*
X83604814Y-43563096D01*
X83387362Y-43673892D01*
X83189918Y-43817344D01*
X83017344Y-43989918D01*
X82873892Y-44187362D01*
X82763096Y-44404814D01*
X82687677Y-44636928D01*
X82649500Y-44877969D01*
X73550500Y-44877969D01*
X73512322Y-44636928D01*
X73490753Y-44570546D01*
X73436904Y-44404815D01*
X73381505Y-44296088D01*
X73326107Y-44187362D01*
X73217852Y-44038362D01*
X73182655Y-43989917D01*
X73010083Y-43817345D01*
X72920623Y-43752348D01*
X72812637Y-43673892D01*
X72595185Y-43563096D01*
X72363071Y-43487677D01*
X72122030Y-43449500D01*
X72122027Y-43449500D01*
X71877973Y-43449500D01*
X71877970Y-43449500D01*
X71636928Y-43487677D01*
X71404814Y-43563096D01*
X71187362Y-43673892D01*
X70989918Y-43817344D01*
X70817344Y-43989918D01*
X70673892Y-44187362D01*
X70563096Y-44404814D01*
X70487677Y-44636928D01*
X70449500Y-44877969D01*
X63940400Y-44877969D01*
X63982171Y-44749409D01*
X64010500Y-44570546D01*
X64010500Y-44389454D01*
X64010500Y-44389450D01*
X63982171Y-44210593D01*
X63982171Y-44210591D01*
X63926211Y-44038361D01*
X63843996Y-43877006D01*
X63737553Y-43730499D01*
X63609501Y-43602447D01*
X63462994Y-43496004D01*
X63462993Y-43496003D01*
X63462991Y-43496002D01*
X63301637Y-43413788D01*
X63129406Y-43357828D01*
X62950549Y-43329500D01*
X62950546Y-43329500D01*
X62769454Y-43329500D01*
X62769451Y-43329500D01*
X62590593Y-43357828D01*
X62418362Y-43413788D01*
X62257008Y-43496002D01*
X62183752Y-43549225D01*
X62110499Y-43602447D01*
X61982447Y-43730499D01*
X61929225Y-43803752D01*
X61876002Y-43877008D01*
X61793788Y-44038362D01*
X61737828Y-44210593D01*
X61709500Y-44389450D01*
X41150500Y-44389450D01*
X41122171Y-44210593D01*
X41122171Y-44210591D01*
X41066211Y-44038361D01*
X40983996Y-43877006D01*
X40877553Y-43730499D01*
X40749501Y-43602447D01*
X40602994Y-43496004D01*
X40602993Y-43496003D01*
X40602991Y-43496002D01*
X40441637Y-43413788D01*
X40269406Y-43357828D01*
X40090549Y-43329500D01*
X40090546Y-43329500D01*
X39909454Y-43329500D01*
X39909451Y-43329500D01*
X39730593Y-43357828D01*
X39558362Y-43413788D01*
X39397008Y-43496002D01*
X39323752Y-43549225D01*
X39250499Y-43602447D01*
X39122447Y-43730499D01*
X39069225Y-43803752D01*
X39016002Y-43877008D01*
X38933788Y-44038362D01*
X38877828Y-44210593D01*
X38849500Y-44389450D01*
X600000Y-44389450D01*
X600000Y-41849450D01*
X38849500Y-41849450D01*
X38849500Y-42030549D01*
X38877828Y-42209406D01*
X38933788Y-42381637D01*
X38968340Y-42449450D01*
X39016004Y-42542994D01*
X39122447Y-42689501D01*
X39250499Y-42817553D01*
X39397006Y-42923996D01*
X39558361Y-43006211D01*
X39730591Y-43062171D01*
X39802136Y-43073502D01*
X39909451Y-43090500D01*
X39909454Y-43090500D01*
X40090549Y-43090500D01*
X40179977Y-43076335D01*
X40269409Y-43062171D01*
X40441639Y-43006211D01*
X40602994Y-42923996D01*
X40749501Y-42817553D01*
X40877553Y-42689501D01*
X40983996Y-42542994D01*
X41066211Y-42381639D01*
X41122171Y-42209409D01*
X41150500Y-42030546D01*
X41150500Y-41849454D01*
X41150500Y-41849450D01*
X61709500Y-41849450D01*
X61709500Y-42030549D01*
X61737828Y-42209406D01*
X61793788Y-42381637D01*
X61828340Y-42449450D01*
X61876004Y-42542994D01*
X61982447Y-42689501D01*
X62110499Y-42817553D01*
X62257006Y-42923996D01*
X62418361Y-43006211D01*
X62590591Y-43062171D01*
X62662136Y-43073502D01*
X62769451Y-43090500D01*
X62769454Y-43090500D01*
X62950549Y-43090500D01*
X63039977Y-43076335D01*
X63129409Y-43062171D01*
X63301639Y-43006211D01*
X63462994Y-42923996D01*
X63609501Y-42817553D01*
X63737553Y-42689501D01*
X63843996Y-42542994D01*
X63891659Y-42449450D01*
X91849500Y-42449450D01*
X91849500Y-42630549D01*
X91877828Y-42809406D01*
X91933788Y-42981637D01*
X91989256Y-43090500D01*
X92016004Y-43142994D01*
X92122447Y-43289501D01*
X92250499Y-43417553D01*
X92397006Y-43523996D01*
X92558361Y-43606211D01*
X92730591Y-43662171D01*
X92802136Y-43673502D01*
X92909451Y-43690500D01*
X92909454Y-43690500D01*
X93090549Y-43690500D01*
X93179977Y-43676335D01*
X93269409Y-43662171D01*
X93441639Y-43606211D01*
X93602994Y-43523996D01*
X93749501Y-43417553D01*
X93877553Y-43289501D01*
X93983996Y-43142994D01*
X94066211Y-42981639D01*
X94122171Y-42809409D01*
X94141162Y-42689502D01*
X94150500Y-42630549D01*
X94150500Y-42449450D01*
X94122171Y-42270593D01*
X94122171Y-42270591D01*
X94066211Y-42098361D01*
X93983996Y-41937006D01*
X93877553Y-41790499D01*
X93749501Y-41662447D01*
X93602994Y-41556004D01*
X93602993Y-41556003D01*
X93602991Y-41556002D01*
X93441637Y-41473788D01*
X93269406Y-41417828D01*
X93090549Y-41389500D01*
X93090546Y-41389500D01*
X92909454Y-41389500D01*
X92909451Y-41389500D01*
X92730593Y-41417828D01*
X92558362Y-41473788D01*
X92397008Y-41556002D01*
X92323752Y-41609225D01*
X92250499Y-41662447D01*
X92122447Y-41790499D01*
X92079617Y-41849450D01*
X92016002Y-41937008D01*
X91933788Y-42098362D01*
X91877828Y-42270593D01*
X91849500Y-42449450D01*
X63891659Y-42449450D01*
X63926211Y-42381639D01*
X63982171Y-42209409D01*
X64010500Y-42030546D01*
X64010500Y-41849454D01*
X64010500Y-41849450D01*
X63982171Y-41670593D01*
X63982171Y-41670591D01*
X63926211Y-41498361D01*
X63843996Y-41337006D01*
X63737553Y-41190499D01*
X63609501Y-41062447D01*
X63462994Y-40956004D01*
X63462993Y-40956003D01*
X63462991Y-40956002D01*
X63301637Y-40873788D01*
X63129406Y-40817828D01*
X62950549Y-40789500D01*
X62950546Y-40789500D01*
X62769454Y-40789500D01*
X62769451Y-40789500D01*
X62590593Y-40817828D01*
X62418362Y-40873788D01*
X62257008Y-40956002D01*
X62183752Y-41009225D01*
X62110499Y-41062447D01*
X61982447Y-41190499D01*
X61929225Y-41263752D01*
X61876002Y-41337008D01*
X61793788Y-41498362D01*
X61737828Y-41670593D01*
X61709500Y-41849450D01*
X41150500Y-41849450D01*
X41122171Y-41670593D01*
X41122171Y-41670591D01*
X41066211Y-41498361D01*
X40983996Y-41337006D01*
X40877553Y-41190499D01*
X40749501Y-41062447D01*
X40602994Y-40956004D01*
X40602993Y-40956003D01*
X40602991Y-40956002D01*
X40441637Y-40873788D01*
X40269406Y-40817828D01*
X40090549Y-40789500D01*
X40090546Y-40789500D01*
X39909454Y-40789500D01*
X39909451Y-40789500D01*
X39730593Y-40817828D01*
X39558362Y-40873788D01*
X39397008Y-40956002D01*
X39323752Y-41009225D01*
X39250499Y-41062447D01*
X39122447Y-41190499D01*
X39069225Y-41263752D01*
X39016002Y-41337008D01*
X38933788Y-41498362D01*
X38877828Y-41670593D01*
X38849500Y-41849450D01*
X600000Y-41849450D01*
X600000Y-39309450D01*
X38849500Y-39309450D01*
X38849500Y-39490549D01*
X38877828Y-39669406D01*
X38877829Y-39669409D01*
X38933789Y-39841639D01*
X39016004Y-40002994D01*
X39122447Y-40149501D01*
X39250499Y-40277553D01*
X39397006Y-40383996D01*
X39558361Y-40466211D01*
X39730591Y-40522171D01*
X39802136Y-40533502D01*
X39909451Y-40550500D01*
X39909454Y-40550500D01*
X40090549Y-40550500D01*
X40179977Y-40536335D01*
X40269409Y-40522171D01*
X40441639Y-40466211D01*
X40602994Y-40383996D01*
X40749501Y-40277553D01*
X40877553Y-40149501D01*
X40983996Y-40002994D01*
X41066211Y-39841639D01*
X41122171Y-39669409D01*
X41150500Y-39490546D01*
X41150500Y-39309454D01*
X41150500Y-39309450D01*
X61709500Y-39309450D01*
X61709500Y-39490549D01*
X61737828Y-39669406D01*
X61737829Y-39669409D01*
X61793789Y-39841639D01*
X61876004Y-40002994D01*
X61982447Y-40149501D01*
X62110499Y-40277553D01*
X62257006Y-40383996D01*
X62418361Y-40466211D01*
X62590591Y-40522171D01*
X62662136Y-40533502D01*
X62769451Y-40550500D01*
X62769454Y-40550500D01*
X62950549Y-40550500D01*
X63039977Y-40536335D01*
X63129409Y-40522171D01*
X63301639Y-40466211D01*
X63462994Y-40383996D01*
X63609501Y-40277553D01*
X63737553Y-40149501D01*
X63843996Y-40002994D01*
X63926211Y-39841639D01*
X63982171Y-39669409D01*
X64010500Y-39490546D01*
X64010500Y-39309454D01*
X64010500Y-39309450D01*
X63982171Y-39130593D01*
X63982171Y-39130591D01*
X63926211Y-38958361D01*
X63906170Y-38919028D01*
X63906169Y-38919025D01*
X63885250Y-38877969D01*
X68449500Y-38877969D01*
X68449500Y-39122030D01*
X68487677Y-39363071D01*
X68563096Y-39595185D01*
X68673892Y-39812637D01*
X68752348Y-39920623D01*
X68817345Y-40010083D01*
X68989917Y-40182655D01*
X69120529Y-40277550D01*
X69187362Y-40326107D01*
X69296088Y-40381505D01*
X69404815Y-40436904D01*
X69636924Y-40512321D01*
X69636925Y-40512321D01*
X69636928Y-40512322D01*
X69877970Y-40550500D01*
X69877973Y-40550500D01*
X70122030Y-40550500D01*
X70363071Y-40512322D01*
X70363072Y-40512321D01*
X70363076Y-40512321D01*
X70595185Y-40436904D01*
X70812639Y-40326106D01*
X71010083Y-40182655D01*
X71182655Y-40010083D01*
X71326106Y-39812639D01*
X71436904Y-39595185D01*
X71512321Y-39363076D01*
X71520815Y-39309450D01*
X71550500Y-39122030D01*
X71550500Y-39105130D01*
X91849500Y-39105130D01*
X91849500Y-40894860D01*
X91849501Y-40894863D01*
X91852414Y-40919990D01*
X91868315Y-40956002D01*
X91897794Y-41022765D01*
X91977235Y-41102206D01*
X92080009Y-41147585D01*
X92105135Y-41150500D01*
X93894864Y-41150499D01*
X93919991Y-41147585D01*
X94022765Y-41102206D01*
X94102206Y-41022765D01*
X94147585Y-40919991D01*
X94150500Y-40894865D01*
X94150499Y-39105136D01*
X94147585Y-39080009D01*
X94102206Y-38977235D01*
X94022765Y-38897794D01*
X93919991Y-38852415D01*
X93919990Y-38852414D01*
X93919988Y-38852414D01*
X93894868Y-38849500D01*
X92105139Y-38849500D01*
X92105136Y-38849501D01*
X92080009Y-38852414D01*
X91977235Y-38897794D01*
X91897794Y-38977235D01*
X91852414Y-39080011D01*
X91849500Y-39105130D01*
X71550500Y-39105130D01*
X71550500Y-38877969D01*
X71512322Y-38636928D01*
X71512321Y-38636924D01*
X71436904Y-38404815D01*
X71359146Y-38252205D01*
X71326107Y-38187362D01*
X71240831Y-38069990D01*
X71182655Y-37989917D01*
X71010083Y-37817345D01*
X70920623Y-37752348D01*
X70812637Y-37673892D01*
X70595185Y-37563096D01*
X70363071Y-37487677D01*
X70122030Y-37449500D01*
X70122027Y-37449500D01*
X69877973Y-37449500D01*
X69877970Y-37449500D01*
X69636928Y-37487677D01*
X69404814Y-37563096D01*
X69187362Y-37673892D01*
X68989918Y-37817344D01*
X68817344Y-37989918D01*
X68673892Y-38187362D01*
X68563096Y-38404814D01*
X68487677Y-38636928D01*
X68449500Y-38877969D01*
X63885250Y-38877969D01*
X63844002Y-38797016D01*
X63843998Y-38797009D01*
X63843996Y-38797006D01*
X63737553Y-38650499D01*
X63609501Y-38522447D01*
X63462994Y-38416004D01*
X63462993Y-38416003D01*
X63462991Y-38416002D01*
X63301637Y-38333788D01*
X63129406Y-38277828D01*
X62950549Y-38249500D01*
X62950546Y-38249500D01*
X62769454Y-38249500D01*
X62769451Y-38249500D01*
X62590593Y-38277828D01*
X62418362Y-38333788D01*
X62257008Y-38416002D01*
X62190621Y-38464235D01*
X62110499Y-38522447D01*
X61982447Y-38650499D01*
X61929225Y-38723752D01*
X61876002Y-38797008D01*
X61793788Y-38958362D01*
X61737828Y-39130593D01*
X61709500Y-39309450D01*
X41150500Y-39309450D01*
X41122171Y-39130593D01*
X41122171Y-39130591D01*
X41066211Y-38958361D01*
X40983996Y-38797006D01*
X40877553Y-38650499D01*
X40749501Y-38522447D01*
X40602994Y-38416004D01*
X40602993Y-38416003D01*
X40602991Y-38416002D01*
X40441637Y-38333788D01*
X40269406Y-38277828D01*
X40090549Y-38249500D01*
X40090546Y-38249500D01*
X39909454Y-38249500D01*
X39909451Y-38249500D01*
X39730593Y-38277828D01*
X39558362Y-38333788D01*
X39397008Y-38416002D01*
X39330621Y-38464235D01*
X39250499Y-38522447D01*
X39122447Y-38650499D01*
X39069225Y-38723752D01*
X39016002Y-38797008D01*
X38933788Y-38958362D01*
X38877828Y-39130593D01*
X38849500Y-39309450D01*
X600000Y-39309450D01*
X600000Y-35955130D01*
X6747000Y-35955130D01*
X6747000Y-38044860D01*
X6747001Y-38044863D01*
X6749914Y-38069990D01*
X6763386Y-38100500D01*
X6795294Y-38172765D01*
X6874735Y-38252206D01*
X6977509Y-38297585D01*
X7002635Y-38300500D01*
X8997364Y-38300499D01*
X9022491Y-38297585D01*
X9125265Y-38252206D01*
X9204706Y-38172765D01*
X9250085Y-38069991D01*
X9253000Y-38044865D01*
X9252999Y-37693952D01*
X9271906Y-37635764D01*
X9321406Y-37599800D01*
X9382591Y-37599800D01*
X9432092Y-37635764D01*
X9440208Y-37649009D01*
X9468334Y-37704209D01*
X9468335Y-37704211D01*
X9484108Y-37725920D01*
X9584265Y-37863775D01*
X9723725Y-38003235D01*
X9883285Y-38119162D01*
X10059015Y-38208701D01*
X10246588Y-38269647D01*
X10246589Y-38269647D01*
X10246592Y-38269648D01*
X10441384Y-38300500D01*
X10441387Y-38300500D01*
X10638616Y-38300500D01*
X10833407Y-38269648D01*
X10833408Y-38269647D01*
X10833412Y-38269647D01*
X11020985Y-38208701D01*
X11196715Y-38119162D01*
X11356275Y-38003235D01*
X11495735Y-37863775D01*
X11611662Y-37704215D01*
X11611668Y-37704203D01*
X11613630Y-37701003D01*
X11660155Y-37661265D01*
X11721152Y-37656463D01*
X11773322Y-37688431D01*
X11786253Y-37707783D01*
X11837710Y-37808774D01*
X11972094Y-37993738D01*
X12133761Y-38155405D01*
X12318726Y-38289790D01*
X12522433Y-38393583D01*
X12739876Y-38464235D01*
X12830000Y-38478509D01*
X12830000Y-37490747D01*
X12867708Y-37512518D01*
X13007591Y-37550000D01*
X13152409Y-37550000D01*
X13292292Y-37512518D01*
X13330000Y-37490747D01*
X13330000Y-38478508D01*
X13420123Y-38464235D01*
X13637566Y-38393583D01*
X13841273Y-38289790D01*
X14026238Y-38155405D01*
X14187905Y-37993738D01*
X14322290Y-37808773D01*
X14426083Y-37605066D01*
X14496735Y-37387623D01*
X14518532Y-37250000D01*
X13570748Y-37250000D01*
X13592518Y-37212292D01*
X13630000Y-37072409D01*
X13630000Y-36927591D01*
X13592518Y-36787708D01*
X13570748Y-36750000D01*
X14518532Y-36750000D01*
X14496735Y-36612376D01*
X14436858Y-36428094D01*
X14436858Y-36428093D01*
X14427734Y-36400012D01*
X18700000Y-36400012D01*
X18700000Y-36749999D01*
X18700001Y-36750000D01*
X19684314Y-36750000D01*
X19679920Y-36754394D01*
X19627259Y-36845606D01*
X19600000Y-36947339D01*
X19600000Y-37052661D01*
X19627259Y-37154394D01*
X19679920Y-37245606D01*
X19684314Y-37250000D01*
X18700002Y-37250000D01*
X18700001Y-37250001D01*
X18700001Y-37599986D01*
X18710492Y-37702687D01*
X18710495Y-37702699D01*
X18765643Y-37869124D01*
X18857680Y-38018340D01*
X18981659Y-38142319D01*
X19130875Y-38234356D01*
X19297306Y-38289506D01*
X19400013Y-38299999D01*
X19749998Y-38299999D01*
X19750000Y-38299998D01*
X19750000Y-37315686D01*
X19754394Y-37320080D01*
X19845606Y-37372741D01*
X19947339Y-37400000D01*
X20052661Y-37400000D01*
X20154394Y-37372741D01*
X20245606Y-37320080D01*
X20250000Y-37315686D01*
X20250000Y-38299998D01*
X20250001Y-38299999D01*
X20599986Y-38299999D01*
X20702687Y-38289507D01*
X20702699Y-38289504D01*
X20869124Y-38234356D01*
X21018340Y-38142319D01*
X21142319Y-38018340D01*
X21206026Y-37915055D01*
X21252667Y-37875453D01*
X21313677Y-37870830D01*
X21348476Y-37886933D01*
X21423212Y-37941232D01*
X21577555Y-38019873D01*
X21577557Y-38019873D01*
X21577558Y-38019874D01*
X21577561Y-38019876D01*
X21742293Y-38073401D01*
X21742297Y-38073402D01*
X21913386Y-38100500D01*
X21913389Y-38100500D01*
X22086614Y-38100500D01*
X22257702Y-38073402D01*
X22257706Y-38073401D01*
X22422438Y-38019876D01*
X22422440Y-38019874D01*
X22422445Y-38019873D01*
X22576788Y-37941232D01*
X22716928Y-37839414D01*
X22839414Y-37716928D01*
X22941232Y-37576788D01*
X23019873Y-37422445D01*
X23019874Y-37422440D01*
X23019876Y-37422438D01*
X23073401Y-37257706D01*
X23073402Y-37257702D01*
X23100500Y-37086614D01*
X23100500Y-36913387D01*
X23099851Y-36909291D01*
X23099851Y-36909289D01*
X23099850Y-36909285D01*
X23098013Y-36897684D01*
X29700000Y-36897684D01*
X29700000Y-37102315D01*
X29732008Y-37304412D01*
X29795243Y-37499027D01*
X29888139Y-37681348D01*
X29888143Y-37681353D01*
X29920523Y-37725920D01*
X29920524Y-37725920D01*
X30600000Y-37046444D01*
X30600000Y-37052661D01*
X30627259Y-37154394D01*
X30679920Y-37245606D01*
X30754394Y-37320080D01*
X30845606Y-37372741D01*
X30947339Y-37400000D01*
X30953553Y-37400000D01*
X30274078Y-38079475D01*
X30318647Y-38111858D01*
X30500972Y-38204756D01*
X30695587Y-38267991D01*
X30897685Y-38300000D01*
X31102315Y-38300000D01*
X31304412Y-38267991D01*
X31499027Y-38204756D01*
X31681342Y-38111863D01*
X31681350Y-38111858D01*
X31725920Y-38079475D01*
X31046445Y-37400000D01*
X31052661Y-37400000D01*
X31154394Y-37372741D01*
X31245606Y-37320080D01*
X31320080Y-37245606D01*
X31372741Y-37154394D01*
X31400000Y-37052661D01*
X31400000Y-37046445D01*
X32079475Y-37725920D01*
X32111858Y-37681350D01*
X32111863Y-37681342D01*
X32204756Y-37499027D01*
X32267991Y-37304412D01*
X32300000Y-37102315D01*
X32300000Y-36913385D01*
X34899500Y-36913385D01*
X34899500Y-37086614D01*
X34926597Y-37257702D01*
X34926598Y-37257706D01*
X34980123Y-37422438D01*
X34980125Y-37422441D01*
X35051791Y-37563096D01*
X35058768Y-37576788D01*
X35160586Y-37716928D01*
X35283072Y-37839414D01*
X35423212Y-37941232D01*
X35577555Y-38019873D01*
X35577557Y-38019873D01*
X35577558Y-38019874D01*
X35577561Y-38019876D01*
X35742293Y-38073401D01*
X35742297Y-38073402D01*
X35913386Y-38100500D01*
X35913389Y-38100500D01*
X36086614Y-38100500D01*
X36257702Y-38073402D01*
X36257706Y-38073401D01*
X36422438Y-38019876D01*
X36422440Y-38019874D01*
X36422445Y-38019873D01*
X36576788Y-37941232D01*
X36716928Y-37839414D01*
X36839414Y-37716928D01*
X36941232Y-37576788D01*
X37019873Y-37422445D01*
X37019874Y-37422440D01*
X37019876Y-37422438D01*
X37073401Y-37257706D01*
X37073402Y-37257702D01*
X37100500Y-37086614D01*
X37100500Y-36913385D01*
X37079540Y-36781051D01*
X37077703Y-36769450D01*
X38849500Y-36769450D01*
X38849500Y-36950549D01*
X38877828Y-37129406D01*
X38933788Y-37301637D01*
X38995339Y-37422438D01*
X39016004Y-37462994D01*
X39122447Y-37609501D01*
X39250499Y-37737553D01*
X39397006Y-37843996D01*
X39558361Y-37926211D01*
X39730591Y-37982171D01*
X39779498Y-37989917D01*
X39909451Y-38010500D01*
X39909454Y-38010500D01*
X40090549Y-38010500D01*
X40179977Y-37996335D01*
X40269409Y-37982171D01*
X40441639Y-37926211D01*
X40602994Y-37843996D01*
X40749501Y-37737553D01*
X40877553Y-37609501D01*
X40983996Y-37462994D01*
X41066211Y-37301639D01*
X41122171Y-37129409D01*
X41136335Y-37039977D01*
X41150500Y-36950549D01*
X41150500Y-36769450D01*
X61709500Y-36769450D01*
X61709500Y-36950549D01*
X61737828Y-37129406D01*
X61793788Y-37301637D01*
X61855339Y-37422438D01*
X61876004Y-37462994D01*
X61982447Y-37609501D01*
X62110499Y-37737553D01*
X62257006Y-37843996D01*
X62418361Y-37926211D01*
X62590591Y-37982171D01*
X62639498Y-37989917D01*
X62769451Y-38010500D01*
X62769454Y-38010500D01*
X62950549Y-38010500D01*
X63039977Y-37996335D01*
X63129409Y-37982171D01*
X63301639Y-37926211D01*
X63462994Y-37843996D01*
X63609501Y-37737553D01*
X63737553Y-37609501D01*
X63843996Y-37462994D01*
X63926211Y-37301639D01*
X63982171Y-37129409D01*
X63996335Y-37039977D01*
X64010500Y-36950549D01*
X64010500Y-36769450D01*
X63991017Y-36646445D01*
X63982171Y-36590591D01*
X63926211Y-36418361D01*
X63843996Y-36257006D01*
X63737553Y-36110499D01*
X63609501Y-35982447D01*
X63462994Y-35876004D01*
X63462993Y-35876003D01*
X63462991Y-35876002D01*
X63301637Y-35793788D01*
X63129406Y-35737828D01*
X62950549Y-35709500D01*
X62950546Y-35709500D01*
X62769454Y-35709500D01*
X62769451Y-35709500D01*
X62590593Y-35737828D01*
X62418362Y-35793788D01*
X62257008Y-35876002D01*
X62195729Y-35920524D01*
X62110499Y-35982447D01*
X61982447Y-36110499D01*
X61946058Y-36160585D01*
X61876002Y-36257008D01*
X61793788Y-36418362D01*
X61737828Y-36590593D01*
X61709500Y-36769450D01*
X41150500Y-36769450D01*
X41131017Y-36646445D01*
X41122171Y-36590591D01*
X41066211Y-36418361D01*
X40983996Y-36257006D01*
X40877553Y-36110499D01*
X40749501Y-35982447D01*
X40602994Y-35876004D01*
X40602993Y-35876003D01*
X40602991Y-35876002D01*
X40441637Y-35793788D01*
X40269406Y-35737828D01*
X40090549Y-35709500D01*
X40090546Y-35709500D01*
X39909454Y-35709500D01*
X39909451Y-35709500D01*
X39730593Y-35737828D01*
X39558362Y-35793788D01*
X39397008Y-35876002D01*
X39335729Y-35920524D01*
X39250499Y-35982447D01*
X39122447Y-36110499D01*
X39086058Y-36160585D01*
X39016002Y-36257008D01*
X38933788Y-36418362D01*
X38877828Y-36590593D01*
X38849500Y-36769450D01*
X37077703Y-36769450D01*
X37073402Y-36742297D01*
X37073401Y-36742293D01*
X37019876Y-36577561D01*
X37019874Y-36577558D01*
X37019873Y-36577557D01*
X37019873Y-36577555D01*
X36941232Y-36423212D01*
X36839414Y-36283072D01*
X36716928Y-36160586D01*
X36576788Y-36058768D01*
X36576787Y-36058767D01*
X36576785Y-36058766D01*
X36422441Y-35980125D01*
X36422438Y-35980123D01*
X36257706Y-35926598D01*
X36257702Y-35926597D01*
X36086614Y-35899500D01*
X36086611Y-35899500D01*
X35913389Y-35899500D01*
X35913386Y-35899500D01*
X35742297Y-35926597D01*
X35742293Y-35926598D01*
X35577561Y-35980123D01*
X35577558Y-35980125D01*
X35423214Y-36058766D01*
X35283073Y-36160585D01*
X35160585Y-36283073D01*
X35058766Y-36423214D01*
X34980125Y-36577558D01*
X34980123Y-36577561D01*
X34926598Y-36742293D01*
X34926597Y-36742297D01*
X34899500Y-36913385D01*
X32300000Y-36913385D01*
X32300000Y-36897684D01*
X32267991Y-36695587D01*
X32204756Y-36500972D01*
X32111858Y-36318647D01*
X32079475Y-36274078D01*
X31400000Y-36953553D01*
X31400000Y-36947339D01*
X31372741Y-36845606D01*
X31320080Y-36754394D01*
X31245606Y-36679920D01*
X31154394Y-36627259D01*
X31052661Y-36600000D01*
X31046445Y-36600000D01*
X31725920Y-35920524D01*
X31725920Y-35920523D01*
X31681353Y-35888143D01*
X31681348Y-35888139D01*
X31499027Y-35795243D01*
X31304412Y-35732008D01*
X31102315Y-35700000D01*
X30897685Y-35700000D01*
X30695587Y-35732008D01*
X30500972Y-35795243D01*
X30318651Y-35888139D01*
X30318647Y-35888141D01*
X30274078Y-35920523D01*
X30953555Y-36600000D01*
X30947339Y-36600000D01*
X30845606Y-36627259D01*
X30754394Y-36679920D01*
X30679920Y-36754394D01*
X30627259Y-36845606D01*
X30600000Y-36947339D01*
X30600000Y-36953555D01*
X29920523Y-36274078D01*
X29888141Y-36318647D01*
X29888139Y-36318651D01*
X29795243Y-36500972D01*
X29732008Y-36695587D01*
X29700000Y-36897684D01*
X23098013Y-36897684D01*
X23073402Y-36742297D01*
X23073401Y-36742293D01*
X23019876Y-36577561D01*
X23019874Y-36577558D01*
X23019873Y-36577557D01*
X23019873Y-36577555D01*
X22941232Y-36423212D01*
X22839414Y-36283072D01*
X22716928Y-36160586D01*
X22576788Y-36058768D01*
X22576787Y-36058767D01*
X22576785Y-36058766D01*
X22552642Y-36046465D01*
X22422441Y-35980125D01*
X22422438Y-35980123D01*
X22257706Y-35926598D01*
X22257702Y-35926597D01*
X22086614Y-35899500D01*
X22086611Y-35899500D01*
X21913389Y-35899500D01*
X21913386Y-35899500D01*
X21742297Y-35926597D01*
X21742293Y-35926598D01*
X21577561Y-35980123D01*
X21577558Y-35980125D01*
X21423212Y-36058767D01*
X21423208Y-36058769D01*
X21348477Y-36113065D01*
X21290286Y-36131972D01*
X21232096Y-36113064D01*
X21206026Y-36084945D01*
X21142317Y-35981657D01*
X21018340Y-35857680D01*
X20869124Y-35765643D01*
X20702693Y-35710493D01*
X20599987Y-35700000D01*
X20250001Y-35700000D01*
X20250000Y-35700001D01*
X20250000Y-36684314D01*
X20245606Y-36679920D01*
X20154394Y-36627259D01*
X20052661Y-36600000D01*
X19947339Y-36600000D01*
X19845606Y-36627259D01*
X19754394Y-36679920D01*
X19750000Y-36684314D01*
X19750000Y-35700001D01*
X19749999Y-35700000D01*
X19400013Y-35700000D01*
X19297312Y-35710492D01*
X19297300Y-35710495D01*
X19130875Y-35765643D01*
X18981659Y-35857680D01*
X18857680Y-35981659D01*
X18765643Y-36130875D01*
X18710493Y-36297306D01*
X18700000Y-36400012D01*
X14427734Y-36400012D01*
X14426084Y-36394935D01*
X14322290Y-36191226D01*
X14187905Y-36006261D01*
X14026238Y-35844594D01*
X13841273Y-35710209D01*
X13637564Y-35606415D01*
X13420127Y-35535766D01*
X13330000Y-35521490D01*
X13330000Y-36509252D01*
X13292292Y-36487482D01*
X13152409Y-36450000D01*
X13007591Y-36450000D01*
X12867708Y-36487482D01*
X12830000Y-36509252D01*
X12830000Y-35521490D01*
X12829999Y-35521490D01*
X12739872Y-35535766D01*
X12522435Y-35606415D01*
X12318726Y-35710209D01*
X12133761Y-35844594D01*
X11972094Y-36006261D01*
X11837709Y-36191226D01*
X11786253Y-36292216D01*
X11742988Y-36335481D01*
X11682556Y-36345052D01*
X11628039Y-36317275D01*
X11613634Y-36299002D01*
X11611666Y-36295792D01*
X11611664Y-36295790D01*
X11611662Y-36295785D01*
X11495735Y-36136225D01*
X11356275Y-35996765D01*
X11196715Y-35880838D01*
X11196714Y-35880837D01*
X11196712Y-35880836D01*
X11020985Y-35791299D01*
X10833407Y-35730351D01*
X10638616Y-35699500D01*
X10638613Y-35699500D01*
X10441387Y-35699500D01*
X10441384Y-35699500D01*
X10246592Y-35730351D01*
X10059014Y-35791299D01*
X9883287Y-35880836D01*
X9723726Y-35996764D01*
X9584264Y-36136226D01*
X9468335Y-36295788D01*
X9468334Y-36295790D01*
X9440208Y-36350991D01*
X9396943Y-36394255D01*
X9336511Y-36403826D01*
X9281995Y-36376048D01*
X9254218Y-36321531D01*
X9252999Y-36306045D01*
X9252999Y-35955139D01*
X9252999Y-35955136D01*
X9250085Y-35930009D01*
X9204706Y-35827235D01*
X9125265Y-35747794D01*
X9022491Y-35702415D01*
X9022490Y-35702414D01*
X9022488Y-35702414D01*
X8997368Y-35699500D01*
X7002639Y-35699500D01*
X7002636Y-35699501D01*
X6977509Y-35702414D01*
X6874735Y-35747794D01*
X6795294Y-35827235D01*
X6749914Y-35930011D01*
X6747000Y-35955130D01*
X600000Y-35955130D01*
X600000Y-34229450D01*
X38849500Y-34229450D01*
X38849500Y-34410549D01*
X38877828Y-34589406D01*
X38930006Y-34749998D01*
X38933789Y-34761639D01*
X39016004Y-34922994D01*
X39122447Y-35069501D01*
X39250499Y-35197553D01*
X39397006Y-35303996D01*
X39558361Y-35386211D01*
X39730591Y-35442171D01*
X39802136Y-35453502D01*
X39909451Y-35470500D01*
X39909454Y-35470500D01*
X40090549Y-35470500D01*
X40179977Y-35456335D01*
X40269409Y-35442171D01*
X40441639Y-35386211D01*
X40602994Y-35303996D01*
X40749501Y-35197553D01*
X40877553Y-35069501D01*
X40983996Y-34922994D01*
X41066211Y-34761639D01*
X41122171Y-34589409D01*
X41136335Y-34499977D01*
X41150500Y-34410549D01*
X41150500Y-34229450D01*
X61709500Y-34229450D01*
X61709500Y-34410549D01*
X61737828Y-34589406D01*
X61790006Y-34749998D01*
X61793789Y-34761639D01*
X61876004Y-34922994D01*
X61982447Y-35069501D01*
X62110499Y-35197553D01*
X62257006Y-35303996D01*
X62418361Y-35386211D01*
X62590591Y-35442171D01*
X62662136Y-35453502D01*
X62769451Y-35470500D01*
X62769454Y-35470500D01*
X62950549Y-35470500D01*
X63039977Y-35456335D01*
X63129409Y-35442171D01*
X63301639Y-35386211D01*
X63462994Y-35303996D01*
X63609501Y-35197553D01*
X63737553Y-35069501D01*
X63843996Y-34922994D01*
X63926211Y-34761639D01*
X63982171Y-34589409D01*
X63996335Y-34499977D01*
X64010500Y-34410549D01*
X64010500Y-34229450D01*
X63982171Y-34050593D01*
X63982171Y-34050591D01*
X63926211Y-33878361D01*
X63843996Y-33717006D01*
X63737553Y-33570499D01*
X63609501Y-33442447D01*
X63462994Y-33336004D01*
X63462993Y-33336003D01*
X63462991Y-33336002D01*
X63386843Y-33297203D01*
X63386840Y-33297200D01*
X63301646Y-33253791D01*
X63301640Y-33253789D01*
X63129406Y-33197828D01*
X62950549Y-33169500D01*
X62950546Y-33169500D01*
X62769454Y-33169500D01*
X62769451Y-33169500D01*
X62590593Y-33197828D01*
X62418362Y-33253788D01*
X62257008Y-33336002D01*
X62219751Y-33363071D01*
X62110499Y-33442447D01*
X61982447Y-33570499D01*
X61964512Y-33595185D01*
X61876002Y-33717008D01*
X61793788Y-33878362D01*
X61737828Y-34050593D01*
X61709500Y-34229450D01*
X41150500Y-34229450D01*
X41122171Y-34050593D01*
X41122171Y-34050591D01*
X41066211Y-33878361D01*
X40983996Y-33717006D01*
X40877553Y-33570499D01*
X40749501Y-33442447D01*
X40602994Y-33336004D01*
X40602993Y-33336003D01*
X40602991Y-33336002D01*
X40441637Y-33253788D01*
X40269406Y-33197828D01*
X40090549Y-33169500D01*
X40090546Y-33169500D01*
X39909454Y-33169500D01*
X39909451Y-33169500D01*
X39730593Y-33197828D01*
X39558362Y-33253788D01*
X39397008Y-33336002D01*
X39359751Y-33363071D01*
X39250499Y-33442447D01*
X39122447Y-33570499D01*
X39104512Y-33595185D01*
X39016002Y-33717008D01*
X38933788Y-33878362D01*
X38877828Y-34050593D01*
X38849500Y-34229450D01*
X600000Y-34229450D01*
X600000Y-31689450D01*
X38849500Y-31689450D01*
X38849500Y-31870549D01*
X38877828Y-32049406D01*
X38933788Y-32221637D01*
X38999192Y-32350000D01*
X39016004Y-32382994D01*
X39122447Y-32529501D01*
X39250499Y-32657553D01*
X39397006Y-32763996D01*
X39558361Y-32846211D01*
X39730591Y-32902171D01*
X39802136Y-32913502D01*
X39909451Y-32930500D01*
X39909454Y-32930500D01*
X40090549Y-32930500D01*
X40179977Y-32916335D01*
X40269409Y-32902171D01*
X40441639Y-32846211D01*
X40602994Y-32763996D01*
X40749501Y-32657553D01*
X40877553Y-32529501D01*
X40983996Y-32382994D01*
X41066211Y-32221639D01*
X41122171Y-32049409D01*
X41137914Y-31950012D01*
X41150500Y-31870549D01*
X41150500Y-31689450D01*
X61709500Y-31689450D01*
X61709500Y-31870549D01*
X61737828Y-32049406D01*
X61793788Y-32221637D01*
X61859192Y-32350000D01*
X61876004Y-32382994D01*
X61982447Y-32529501D01*
X62110499Y-32657553D01*
X62257006Y-32763996D01*
X62418361Y-32846211D01*
X62590591Y-32902171D01*
X62662136Y-32913502D01*
X62769451Y-32930500D01*
X62769454Y-32930500D01*
X62950549Y-32930500D01*
X63039977Y-32916335D01*
X63129409Y-32902171D01*
X63301639Y-32846211D01*
X63462994Y-32763996D01*
X63609501Y-32657553D01*
X63737553Y-32529501D01*
X63843996Y-32382994D01*
X63926211Y-32221639D01*
X63982171Y-32049409D01*
X63997914Y-31950012D01*
X70250000Y-31950012D01*
X70250000Y-32749999D01*
X70250001Y-32750000D01*
X71399999Y-32750000D01*
X71374979Y-32810402D01*
X71350000Y-32935981D01*
X71350000Y-33064019D01*
X71374979Y-33189598D01*
X71399999Y-33250000D01*
X70250002Y-33250000D01*
X70250001Y-33250001D01*
X70250001Y-34049986D01*
X70260492Y-34152687D01*
X70260495Y-34152699D01*
X70315643Y-34319124D01*
X70407680Y-34468340D01*
X70531659Y-34592319D01*
X70680875Y-34684356D01*
X70847306Y-34739506D01*
X70950012Y-34749999D01*
X71749998Y-34749999D01*
X71750000Y-34749998D01*
X71750000Y-33600001D01*
X71810402Y-33625021D01*
X71935981Y-33650000D01*
X72064019Y-33650000D01*
X72189598Y-33625021D01*
X72250000Y-33600001D01*
X72250000Y-34749998D01*
X72250001Y-34749999D01*
X73049986Y-34749999D01*
X73152687Y-34739507D01*
X73152699Y-34739504D01*
X73319124Y-34684356D01*
X73468340Y-34592319D01*
X73592319Y-34468340D01*
X73684356Y-34319124D01*
X73739506Y-34152693D01*
X73750000Y-34049987D01*
X73750000Y-33250001D01*
X73749999Y-33250000D01*
X72600001Y-33250000D01*
X72625021Y-33189598D01*
X72650000Y-33064019D01*
X72650000Y-32935981D01*
X72638461Y-32877969D01*
X82649500Y-32877969D01*
X82649500Y-33122030D01*
X82687677Y-33363071D01*
X82763096Y-33595185D01*
X82873892Y-33812637D01*
X82921644Y-33878362D01*
X83017345Y-34010083D01*
X83189917Y-34182655D01*
X83254331Y-34229454D01*
X83387362Y-34326107D01*
X83496088Y-34381505D01*
X83604815Y-34436904D01*
X83836924Y-34512321D01*
X83836925Y-34512321D01*
X83836928Y-34512322D01*
X84077970Y-34550500D01*
X84077973Y-34550500D01*
X84322030Y-34550500D01*
X84563071Y-34512322D01*
X84563072Y-34512321D01*
X84563076Y-34512321D01*
X84795185Y-34436904D01*
X85012639Y-34326106D01*
X85210083Y-34182655D01*
X85382655Y-34010083D01*
X85526106Y-33812639D01*
X85636904Y-33595185D01*
X85712321Y-33363076D01*
X85721062Y-33307890D01*
X85750500Y-33122030D01*
X85750500Y-32877969D01*
X85712322Y-32636928D01*
X85712321Y-32636924D01*
X85636904Y-32404815D01*
X85581505Y-32296088D01*
X85526107Y-32187362D01*
X85425876Y-32049406D01*
X85382655Y-31989917D01*
X85210083Y-31817345D01*
X85034056Y-31689454D01*
X85012637Y-31673892D01*
X84795185Y-31563096D01*
X84563071Y-31487677D01*
X84322030Y-31449500D01*
X84322027Y-31449500D01*
X84077973Y-31449500D01*
X84077970Y-31449500D01*
X83836928Y-31487677D01*
X83604814Y-31563096D01*
X83387362Y-31673892D01*
X83189918Y-31817344D01*
X83017344Y-31989918D01*
X82873892Y-32187362D01*
X82763096Y-32404814D01*
X82687677Y-32636928D01*
X82649500Y-32877969D01*
X72638461Y-32877969D01*
X72625021Y-32810402D01*
X72600001Y-32750000D01*
X73749998Y-32750000D01*
X73749999Y-32749999D01*
X73749999Y-31950013D01*
X73739507Y-31847312D01*
X73739504Y-31847300D01*
X73684356Y-31680875D01*
X73592319Y-31531659D01*
X73468340Y-31407680D01*
X73319124Y-31315643D01*
X73152693Y-31260493D01*
X73049987Y-31250000D01*
X72250001Y-31250000D01*
X72250000Y-31250001D01*
X72250000Y-32399998D01*
X72189598Y-32374979D01*
X72064019Y-32350000D01*
X71935981Y-32350000D01*
X71810402Y-32374979D01*
X71750000Y-32399998D01*
X71750000Y-31250001D01*
X71749999Y-31250000D01*
X70950013Y-31250000D01*
X70847312Y-31260492D01*
X70847300Y-31260495D01*
X70680875Y-31315643D01*
X70531659Y-31407680D01*
X70407680Y-31531659D01*
X70315643Y-31680875D01*
X70260493Y-31847306D01*
X70250000Y-31950012D01*
X63997914Y-31950012D01*
X64000765Y-31932014D01*
X64010500Y-31870549D01*
X64010500Y-31689450D01*
X63982171Y-31510593D01*
X63982171Y-31510591D01*
X63926211Y-31338361D01*
X63843996Y-31177006D01*
X63737553Y-31030499D01*
X63609501Y-30902447D01*
X63462994Y-30796004D01*
X63462993Y-30796003D01*
X63462991Y-30796002D01*
X63301637Y-30713788D01*
X63129406Y-30657828D01*
X62950549Y-30629500D01*
X62950546Y-30629500D01*
X62769454Y-30629500D01*
X62769451Y-30629500D01*
X62590593Y-30657828D01*
X62418362Y-30713788D01*
X62257008Y-30796002D01*
X62183752Y-30849225D01*
X62110499Y-30902447D01*
X61982447Y-31030499D01*
X61929225Y-31103752D01*
X61876002Y-31177008D01*
X61793788Y-31338362D01*
X61737828Y-31510593D01*
X61709500Y-31689450D01*
X41150500Y-31689450D01*
X41122171Y-31510593D01*
X41122171Y-31510591D01*
X41066211Y-31338361D01*
X40983996Y-31177006D01*
X40877553Y-31030499D01*
X40749501Y-30902447D01*
X40602994Y-30796004D01*
X40602993Y-30796003D01*
X40602991Y-30796002D01*
X40441637Y-30713788D01*
X40269406Y-30657828D01*
X40090549Y-30629500D01*
X40090546Y-30629500D01*
X39909454Y-30629500D01*
X39909451Y-30629500D01*
X39730593Y-30657828D01*
X39558362Y-30713788D01*
X39397008Y-30796002D01*
X39323752Y-30849225D01*
X39250499Y-30902447D01*
X39122447Y-31030499D01*
X39069225Y-31103752D01*
X39016002Y-31177008D01*
X38933788Y-31338362D01*
X38877828Y-31510593D01*
X38849500Y-31689450D01*
X600000Y-31689450D01*
X600000Y-29149450D01*
X38849500Y-29149450D01*
X38849500Y-29330549D01*
X38877828Y-29509406D01*
X38877829Y-29509409D01*
X38933789Y-29681639D01*
X39016004Y-29842994D01*
X39122447Y-29989501D01*
X39250499Y-30117553D01*
X39397006Y-30223996D01*
X39558361Y-30306211D01*
X39730591Y-30362171D01*
X39802136Y-30373502D01*
X39909451Y-30390500D01*
X39909454Y-30390500D01*
X40090549Y-30390500D01*
X40179977Y-30376335D01*
X40269409Y-30362171D01*
X40441639Y-30306211D01*
X40602994Y-30223996D01*
X40749501Y-30117553D01*
X40877553Y-29989501D01*
X40983996Y-29842994D01*
X41066211Y-29681639D01*
X41122171Y-29509409D01*
X41150500Y-29330546D01*
X41150500Y-29149454D01*
X41150500Y-29149450D01*
X61709500Y-29149450D01*
X61709500Y-29330549D01*
X61737828Y-29509406D01*
X61737829Y-29509409D01*
X61793789Y-29681639D01*
X61876004Y-29842994D01*
X61982447Y-29989501D01*
X62110499Y-30117553D01*
X62257006Y-30223996D01*
X62418361Y-30306211D01*
X62590591Y-30362171D01*
X62662136Y-30373502D01*
X62769451Y-30390500D01*
X62769454Y-30390500D01*
X62950549Y-30390500D01*
X63039977Y-30376335D01*
X63129409Y-30362171D01*
X63301639Y-30306211D01*
X63462994Y-30223996D01*
X63609501Y-30117553D01*
X63737553Y-29989501D01*
X63843996Y-29842994D01*
X63926211Y-29681639D01*
X63982171Y-29509409D01*
X64010500Y-29330546D01*
X64010500Y-29149454D01*
X64010500Y-29149450D01*
X63982171Y-28970593D01*
X63982171Y-28970591D01*
X63926211Y-28798361D01*
X63843996Y-28637006D01*
X63737553Y-28490499D01*
X63609501Y-28362447D01*
X63462994Y-28256004D01*
X63462993Y-28256003D01*
X63462991Y-28256002D01*
X63301637Y-28173788D01*
X63129406Y-28117828D01*
X62950549Y-28089500D01*
X62950546Y-28089500D01*
X62769454Y-28089500D01*
X62769451Y-28089500D01*
X62590593Y-28117828D01*
X62418362Y-28173788D01*
X62257008Y-28256002D01*
X62199348Y-28297895D01*
X62110499Y-28362447D01*
X61982447Y-28490499D01*
X61929225Y-28563752D01*
X61876002Y-28637008D01*
X61793788Y-28798362D01*
X61737828Y-28970593D01*
X61709500Y-29149450D01*
X41150500Y-29149450D01*
X41122171Y-28970593D01*
X41122171Y-28970591D01*
X41066211Y-28798361D01*
X40983996Y-28637006D01*
X40877553Y-28490499D01*
X40749501Y-28362447D01*
X40602994Y-28256004D01*
X40602993Y-28256003D01*
X40602991Y-28256002D01*
X40441637Y-28173788D01*
X40269406Y-28117828D01*
X40090549Y-28089500D01*
X40090546Y-28089500D01*
X39909454Y-28089500D01*
X39909451Y-28089500D01*
X39730593Y-28117828D01*
X39558362Y-28173788D01*
X39397008Y-28256002D01*
X39339348Y-28297895D01*
X39250499Y-28362447D01*
X39122447Y-28490499D01*
X39069225Y-28563752D01*
X39016002Y-28637008D01*
X38933788Y-28798362D01*
X38877828Y-28970593D01*
X38849500Y-29149450D01*
X600000Y-29149450D01*
X600000Y-26106892D01*
X6599500Y-26106892D01*
X6599500Y-27893098D01*
X6599501Y-27893108D01*
X6610123Y-27981564D01*
X6610124Y-27981570D01*
X6663859Y-28117829D01*
X6665639Y-28122343D01*
X6757077Y-28242923D01*
X6877657Y-28334361D01*
X7018435Y-28389877D01*
X7106897Y-28400500D01*
X8893102Y-28400499D01*
X8981565Y-28389877D01*
X9122343Y-28334361D01*
X9242923Y-28242923D01*
X9334361Y-28122343D01*
X9389877Y-27981565D01*
X9400500Y-27893103D01*
X9400499Y-26889774D01*
X16759500Y-26889774D01*
X16759500Y-27110225D01*
X16793984Y-27327948D01*
X16862102Y-27537599D01*
X16862104Y-27537602D01*
X16862105Y-27537606D01*
X16903789Y-27619414D01*
X16961935Y-27733533D01*
X16962185Y-27734022D01*
X17091758Y-27912365D01*
X17247635Y-28068242D01*
X17425978Y-28197815D01*
X17622394Y-28297895D01*
X17832049Y-28366015D01*
X17919140Y-28379809D01*
X18049775Y-28400500D01*
X18049778Y-28400500D01*
X18270225Y-28400500D01*
X18379086Y-28383257D01*
X18487951Y-28366015D01*
X18697606Y-28297895D01*
X18894022Y-28197815D01*
X19072365Y-28068242D01*
X19228242Y-27912365D01*
X19357815Y-27734022D01*
X19457895Y-27537606D01*
X19526015Y-27327951D01*
X19555524Y-27141639D01*
X19560500Y-27110225D01*
X19560500Y-26889774D01*
X19529395Y-26693389D01*
X19526015Y-26672049D01*
X19505676Y-26609450D01*
X38849500Y-26609450D01*
X38849500Y-26790549D01*
X38877828Y-26969406D01*
X38877829Y-26969409D01*
X38933789Y-27141639D01*
X39016004Y-27302994D01*
X39122447Y-27449501D01*
X39250499Y-27577553D01*
X39397006Y-27683996D01*
X39558361Y-27766211D01*
X39730591Y-27822171D01*
X39802136Y-27833502D01*
X39909451Y-27850500D01*
X39909454Y-27850500D01*
X40090549Y-27850500D01*
X40179977Y-27836335D01*
X40269409Y-27822171D01*
X40441639Y-27766211D01*
X40602994Y-27683996D01*
X40749501Y-27577553D01*
X40877553Y-27449501D01*
X40983996Y-27302994D01*
X41066211Y-27141639D01*
X41122171Y-26969409D01*
X41150500Y-26790546D01*
X41150500Y-26609454D01*
X41150500Y-26609450D01*
X61709500Y-26609450D01*
X61709500Y-26790549D01*
X61737828Y-26969406D01*
X61737829Y-26969409D01*
X61793789Y-27141639D01*
X61876004Y-27302994D01*
X61982447Y-27449501D01*
X62110499Y-27577553D01*
X62257006Y-27683996D01*
X62418361Y-27766211D01*
X62590591Y-27822171D01*
X62662136Y-27833502D01*
X62769451Y-27850500D01*
X62769454Y-27850500D01*
X62950549Y-27850500D01*
X63039977Y-27836335D01*
X63129409Y-27822171D01*
X63301639Y-27766211D01*
X63462994Y-27683996D01*
X63609501Y-27577553D01*
X63737553Y-27449501D01*
X63843996Y-27302994D01*
X63926211Y-27141639D01*
X63982171Y-26969409D01*
X64010500Y-26790546D01*
X64010500Y-26693385D01*
X68899500Y-26693385D01*
X68899500Y-26866614D01*
X68926597Y-27037702D01*
X68926598Y-27037706D01*
X68980123Y-27202438D01*
X68980125Y-27202441D01*
X68980126Y-27202444D01*
X68980127Y-27202445D01*
X69058768Y-27356788D01*
X69160586Y-27496928D01*
X69283072Y-27619414D01*
X69423212Y-27721232D01*
X69577555Y-27799873D01*
X69577557Y-27799873D01*
X69577558Y-27799874D01*
X69577561Y-27799876D01*
X69742293Y-27853401D01*
X69742297Y-27853402D01*
X69913386Y-27880500D01*
X69913389Y-27880500D01*
X70086614Y-27880500D01*
X70257702Y-27853402D01*
X70257706Y-27853401D01*
X70422438Y-27799876D01*
X70422440Y-27799874D01*
X70422445Y-27799873D01*
X70576788Y-27721232D01*
X70716928Y-27619414D01*
X70839414Y-27496928D01*
X70941232Y-27356788D01*
X71019873Y-27202445D01*
X71019874Y-27202440D01*
X71019876Y-27202438D01*
X71073401Y-27037706D01*
X71073402Y-27037702D01*
X71100500Y-26866614D01*
X71100500Y-26693387D01*
X71099851Y-26689291D01*
X71099851Y-26689289D01*
X71099850Y-26689285D01*
X71098013Y-26677684D01*
X76320000Y-26677684D01*
X76320000Y-26882315D01*
X76352008Y-27084412D01*
X76415243Y-27279027D01*
X76508139Y-27461348D01*
X76508143Y-27461353D01*
X76540523Y-27505920D01*
X76540524Y-27505920D01*
X77220000Y-26826444D01*
X77220000Y-26832661D01*
X77247259Y-26934394D01*
X77299920Y-27025606D01*
X77374394Y-27100080D01*
X77465606Y-27152741D01*
X77567339Y-27180000D01*
X77573553Y-27180000D01*
X76894078Y-27859475D01*
X76938647Y-27891858D01*
X77120972Y-27984756D01*
X77315587Y-28047991D01*
X77517685Y-28080000D01*
X77722315Y-28080000D01*
X77924412Y-28047991D01*
X78119027Y-27984756D01*
X78301342Y-27891863D01*
X78301350Y-27891858D01*
X78345920Y-27859475D01*
X77666445Y-27180000D01*
X77672661Y-27180000D01*
X77774394Y-27152741D01*
X77865606Y-27100080D01*
X77940080Y-27025606D01*
X77992741Y-26934394D01*
X78020000Y-26832661D01*
X78020000Y-26826445D01*
X78699475Y-27505920D01*
X78731858Y-27461350D01*
X78731863Y-27461342D01*
X78824756Y-27279027D01*
X78887991Y-27084412D01*
X78920000Y-26882315D01*
X78920000Y-26677684D01*
X78887991Y-26475587D01*
X78824756Y-26280972D01*
X78731858Y-26098647D01*
X78699475Y-26054078D01*
X78020000Y-26733553D01*
X78020000Y-26727339D01*
X77992741Y-26625606D01*
X77940080Y-26534394D01*
X77865606Y-26459920D01*
X77774394Y-26407259D01*
X77672661Y-26380000D01*
X77666445Y-26380000D01*
X78345920Y-25700524D01*
X78345920Y-25700523D01*
X78301353Y-25668143D01*
X78301348Y-25668139D01*
X78119027Y-25575243D01*
X77924413Y-25512009D01*
X77889361Y-25506457D01*
X77834845Y-25478679D01*
X77807068Y-25424162D01*
X77816640Y-25363730D01*
X77859905Y-25320466D01*
X77874256Y-25314521D01*
X77877698Y-25313402D01*
X77877701Y-25313402D01*
X78042445Y-25259873D01*
X78196788Y-25181232D01*
X78336928Y-25079414D01*
X78459414Y-24956928D01*
X78561232Y-24816788D01*
X78639873Y-24662445D01*
X78639874Y-24662440D01*
X78639876Y-24662438D01*
X78693401Y-24497706D01*
X78693402Y-24497702D01*
X78720500Y-24326614D01*
X78720500Y-24153385D01*
X78693402Y-23982297D01*
X78674587Y-23924392D01*
X78674586Y-23924391D01*
X78665908Y-23897684D01*
X82700000Y-23897684D01*
X82700000Y-24102315D01*
X82732008Y-24304412D01*
X82795243Y-24499027D01*
X82888139Y-24681348D01*
X82888143Y-24681353D01*
X82920523Y-24725920D01*
X82920524Y-24725920D01*
X83600000Y-24046444D01*
X83600000Y-24052661D01*
X83627259Y-24154394D01*
X83679920Y-24245606D01*
X83754394Y-24320080D01*
X83845606Y-24372741D01*
X83947339Y-24400000D01*
X83953553Y-24400000D01*
X83274078Y-25079475D01*
X83318647Y-25111858D01*
X83500972Y-25204756D01*
X83695587Y-25267991D01*
X83897685Y-25300000D01*
X84102315Y-25300000D01*
X84304412Y-25267991D01*
X84499027Y-25204756D01*
X84681342Y-25111863D01*
X84681350Y-25111858D01*
X84725920Y-25079475D01*
X84046445Y-24400000D01*
X84052661Y-24400000D01*
X84154394Y-24372741D01*
X84245606Y-24320080D01*
X84320080Y-24245606D01*
X84372741Y-24154394D01*
X84400000Y-24052661D01*
X84400000Y-24046445D01*
X85079475Y-24725920D01*
X85111858Y-24681350D01*
X85111863Y-24681342D01*
X85204756Y-24499027D01*
X85267991Y-24304412D01*
X85300000Y-24102315D01*
X85300000Y-23897684D01*
X85267991Y-23695587D01*
X85204756Y-23500972D01*
X85111858Y-23318647D01*
X85079475Y-23274078D01*
X84400000Y-23953553D01*
X84400000Y-23947339D01*
X84372741Y-23845606D01*
X84320080Y-23754394D01*
X84245606Y-23679920D01*
X84154394Y-23627259D01*
X84052661Y-23600000D01*
X84046445Y-23600000D01*
X84725920Y-22920524D01*
X84725920Y-22920523D01*
X84681353Y-22888143D01*
X84681348Y-22888139D01*
X84499027Y-22795243D01*
X84304412Y-22732008D01*
X84102315Y-22700000D01*
X83897685Y-22700000D01*
X83695587Y-22732008D01*
X83500972Y-22795243D01*
X83318651Y-22888139D01*
X83318647Y-22888141D01*
X83274078Y-22920523D01*
X83953555Y-23600000D01*
X83947339Y-23600000D01*
X83845606Y-23627259D01*
X83754394Y-23679920D01*
X83679920Y-23754394D01*
X83627259Y-23845606D01*
X83600000Y-23947339D01*
X83600000Y-23953555D01*
X82920523Y-23274078D01*
X82888141Y-23318647D01*
X82888139Y-23318651D01*
X82795243Y-23500972D01*
X82732008Y-23695587D01*
X82700000Y-23897684D01*
X78665908Y-23897684D01*
X78639873Y-23817555D01*
X78561232Y-23663212D01*
X78459414Y-23523072D01*
X78336928Y-23400586D01*
X78196788Y-23298768D01*
X78196787Y-23298767D01*
X78196785Y-23298766D01*
X78042441Y-23220125D01*
X78042438Y-23220123D01*
X77877706Y-23166598D01*
X77877702Y-23166597D01*
X77706614Y-23139500D01*
X77706611Y-23139500D01*
X77533389Y-23139500D01*
X77533386Y-23139500D01*
X77362297Y-23166597D01*
X77362293Y-23166598D01*
X77197561Y-23220123D01*
X77197558Y-23220125D01*
X77043214Y-23298766D01*
X76903073Y-23400585D01*
X76780585Y-23523073D01*
X76678766Y-23663214D01*
X76600125Y-23817558D01*
X76600123Y-23817561D01*
X76546598Y-23982293D01*
X76546597Y-23982297D01*
X76519500Y-24153385D01*
X76519500Y-24326614D01*
X76546597Y-24497702D01*
X76546598Y-24497706D01*
X76600123Y-24662438D01*
X76600125Y-24662441D01*
X76600126Y-24662444D01*
X76600127Y-24662445D01*
X76678768Y-24816788D01*
X76780586Y-24956928D01*
X76903072Y-25079414D01*
X77043212Y-25181232D01*
X77197555Y-25259873D01*
X77353368Y-25310500D01*
X77365743Y-25314521D01*
X77415243Y-25350485D01*
X77434150Y-25408676D01*
X77415243Y-25466867D01*
X77365742Y-25502831D01*
X77350638Y-25506457D01*
X77315586Y-25512009D01*
X77120972Y-25575243D01*
X76938651Y-25668139D01*
X76938647Y-25668141D01*
X76894078Y-25700523D01*
X77573555Y-26380000D01*
X77567339Y-26380000D01*
X77465606Y-26407259D01*
X77374394Y-26459920D01*
X77299920Y-26534394D01*
X77247259Y-26625606D01*
X77220000Y-26727339D01*
X77220000Y-26733555D01*
X76540523Y-26054078D01*
X76508141Y-26098647D01*
X76508139Y-26098651D01*
X76415243Y-26280972D01*
X76352008Y-26475587D01*
X76320000Y-26677684D01*
X71098013Y-26677684D01*
X71073402Y-26522297D01*
X71073401Y-26522293D01*
X71019876Y-26357561D01*
X71019874Y-26357558D01*
X71019873Y-26357557D01*
X71019873Y-26357555D01*
X70941232Y-26203212D01*
X70839414Y-26063072D01*
X70716928Y-25940586D01*
X70576788Y-25838768D01*
X70576787Y-25838767D01*
X70576785Y-25838766D01*
X70422441Y-25760125D01*
X70422438Y-25760123D01*
X70257706Y-25706598D01*
X70257702Y-25706597D01*
X70086614Y-25679500D01*
X70086611Y-25679500D01*
X69913389Y-25679500D01*
X69913386Y-25679500D01*
X69742297Y-25706597D01*
X69742293Y-25706598D01*
X69577561Y-25760123D01*
X69577558Y-25760125D01*
X69423214Y-25838766D01*
X69283073Y-25940585D01*
X69160585Y-26063073D01*
X69058766Y-26203214D01*
X68980125Y-26357558D01*
X68980123Y-26357561D01*
X68926598Y-26522293D01*
X68926597Y-26522297D01*
X68899500Y-26693385D01*
X64010500Y-26693385D01*
X64010500Y-26609454D01*
X64010500Y-26609450D01*
X63982171Y-26430593D01*
X63982171Y-26430591D01*
X63926211Y-26258361D01*
X63843996Y-26097006D01*
X63737553Y-25950499D01*
X63609501Y-25822447D01*
X63462994Y-25716004D01*
X63462993Y-25716003D01*
X63462991Y-25716002D01*
X63301637Y-25633788D01*
X63129406Y-25577828D01*
X62950549Y-25549500D01*
X62950546Y-25549500D01*
X62769454Y-25549500D01*
X62769451Y-25549500D01*
X62590593Y-25577828D01*
X62418362Y-25633788D01*
X62257008Y-25716002D01*
X62183752Y-25769225D01*
X62110499Y-25822447D01*
X61982447Y-25950499D01*
X61933093Y-26018429D01*
X61876002Y-26097008D01*
X61793788Y-26258362D01*
X61737828Y-26430593D01*
X61709500Y-26609450D01*
X41150500Y-26609450D01*
X41122171Y-26430593D01*
X41122171Y-26430591D01*
X41066211Y-26258361D01*
X40983996Y-26097006D01*
X40877553Y-25950499D01*
X40749501Y-25822447D01*
X40602994Y-25716004D01*
X40602993Y-25716003D01*
X40602991Y-25716002D01*
X40441637Y-25633788D01*
X40269406Y-25577828D01*
X40090549Y-25549500D01*
X40090546Y-25549500D01*
X39909454Y-25549500D01*
X39909451Y-25549500D01*
X39730593Y-25577828D01*
X39558362Y-25633788D01*
X39397008Y-25716002D01*
X39323752Y-25769225D01*
X39250499Y-25822447D01*
X39122447Y-25950499D01*
X39073093Y-26018429D01*
X39016002Y-26097008D01*
X38933788Y-26258362D01*
X38877828Y-26430593D01*
X38849500Y-26609450D01*
X19505676Y-26609450D01*
X19457895Y-26462394D01*
X19357815Y-26265978D01*
X19228242Y-26087635D01*
X19072365Y-25931758D01*
X18894022Y-25802185D01*
X18894021Y-25802184D01*
X18894019Y-25802183D01*
X18726697Y-25716928D01*
X18697606Y-25702105D01*
X18697602Y-25702104D01*
X18697599Y-25702102D01*
X18487948Y-25633984D01*
X18270225Y-25599500D01*
X18270222Y-25599500D01*
X18049778Y-25599500D01*
X18049775Y-25599500D01*
X17832051Y-25633984D01*
X17622400Y-25702102D01*
X17425980Y-25802183D01*
X17374736Y-25839414D01*
X17247635Y-25931758D01*
X17091758Y-26087635D01*
X17077763Y-26106898D01*
X16962183Y-26265980D01*
X16862102Y-26462400D01*
X16793984Y-26672051D01*
X16759500Y-26889774D01*
X9400499Y-26889774D01*
X9400499Y-26106898D01*
X9389877Y-26018435D01*
X9334361Y-25877657D01*
X9242923Y-25757077D01*
X9122343Y-25665639D01*
X8981566Y-25610123D01*
X8893104Y-25599500D01*
X7106901Y-25599500D01*
X7106891Y-25599501D01*
X7018435Y-25610123D01*
X7018429Y-25610124D01*
X6877656Y-25665639D01*
X6757080Y-25757074D01*
X6757074Y-25757080D01*
X6665639Y-25877656D01*
X6610123Y-26018433D01*
X6599500Y-26106892D01*
X600000Y-26106892D01*
X600000Y-24913385D01*
X29899500Y-24913385D01*
X29899500Y-25086614D01*
X29926597Y-25257702D01*
X29926598Y-25257706D01*
X29980123Y-25422438D01*
X29980125Y-25422441D01*
X30057980Y-25575243D01*
X30058768Y-25576788D01*
X30160586Y-25716928D01*
X30283072Y-25839414D01*
X30423212Y-25941232D01*
X30577555Y-26019873D01*
X30577557Y-26019873D01*
X30577558Y-26019874D01*
X30577561Y-26019876D01*
X30742293Y-26073401D01*
X30742297Y-26073402D01*
X30913386Y-26100500D01*
X30913389Y-26100500D01*
X31086614Y-26100500D01*
X31257702Y-26073402D01*
X31257706Y-26073401D01*
X31422438Y-26019876D01*
X31422440Y-26019874D01*
X31422445Y-26019873D01*
X31576788Y-25941232D01*
X31716928Y-25839414D01*
X31839414Y-25716928D01*
X31941232Y-25576788D01*
X32019873Y-25422445D01*
X32019874Y-25422440D01*
X32019876Y-25422438D01*
X32073401Y-25257706D01*
X32073402Y-25257702D01*
X32100500Y-25086614D01*
X32100500Y-24913385D01*
X34899500Y-24913385D01*
X34899500Y-25086614D01*
X34926597Y-25257702D01*
X34926598Y-25257706D01*
X34980123Y-25422438D01*
X34980125Y-25422441D01*
X35057980Y-25575243D01*
X35058768Y-25576788D01*
X35160586Y-25716928D01*
X35283072Y-25839414D01*
X35423212Y-25941232D01*
X35577555Y-26019873D01*
X35577557Y-26019873D01*
X35577558Y-26019874D01*
X35577561Y-26019876D01*
X35742293Y-26073401D01*
X35742297Y-26073402D01*
X35913386Y-26100500D01*
X35913389Y-26100500D01*
X36086614Y-26100500D01*
X36257702Y-26073402D01*
X36257706Y-26073401D01*
X36422438Y-26019876D01*
X36422440Y-26019874D01*
X36422445Y-26019873D01*
X36576788Y-25941232D01*
X36716928Y-25839414D01*
X36839414Y-25716928D01*
X36941232Y-25576788D01*
X37019873Y-25422445D01*
X37019874Y-25422440D01*
X37019876Y-25422438D01*
X37073401Y-25257706D01*
X37073402Y-25257702D01*
X37100500Y-25086614D01*
X37100500Y-24913385D01*
X37073402Y-24742297D01*
X37073401Y-24742293D01*
X37019876Y-24577561D01*
X37019874Y-24577558D01*
X37019873Y-24577557D01*
X37019873Y-24577555D01*
X36941232Y-24423212D01*
X36839414Y-24283072D01*
X36716928Y-24160586D01*
X36716924Y-24160583D01*
X36716923Y-24160582D01*
X36696380Y-24145657D01*
X36696379Y-24145656D01*
X36591491Y-24069450D01*
X38849500Y-24069450D01*
X38849500Y-24250549D01*
X38877828Y-24429406D01*
X38933788Y-24601637D01*
X38997113Y-24725920D01*
X39016004Y-24762994D01*
X39122447Y-24909501D01*
X39250499Y-25037553D01*
X39397006Y-25143996D01*
X39558361Y-25226211D01*
X39730591Y-25282171D01*
X39802136Y-25293502D01*
X39909451Y-25310500D01*
X39909454Y-25310500D01*
X40090549Y-25310500D01*
X40179977Y-25296335D01*
X40269409Y-25282171D01*
X40441639Y-25226211D01*
X40602994Y-25143996D01*
X40749501Y-25037553D01*
X40877553Y-24909501D01*
X40983996Y-24762994D01*
X41066211Y-24601639D01*
X41122171Y-24429409D01*
X41139487Y-24320080D01*
X41150500Y-24250549D01*
X41150500Y-24069450D01*
X61709500Y-24069450D01*
X61709500Y-24250549D01*
X61737828Y-24429406D01*
X61793788Y-24601637D01*
X61857113Y-24725920D01*
X61876004Y-24762994D01*
X61982447Y-24909501D01*
X62110499Y-25037553D01*
X62257006Y-25143996D01*
X62418361Y-25226211D01*
X62590591Y-25282171D01*
X62662136Y-25293502D01*
X62769451Y-25310500D01*
X62769454Y-25310500D01*
X62950549Y-25310500D01*
X63039977Y-25296335D01*
X63129409Y-25282171D01*
X63301639Y-25226211D01*
X63462994Y-25143996D01*
X63609501Y-25037553D01*
X63737553Y-24909501D01*
X63843996Y-24762994D01*
X63926211Y-24601639D01*
X63982171Y-24429409D01*
X63999487Y-24320080D01*
X64010500Y-24250549D01*
X64010500Y-24153385D01*
X68899500Y-24153385D01*
X68899500Y-24326614D01*
X68926597Y-24497702D01*
X68926598Y-24497706D01*
X68980123Y-24662438D01*
X68980125Y-24662441D01*
X68980126Y-24662444D01*
X68980127Y-24662445D01*
X69058768Y-24816788D01*
X69160586Y-24956928D01*
X69283072Y-25079414D01*
X69423212Y-25181232D01*
X69577555Y-25259873D01*
X69577557Y-25259873D01*
X69577558Y-25259874D01*
X69577561Y-25259876D01*
X69742293Y-25313401D01*
X69742297Y-25313402D01*
X69913386Y-25340500D01*
X69913389Y-25340500D01*
X70086614Y-25340500D01*
X70257702Y-25313402D01*
X70257706Y-25313401D01*
X70422438Y-25259876D01*
X70422440Y-25259874D01*
X70422445Y-25259873D01*
X70576788Y-25181232D01*
X70716928Y-25079414D01*
X70839414Y-24956928D01*
X70941232Y-24816788D01*
X71019873Y-24662445D01*
X71019874Y-24662440D01*
X71019876Y-24662438D01*
X71073401Y-24497706D01*
X71073402Y-24497702D01*
X71100500Y-24326614D01*
X71100500Y-24153385D01*
X71073402Y-23982297D01*
X71073401Y-23982293D01*
X71019876Y-23817561D01*
X71019874Y-23817558D01*
X71019873Y-23817557D01*
X71019873Y-23817555D01*
X70941232Y-23663212D01*
X70839414Y-23523072D01*
X70716928Y-23400586D01*
X70576788Y-23298768D01*
X70576787Y-23298767D01*
X70576785Y-23298766D01*
X70422441Y-23220125D01*
X70422438Y-23220123D01*
X70257706Y-23166598D01*
X70257702Y-23166597D01*
X70086614Y-23139500D01*
X70086611Y-23139500D01*
X69913389Y-23139500D01*
X69913386Y-23139500D01*
X69742297Y-23166597D01*
X69742293Y-23166598D01*
X69577561Y-23220123D01*
X69577558Y-23220125D01*
X69423214Y-23298766D01*
X69283073Y-23400585D01*
X69160585Y-23523073D01*
X69058766Y-23663214D01*
X68980125Y-23817558D01*
X68980123Y-23817561D01*
X68926598Y-23982293D01*
X68926597Y-23982297D01*
X68899500Y-24153385D01*
X64010500Y-24153385D01*
X64010500Y-24069450D01*
X63987874Y-23926597D01*
X63982171Y-23890591D01*
X63926211Y-23718361D01*
X63843996Y-23557006D01*
X63737553Y-23410499D01*
X63609501Y-23282447D01*
X63462994Y-23176004D01*
X63462993Y-23176003D01*
X63462991Y-23176002D01*
X63301637Y-23093788D01*
X63174286Y-23052410D01*
X63129406Y-23037828D01*
X62950549Y-23009500D01*
X62950546Y-23009500D01*
X62769454Y-23009500D01*
X62769451Y-23009500D01*
X62590593Y-23037828D01*
X62418362Y-23093788D01*
X62257008Y-23176002D01*
X62183752Y-23229225D01*
X62110499Y-23282447D01*
X61982447Y-23410499D01*
X61929225Y-23483752D01*
X61876002Y-23557008D01*
X61793788Y-23718362D01*
X61737828Y-23890593D01*
X61709500Y-24069450D01*
X41150500Y-24069450D01*
X41127874Y-23926597D01*
X41122171Y-23890591D01*
X41066211Y-23718361D01*
X40983996Y-23557006D01*
X40877553Y-23410499D01*
X40749501Y-23282447D01*
X40602994Y-23176004D01*
X40602993Y-23176003D01*
X40602991Y-23176002D01*
X40441637Y-23093788D01*
X40269406Y-23037828D01*
X40090549Y-23009500D01*
X40090546Y-23009500D01*
X39909454Y-23009500D01*
X39909451Y-23009500D01*
X39730593Y-23037828D01*
X39558362Y-23093788D01*
X39397008Y-23176002D01*
X39323752Y-23229225D01*
X39250499Y-23282447D01*
X39122447Y-23410499D01*
X39069225Y-23483752D01*
X39016002Y-23557008D01*
X38933788Y-23718362D01*
X38877828Y-23890593D01*
X38849500Y-24069450D01*
X36591491Y-24069450D01*
X36576793Y-24058771D01*
X36576787Y-24058767D01*
X36422441Y-23980125D01*
X36422438Y-23980123D01*
X36257706Y-23926598D01*
X36257702Y-23926597D01*
X36086614Y-23899500D01*
X36086611Y-23899500D01*
X35913389Y-23899500D01*
X35913386Y-23899500D01*
X35742297Y-23926597D01*
X35742293Y-23926598D01*
X35577561Y-23980123D01*
X35577558Y-23980125D01*
X35423214Y-24058766D01*
X35283073Y-24160585D01*
X35160585Y-24283073D01*
X35058766Y-24423214D01*
X34980125Y-24577558D01*
X34980123Y-24577561D01*
X34926598Y-24742293D01*
X34926597Y-24742297D01*
X34899500Y-24913385D01*
X32100500Y-24913385D01*
X32073402Y-24742297D01*
X32073401Y-24742293D01*
X32019876Y-24577561D01*
X32019874Y-24577558D01*
X32019873Y-24577557D01*
X32019873Y-24577555D01*
X31941232Y-24423212D01*
X31839414Y-24283072D01*
X31716928Y-24160586D01*
X31576788Y-24058768D01*
X31576787Y-24058767D01*
X31576785Y-24058766D01*
X31422441Y-23980125D01*
X31422438Y-23980123D01*
X31257706Y-23926598D01*
X31257702Y-23926597D01*
X31086614Y-23899500D01*
X31086611Y-23899500D01*
X30913389Y-23899500D01*
X30913386Y-23899500D01*
X30742297Y-23926597D01*
X30742293Y-23926598D01*
X30577561Y-23980123D01*
X30577558Y-23980125D01*
X30423214Y-24058766D01*
X30283073Y-24160585D01*
X30160585Y-24283073D01*
X30058766Y-24423214D01*
X29980125Y-24577558D01*
X29980123Y-24577561D01*
X29926598Y-24742293D01*
X29926597Y-24742297D01*
X29899500Y-24913385D01*
X600000Y-24913385D01*
X600000Y-21529450D01*
X38849500Y-21529450D01*
X38849500Y-21710549D01*
X38877828Y-21889406D01*
X38877829Y-21889409D01*
X38933789Y-22061639D01*
X39016004Y-22222994D01*
X39122447Y-22369501D01*
X39250499Y-22497553D01*
X39397006Y-22603996D01*
X39558361Y-22686211D01*
X39730591Y-22742171D01*
X39802136Y-22753502D01*
X39909451Y-22770500D01*
X39909454Y-22770500D01*
X40090549Y-22770500D01*
X40179977Y-22756335D01*
X40269409Y-22742171D01*
X40441639Y-22686211D01*
X40602994Y-22603996D01*
X40749501Y-22497553D01*
X40877553Y-22369501D01*
X40983996Y-22222994D01*
X41066211Y-22061639D01*
X41122171Y-21889409D01*
X41150500Y-21710546D01*
X41150500Y-21529454D01*
X41150500Y-21529450D01*
X61709500Y-21529450D01*
X61709500Y-21710549D01*
X61737828Y-21889406D01*
X61737829Y-21889409D01*
X61793789Y-22061639D01*
X61876004Y-22222994D01*
X61982447Y-22369501D01*
X62110499Y-22497553D01*
X62257006Y-22603996D01*
X62418361Y-22686211D01*
X62590591Y-22742171D01*
X62662136Y-22753502D01*
X62769451Y-22770500D01*
X62769454Y-22770500D01*
X62950549Y-22770500D01*
X63039977Y-22756335D01*
X63129409Y-22742171D01*
X63301639Y-22686211D01*
X63462994Y-22603996D01*
X63609501Y-22497553D01*
X63737553Y-22369501D01*
X63843996Y-22222994D01*
X63926211Y-22061639D01*
X63982171Y-21889409D01*
X64010500Y-21710546D01*
X64010500Y-21613385D01*
X68899500Y-21613385D01*
X68899500Y-21786614D01*
X68926597Y-21957702D01*
X68926598Y-21957706D01*
X68980123Y-22122438D01*
X68980125Y-22122441D01*
X68980126Y-22122444D01*
X68980127Y-22122445D01*
X69058768Y-22276788D01*
X69160586Y-22416928D01*
X69283072Y-22539414D01*
X69423212Y-22641232D01*
X69577555Y-22719873D01*
X69577557Y-22719873D01*
X69577558Y-22719874D01*
X69577561Y-22719876D01*
X69742293Y-22773401D01*
X69742297Y-22773402D01*
X69913386Y-22800500D01*
X69913389Y-22800500D01*
X70086614Y-22800500D01*
X70257702Y-22773402D01*
X70257706Y-22773401D01*
X70422438Y-22719876D01*
X70422440Y-22719874D01*
X70422445Y-22719873D01*
X70576788Y-22641232D01*
X70716928Y-22539414D01*
X70839414Y-22416928D01*
X70941232Y-22276788D01*
X71019873Y-22122445D01*
X71019874Y-22122440D01*
X71019876Y-22122438D01*
X71073401Y-21957706D01*
X71073402Y-21957702D01*
X71100500Y-21786614D01*
X71100500Y-21613385D01*
X76519500Y-21613385D01*
X76519500Y-21786614D01*
X76546597Y-21957702D01*
X76546598Y-21957706D01*
X76600123Y-22122438D01*
X76600125Y-22122441D01*
X76600126Y-22122444D01*
X76600127Y-22122445D01*
X76678768Y-22276788D01*
X76780586Y-22416928D01*
X76903072Y-22539414D01*
X77043212Y-22641232D01*
X77197555Y-22719873D01*
X77197557Y-22719873D01*
X77197558Y-22719874D01*
X77197561Y-22719876D01*
X77362293Y-22773401D01*
X77362297Y-22773402D01*
X77533386Y-22800500D01*
X77533389Y-22800500D01*
X77706614Y-22800500D01*
X77877702Y-22773402D01*
X77877706Y-22773401D01*
X78042438Y-22719876D01*
X78042440Y-22719874D01*
X78042445Y-22719873D01*
X78196788Y-22641232D01*
X78336928Y-22539414D01*
X78459414Y-22416928D01*
X78561232Y-22276788D01*
X78639873Y-22122445D01*
X78639874Y-22122440D01*
X78639876Y-22122438D01*
X78693401Y-21957706D01*
X78693402Y-21957702D01*
X78720500Y-21786614D01*
X78720500Y-21613385D01*
X78693402Y-21442297D01*
X78693401Y-21442293D01*
X78639876Y-21277561D01*
X78639874Y-21277558D01*
X78639873Y-21277557D01*
X78639873Y-21277555D01*
X78561232Y-21123212D01*
X78459414Y-20983072D01*
X78336928Y-20860586D01*
X78196788Y-20758768D01*
X78196787Y-20758767D01*
X78196785Y-20758766D01*
X78042441Y-20680125D01*
X78042438Y-20680123D01*
X77877706Y-20626598D01*
X77877702Y-20626597D01*
X77706614Y-20599500D01*
X77706611Y-20599500D01*
X77533389Y-20599500D01*
X77533386Y-20599500D01*
X77362297Y-20626597D01*
X77362293Y-20626598D01*
X77197561Y-20680123D01*
X77197558Y-20680125D01*
X77043214Y-20758766D01*
X76903073Y-20860585D01*
X76780585Y-20983073D01*
X76678766Y-21123214D01*
X76600125Y-21277558D01*
X76600123Y-21277561D01*
X76546598Y-21442293D01*
X76546597Y-21442297D01*
X76519500Y-21613385D01*
X71100500Y-21613385D01*
X71073402Y-21442297D01*
X71073401Y-21442293D01*
X71019876Y-21277561D01*
X71019874Y-21277558D01*
X71019873Y-21277557D01*
X71019873Y-21277555D01*
X70941232Y-21123212D01*
X70839414Y-20983072D01*
X70716928Y-20860586D01*
X70576788Y-20758768D01*
X70576787Y-20758767D01*
X70576785Y-20758766D01*
X70422441Y-20680125D01*
X70422438Y-20680123D01*
X70257706Y-20626598D01*
X70257702Y-20626597D01*
X70086614Y-20599500D01*
X70086611Y-20599500D01*
X69913389Y-20599500D01*
X69913386Y-20599500D01*
X69742297Y-20626597D01*
X69742293Y-20626598D01*
X69577561Y-20680123D01*
X69577558Y-20680125D01*
X69423214Y-20758766D01*
X69283073Y-20860585D01*
X69160585Y-20983073D01*
X69058766Y-21123214D01*
X68980125Y-21277558D01*
X68980123Y-21277561D01*
X68926598Y-21442293D01*
X68926597Y-21442297D01*
X68899500Y-21613385D01*
X64010500Y-21613385D01*
X64010500Y-21529454D01*
X64010500Y-21529450D01*
X63982171Y-21350593D01*
X63982171Y-21350591D01*
X63926211Y-21178361D01*
X63843996Y-21017006D01*
X63737553Y-20870499D01*
X63609501Y-20742447D01*
X63462994Y-20636004D01*
X63462993Y-20636003D01*
X63462991Y-20636002D01*
X63301637Y-20553788D01*
X63129406Y-20497828D01*
X62950549Y-20469500D01*
X62950546Y-20469500D01*
X62769454Y-20469500D01*
X62769451Y-20469500D01*
X62590593Y-20497828D01*
X62418362Y-20553788D01*
X62257008Y-20636002D01*
X62183752Y-20689225D01*
X62110499Y-20742447D01*
X61982447Y-20870499D01*
X61929225Y-20943752D01*
X61876002Y-21017008D01*
X61793788Y-21178362D01*
X61737828Y-21350593D01*
X61709500Y-21529450D01*
X41150500Y-21529450D01*
X41122171Y-21350593D01*
X41122171Y-21350591D01*
X41066211Y-21178361D01*
X40983996Y-21017006D01*
X40877553Y-20870499D01*
X40749501Y-20742447D01*
X40602994Y-20636004D01*
X40602993Y-20636003D01*
X40602991Y-20636002D01*
X40441637Y-20553788D01*
X40269406Y-20497828D01*
X40090549Y-20469500D01*
X40090546Y-20469500D01*
X39909454Y-20469500D01*
X39909451Y-20469500D01*
X39730593Y-20497828D01*
X39558362Y-20553788D01*
X39397008Y-20636002D01*
X39323752Y-20689225D01*
X39250499Y-20742447D01*
X39122447Y-20870499D01*
X39069225Y-20943752D01*
X39016002Y-21017008D01*
X38933788Y-21178362D01*
X38877828Y-21350593D01*
X38849500Y-21529450D01*
X600000Y-21529450D01*
X600000Y-18989450D01*
X38849500Y-18989450D01*
X38849500Y-19170549D01*
X38877828Y-19349406D01*
X38914030Y-19460828D01*
X38933789Y-19521639D01*
X39016004Y-19682994D01*
X39122447Y-19829501D01*
X39250499Y-19957553D01*
X39397006Y-20063996D01*
X39558361Y-20146211D01*
X39730591Y-20202171D01*
X39802136Y-20213502D01*
X39909451Y-20230500D01*
X39909454Y-20230500D01*
X40090549Y-20230500D01*
X40179977Y-20216335D01*
X40269409Y-20202171D01*
X40441639Y-20146211D01*
X40602994Y-20063996D01*
X40749501Y-19957553D01*
X40877553Y-19829501D01*
X40983996Y-19682994D01*
X41066211Y-19521639D01*
X41122171Y-19349409D01*
X41150500Y-19170546D01*
X41150500Y-18989454D01*
X41150500Y-18989450D01*
X61709500Y-18989450D01*
X61709500Y-19170549D01*
X61737828Y-19349406D01*
X61774030Y-19460828D01*
X61793789Y-19521639D01*
X61876004Y-19682994D01*
X61982447Y-19829501D01*
X62110499Y-19957553D01*
X62257006Y-20063996D01*
X62418361Y-20146211D01*
X62590591Y-20202171D01*
X62662136Y-20213502D01*
X62769451Y-20230500D01*
X62769454Y-20230500D01*
X62950549Y-20230500D01*
X63039977Y-20216335D01*
X63129409Y-20202171D01*
X63301639Y-20146211D01*
X63462994Y-20063996D01*
X63609501Y-19957553D01*
X63737553Y-19829501D01*
X63843996Y-19682994D01*
X63926211Y-19521639D01*
X63982171Y-19349409D01*
X64010500Y-19170546D01*
X64010500Y-19073385D01*
X68899500Y-19073385D01*
X68899500Y-19246614D01*
X68926597Y-19417702D01*
X68926598Y-19417706D01*
X68980123Y-19582438D01*
X68980125Y-19582441D01*
X68980126Y-19582444D01*
X68980127Y-19582445D01*
X69058768Y-19736788D01*
X69160586Y-19876928D01*
X69283072Y-19999414D01*
X69423212Y-20101232D01*
X69577555Y-20179873D01*
X69577557Y-20179873D01*
X69577558Y-20179874D01*
X69577561Y-20179876D01*
X69742293Y-20233401D01*
X69742297Y-20233402D01*
X69913386Y-20260500D01*
X69913389Y-20260500D01*
X70086614Y-20260500D01*
X70257702Y-20233402D01*
X70257706Y-20233401D01*
X70422438Y-20179876D01*
X70422440Y-20179874D01*
X70422445Y-20179873D01*
X70576788Y-20101232D01*
X70716928Y-19999414D01*
X70839414Y-19876928D01*
X70941232Y-19736788D01*
X71019873Y-19582445D01*
X71019874Y-19582440D01*
X71019876Y-19582438D01*
X71073401Y-19417706D01*
X71073402Y-19417702D01*
X71100500Y-19246614D01*
X71100500Y-19073385D01*
X76519500Y-19073385D01*
X76519500Y-19246614D01*
X76546597Y-19417702D01*
X76546598Y-19417706D01*
X76600123Y-19582438D01*
X76600125Y-19582441D01*
X76600126Y-19582444D01*
X76600127Y-19582445D01*
X76678768Y-19736788D01*
X76780586Y-19876928D01*
X76903072Y-19999414D01*
X77043212Y-20101232D01*
X77197555Y-20179873D01*
X77197557Y-20179873D01*
X77197558Y-20179874D01*
X77197561Y-20179876D01*
X77362293Y-20233401D01*
X77362297Y-20233402D01*
X77533386Y-20260500D01*
X77533389Y-20260500D01*
X77706614Y-20260500D01*
X77877702Y-20233402D01*
X77877706Y-20233401D01*
X78042438Y-20179876D01*
X78042440Y-20179874D01*
X78042445Y-20179873D01*
X78196788Y-20101232D01*
X78336928Y-19999414D01*
X78459414Y-19876928D01*
X78561232Y-19736788D01*
X78639873Y-19582445D01*
X78639874Y-19582440D01*
X78639876Y-19582438D01*
X78693401Y-19417706D01*
X78693402Y-19417702D01*
X78720500Y-19246614D01*
X78720500Y-19073385D01*
X78693402Y-18902297D01*
X78693401Y-18902293D01*
X78639876Y-18737561D01*
X78639874Y-18737558D01*
X78639873Y-18737557D01*
X78639873Y-18737555D01*
X78561232Y-18583212D01*
X78459414Y-18443072D01*
X78336928Y-18320586D01*
X78196788Y-18218768D01*
X78196787Y-18218767D01*
X78196785Y-18218766D01*
X78043150Y-18140486D01*
X78043149Y-18140485D01*
X78042444Y-18140126D01*
X78042438Y-18140123D01*
X77877706Y-18086598D01*
X77877702Y-18086597D01*
X77706614Y-18059500D01*
X77706611Y-18059500D01*
X77533389Y-18059500D01*
X77533386Y-18059500D01*
X77362297Y-18086597D01*
X77362293Y-18086598D01*
X77197561Y-18140123D01*
X77197558Y-18140125D01*
X77043214Y-18218766D01*
X76903073Y-18320585D01*
X76780585Y-18443073D01*
X76678766Y-18583214D01*
X76600125Y-18737558D01*
X76600123Y-18737561D01*
X76546598Y-18902293D01*
X76546597Y-18902297D01*
X76519500Y-19073385D01*
X71100500Y-19073385D01*
X71073402Y-18902297D01*
X71073401Y-18902293D01*
X71019876Y-18737561D01*
X71019874Y-18737558D01*
X71019873Y-18737557D01*
X71019873Y-18737555D01*
X70941232Y-18583212D01*
X70839414Y-18443072D01*
X70716928Y-18320586D01*
X70576788Y-18218768D01*
X70576787Y-18218767D01*
X70576785Y-18218766D01*
X70422441Y-18140125D01*
X70422438Y-18140123D01*
X70257706Y-18086598D01*
X70257702Y-18086597D01*
X70086614Y-18059500D01*
X70086611Y-18059500D01*
X69913389Y-18059500D01*
X69913386Y-18059500D01*
X69742297Y-18086597D01*
X69742293Y-18086598D01*
X69577561Y-18140123D01*
X69577558Y-18140125D01*
X69423214Y-18218766D01*
X69283073Y-18320585D01*
X69160585Y-18443073D01*
X69058766Y-18583214D01*
X68980125Y-18737558D01*
X68980123Y-18737561D01*
X68926598Y-18902293D01*
X68926597Y-18902297D01*
X68899500Y-19073385D01*
X64010500Y-19073385D01*
X64010500Y-18989454D01*
X64010500Y-18989450D01*
X63982171Y-18810593D01*
X63982171Y-18810591D01*
X63926211Y-18638361D01*
X63843996Y-18477006D01*
X63737553Y-18330499D01*
X63609501Y-18202447D01*
X63462994Y-18096004D01*
X63462993Y-18096003D01*
X63462991Y-18096002D01*
X63382775Y-18055130D01*
X90799500Y-18055130D01*
X90799500Y-19944860D01*
X90799501Y-19944863D01*
X90802414Y-19969990D01*
X90815406Y-19999414D01*
X90847794Y-20072765D01*
X90927235Y-20152206D01*
X91030009Y-20197585D01*
X91055135Y-20200500D01*
X92944864Y-20200499D01*
X92969991Y-20197585D01*
X93072765Y-20152206D01*
X93152206Y-20072765D01*
X93197585Y-19969991D01*
X93200500Y-19944865D01*
X93200499Y-19387401D01*
X93219406Y-19329213D01*
X93268906Y-19293249D01*
X93330092Y-19293249D01*
X93379592Y-19329213D01*
X93393653Y-19356811D01*
X93427449Y-19460825D01*
X93427451Y-19460828D01*
X93489417Y-19582445D01*
X93513240Y-19629199D01*
X93624310Y-19782073D01*
X93757927Y-19915690D01*
X93910801Y-20026760D01*
X94079168Y-20112547D01*
X94258882Y-20170940D01*
X94258883Y-20170940D01*
X94258886Y-20170941D01*
X94445516Y-20200500D01*
X94445519Y-20200500D01*
X94634484Y-20200500D01*
X94821113Y-20170941D01*
X94821114Y-20170940D01*
X94821118Y-20170940D01*
X95000832Y-20112547D01*
X95169199Y-20026760D01*
X95322073Y-19915690D01*
X95455690Y-19782073D01*
X95566760Y-19629199D01*
X95652547Y-19460832D01*
X95710940Y-19281118D01*
X95716405Y-19246614D01*
X95740500Y-19094484D01*
X95740500Y-18905515D01*
X95710941Y-18718886D01*
X95710940Y-18718882D01*
X95652547Y-18539168D01*
X95566760Y-18370801D01*
X95455690Y-18217927D01*
X95322073Y-18084310D01*
X95169199Y-17973240D01*
X95169198Y-17973239D01*
X95169196Y-17973238D01*
X95000832Y-17887453D01*
X94821113Y-17829058D01*
X94634484Y-17799500D01*
X94634481Y-17799500D01*
X94445519Y-17799500D01*
X94445516Y-17799500D01*
X94258886Y-17829058D01*
X94079167Y-17887453D01*
X93910803Y-17973238D01*
X93757928Y-18084309D01*
X93624309Y-18217928D01*
X93513238Y-18370803D01*
X93427451Y-18539171D01*
X93427449Y-18539174D01*
X93393653Y-18643189D01*
X93357689Y-18692689D01*
X93299498Y-18711596D01*
X93241308Y-18692688D01*
X93205344Y-18643188D01*
X93200499Y-18612596D01*
X93200499Y-18055139D01*
X93200499Y-18055136D01*
X93197585Y-18030009D01*
X93152206Y-17927235D01*
X93072765Y-17847794D01*
X92969991Y-17802415D01*
X92969990Y-17802414D01*
X92969988Y-17802414D01*
X92944868Y-17799500D01*
X91055139Y-17799500D01*
X91055136Y-17799501D01*
X91030009Y-17802414D01*
X90927235Y-17847794D01*
X90847794Y-17927235D01*
X90802414Y-18030011D01*
X90799500Y-18055130D01*
X63382775Y-18055130D01*
X63301637Y-18013788D01*
X63129406Y-17957828D01*
X62950549Y-17929500D01*
X62950546Y-17929500D01*
X62769454Y-17929500D01*
X62769451Y-17929500D01*
X62590593Y-17957828D01*
X62418362Y-18013788D01*
X62257008Y-18096002D01*
X62195783Y-18140485D01*
X62110499Y-18202447D01*
X61982447Y-18330499D01*
X61953166Y-18370801D01*
X61876002Y-18477008D01*
X61793788Y-18638362D01*
X61737828Y-18810593D01*
X61709500Y-18989450D01*
X41150500Y-18989450D01*
X41122171Y-18810593D01*
X41122171Y-18810591D01*
X41066211Y-18638361D01*
X40983996Y-18477006D01*
X40877553Y-18330499D01*
X40749501Y-18202447D01*
X40602994Y-18096004D01*
X40602993Y-18096003D01*
X40602991Y-18096002D01*
X40441637Y-18013788D01*
X40269406Y-17957828D01*
X40090549Y-17929500D01*
X40090546Y-17929500D01*
X39909454Y-17929500D01*
X39909451Y-17929500D01*
X39730593Y-17957828D01*
X39558362Y-18013788D01*
X39397008Y-18096002D01*
X39335783Y-18140485D01*
X39250499Y-18202447D01*
X39122447Y-18330499D01*
X39093166Y-18370801D01*
X39016002Y-18477008D01*
X38933788Y-18638362D01*
X38877828Y-18810593D01*
X38849500Y-18989450D01*
X600000Y-18989450D01*
X600000Y-14906893D01*
X6399500Y-14906893D01*
X6399500Y-17093106D01*
X6410123Y-17181565D01*
X6465637Y-17322339D01*
X6465638Y-17322341D01*
X6465639Y-17322342D01*
X6557078Y-17442922D01*
X6677658Y-17534361D01*
X6677659Y-17534361D01*
X6677660Y-17534362D01*
X6745438Y-17561090D01*
X6818436Y-17589877D01*
X6906898Y-17600500D01*
X6906900Y-17600500D01*
X9093100Y-17600500D01*
X9093102Y-17600500D01*
X9181564Y-17589877D01*
X9322342Y-17534361D01*
X9442922Y-17442922D01*
X9534361Y-17322342D01*
X9589877Y-17181564D01*
X9600500Y-17093102D01*
X9600500Y-15874034D01*
X11479500Y-15874034D01*
X11479500Y-16125965D01*
X11518908Y-16374780D01*
X11596759Y-16614379D01*
X11696131Y-16809409D01*
X11711130Y-16838845D01*
X11859207Y-17042656D01*
X12037344Y-17220793D01*
X12241155Y-17368870D01*
X12465621Y-17483241D01*
X12705215Y-17561090D01*
X12705216Y-17561090D01*
X12705219Y-17561091D01*
X12954035Y-17600500D01*
X12954038Y-17600500D01*
X13205965Y-17600500D01*
X13454780Y-17561091D01*
X13454781Y-17561090D01*
X13454785Y-17561090D01*
X13694379Y-17483241D01*
X13918845Y-17368870D01*
X14122656Y-17220793D01*
X14300793Y-17042656D01*
X14448870Y-16838845D01*
X14563241Y-16614379D01*
X14616830Y-16449450D01*
X38849500Y-16449450D01*
X38849500Y-16630549D01*
X38877828Y-16809406D01*
X38933788Y-16981637D01*
X38990584Y-17093106D01*
X39016004Y-17142994D01*
X39122447Y-17289501D01*
X39250499Y-17417553D01*
X39397006Y-17523996D01*
X39558361Y-17606211D01*
X39730591Y-17662171D01*
X39802136Y-17673502D01*
X39909451Y-17690500D01*
X39909454Y-17690500D01*
X40090549Y-17690500D01*
X40179977Y-17676335D01*
X40269409Y-17662171D01*
X40441639Y-17606211D01*
X40602994Y-17523996D01*
X40749501Y-17417553D01*
X40877553Y-17289501D01*
X40983996Y-17142994D01*
X41066211Y-16981639D01*
X41122171Y-16809409D01*
X41150500Y-16630546D01*
X41150500Y-16449454D01*
X41150500Y-16449450D01*
X61709500Y-16449450D01*
X61709500Y-16630549D01*
X61737828Y-16809406D01*
X61793788Y-16981637D01*
X61850584Y-17093106D01*
X61876004Y-17142994D01*
X61982447Y-17289501D01*
X62110499Y-17417553D01*
X62257006Y-17523996D01*
X62418361Y-17606211D01*
X62590591Y-17662171D01*
X62662136Y-17673502D01*
X62769451Y-17690500D01*
X62769454Y-17690500D01*
X62950549Y-17690500D01*
X63039977Y-17676335D01*
X63129409Y-17662171D01*
X63301639Y-17606211D01*
X63462994Y-17523996D01*
X63609501Y-17417553D01*
X63737553Y-17289501D01*
X63843996Y-17142994D01*
X63926211Y-16981639D01*
X63982171Y-16809409D01*
X64010500Y-16630546D01*
X64010500Y-16533385D01*
X68899500Y-16533385D01*
X68899500Y-16706614D01*
X68926597Y-16877702D01*
X68926598Y-16877706D01*
X68980123Y-17042438D01*
X68980125Y-17042441D01*
X68980126Y-17042444D01*
X68980127Y-17042445D01*
X68980235Y-17042656D01*
X69051011Y-17181565D01*
X69058768Y-17196788D01*
X69160586Y-17336928D01*
X69283072Y-17459414D01*
X69423212Y-17561232D01*
X69577555Y-17639873D01*
X69577557Y-17639873D01*
X69577558Y-17639874D01*
X69577561Y-17639876D01*
X69742293Y-17693401D01*
X69742297Y-17693402D01*
X69913386Y-17720500D01*
X69913389Y-17720500D01*
X70086614Y-17720500D01*
X70257702Y-17693402D01*
X70257706Y-17693401D01*
X70422438Y-17639876D01*
X70422440Y-17639874D01*
X70422445Y-17639873D01*
X70576788Y-17561232D01*
X70716928Y-17459414D01*
X70839414Y-17336928D01*
X70941232Y-17196788D01*
X71019873Y-17042445D01*
X71019874Y-17042440D01*
X71019876Y-17042438D01*
X71073401Y-16877706D01*
X71073402Y-16877702D01*
X71100500Y-16706614D01*
X71100500Y-16533385D01*
X76519500Y-16533385D01*
X76519500Y-16706614D01*
X76546597Y-16877702D01*
X76546598Y-16877706D01*
X76600123Y-17042438D01*
X76600125Y-17042441D01*
X76600126Y-17042444D01*
X76600127Y-17042445D01*
X76600235Y-17042656D01*
X76671011Y-17181565D01*
X76678768Y-17196788D01*
X76780586Y-17336928D01*
X76903072Y-17459414D01*
X77043212Y-17561232D01*
X77197555Y-17639873D01*
X77197557Y-17639873D01*
X77197558Y-17639874D01*
X77197561Y-17639876D01*
X77362293Y-17693401D01*
X77362297Y-17693402D01*
X77533386Y-17720500D01*
X77533389Y-17720500D01*
X77706614Y-17720500D01*
X77877702Y-17693402D01*
X77877706Y-17693401D01*
X78042438Y-17639876D01*
X78042440Y-17639874D01*
X78042445Y-17639873D01*
X78196788Y-17561232D01*
X78336928Y-17459414D01*
X78459414Y-17336928D01*
X78561232Y-17196788D01*
X78639873Y-17042445D01*
X78639874Y-17042440D01*
X78639876Y-17042438D01*
X78693401Y-16877706D01*
X78693402Y-16877702D01*
X78720500Y-16706614D01*
X78720500Y-16533385D01*
X78693402Y-16362297D01*
X78693401Y-16362293D01*
X78639876Y-16197561D01*
X78639874Y-16197558D01*
X78639873Y-16197557D01*
X78639873Y-16197555D01*
X78561232Y-16043212D01*
X78459414Y-15903072D01*
X78336928Y-15780586D01*
X78196788Y-15678768D01*
X78196787Y-15678767D01*
X78196785Y-15678766D01*
X78042441Y-15600125D01*
X78042438Y-15600123D01*
X77877706Y-15546598D01*
X77877702Y-15546597D01*
X77706614Y-15519500D01*
X77706611Y-15519500D01*
X77533389Y-15519500D01*
X77533386Y-15519500D01*
X77362297Y-15546597D01*
X77362293Y-15546598D01*
X77197561Y-15600123D01*
X77197558Y-15600125D01*
X77043214Y-15678766D01*
X76903073Y-15780585D01*
X76780585Y-15903073D01*
X76678766Y-16043214D01*
X76600125Y-16197558D01*
X76600123Y-16197561D01*
X76546598Y-16362293D01*
X76546597Y-16362297D01*
X76519500Y-16533385D01*
X71100500Y-16533385D01*
X71073402Y-16362297D01*
X71073401Y-16362293D01*
X71019876Y-16197561D01*
X71019874Y-16197558D01*
X71019873Y-16197557D01*
X71019873Y-16197555D01*
X70941232Y-16043212D01*
X70839414Y-15903072D01*
X70716928Y-15780586D01*
X70576788Y-15678768D01*
X70576787Y-15678767D01*
X70576785Y-15678766D01*
X70422441Y-15600125D01*
X70422438Y-15600123D01*
X70257706Y-15546598D01*
X70257702Y-15546597D01*
X70086614Y-15519500D01*
X70086611Y-15519500D01*
X69913389Y-15519500D01*
X69913386Y-15519500D01*
X69742297Y-15546597D01*
X69742293Y-15546598D01*
X69577561Y-15600123D01*
X69577558Y-15600125D01*
X69423214Y-15678766D01*
X69283073Y-15780585D01*
X69160585Y-15903073D01*
X69058766Y-16043214D01*
X68980125Y-16197558D01*
X68980123Y-16197561D01*
X68926598Y-16362293D01*
X68926597Y-16362297D01*
X68899500Y-16533385D01*
X64010500Y-16533385D01*
X64010500Y-16449454D01*
X64010500Y-16449450D01*
X63982171Y-16270593D01*
X63982171Y-16270591D01*
X63926211Y-16098361D01*
X63843996Y-15937006D01*
X63737553Y-15790499D01*
X63609501Y-15662447D01*
X63462994Y-15556004D01*
X63462993Y-15556003D01*
X63462991Y-15556002D01*
X63301637Y-15473788D01*
X63129406Y-15417828D01*
X62950549Y-15389500D01*
X62950546Y-15389500D01*
X62769454Y-15389500D01*
X62769451Y-15389500D01*
X62590593Y-15417828D01*
X62418362Y-15473788D01*
X62257008Y-15556002D01*
X62183752Y-15609225D01*
X62110499Y-15662447D01*
X61982447Y-15790499D01*
X61929225Y-15863752D01*
X61876002Y-15937008D01*
X61793788Y-16098362D01*
X61737828Y-16270593D01*
X61709500Y-16449450D01*
X41150500Y-16449450D01*
X41122171Y-16270593D01*
X41122171Y-16270591D01*
X41066211Y-16098361D01*
X40983996Y-15937006D01*
X40877553Y-15790499D01*
X40749501Y-15662447D01*
X40602994Y-15556004D01*
X40602993Y-15556003D01*
X40602991Y-15556002D01*
X40441637Y-15473788D01*
X40269406Y-15417828D01*
X40090549Y-15389500D01*
X40090546Y-15389500D01*
X39909454Y-15389500D01*
X39909451Y-15389500D01*
X39730593Y-15417828D01*
X39558362Y-15473788D01*
X39397008Y-15556002D01*
X39323752Y-15609225D01*
X39250499Y-15662447D01*
X39122447Y-15790499D01*
X39069225Y-15863752D01*
X39016002Y-15937008D01*
X38933788Y-16098362D01*
X38877828Y-16270593D01*
X38849500Y-16449450D01*
X14616830Y-16449450D01*
X14641090Y-16374785D01*
X14680500Y-16125962D01*
X14680500Y-15874038D01*
X14680500Y-15874034D01*
X14641091Y-15625219D01*
X14632938Y-15600127D01*
X14563241Y-15385621D01*
X14448870Y-15161155D01*
X14300793Y-14957344D01*
X14122656Y-14779207D01*
X13918845Y-14631130D01*
X13918844Y-14631129D01*
X13918842Y-14631128D01*
X13694379Y-14516759D01*
X13650313Y-14502441D01*
X13612711Y-14490223D01*
X13454780Y-14438908D01*
X13252643Y-14406893D01*
X23899500Y-14406893D01*
X23899500Y-15593106D01*
X23910123Y-15681565D01*
X23965637Y-15822339D01*
X23965638Y-15822341D01*
X23965639Y-15822342D01*
X24057078Y-15942922D01*
X24177658Y-16034361D01*
X24177659Y-16034361D01*
X24177660Y-16034362D01*
X24248047Y-16062119D01*
X24318436Y-16089877D01*
X24406898Y-16100500D01*
X24406900Y-16100500D01*
X25593100Y-16100500D01*
X25593102Y-16100500D01*
X25681564Y-16089877D01*
X25822342Y-16034361D01*
X25942922Y-15942922D01*
X26034361Y-15822342D01*
X26089877Y-15681564D01*
X26100500Y-15593102D01*
X26100500Y-14913385D01*
X27399500Y-14913385D01*
X27399500Y-15086614D01*
X27426597Y-15257702D01*
X27426598Y-15257706D01*
X27480123Y-15422438D01*
X27480125Y-15422441D01*
X27543385Y-15546598D01*
X27558768Y-15576788D01*
X27660586Y-15716928D01*
X27783072Y-15839414D01*
X27923212Y-15941232D01*
X28077555Y-16019873D01*
X28077557Y-16019873D01*
X28077558Y-16019874D01*
X28077561Y-16019876D01*
X28242293Y-16073401D01*
X28242297Y-16073402D01*
X28413386Y-16100500D01*
X28413389Y-16100500D01*
X28586614Y-16100500D01*
X28757702Y-16073402D01*
X28757706Y-16073401D01*
X28922438Y-16019876D01*
X28922440Y-16019874D01*
X28922445Y-16019873D01*
X29076788Y-15941232D01*
X29216928Y-15839414D01*
X29339414Y-15716928D01*
X29441232Y-15576788D01*
X29519873Y-15422445D01*
X29519874Y-15422440D01*
X29519876Y-15422438D01*
X29573401Y-15257706D01*
X29573402Y-15257702D01*
X29600500Y-15086614D01*
X29600500Y-14913385D01*
X29573402Y-14742297D01*
X29573401Y-14742293D01*
X29519876Y-14577561D01*
X29519874Y-14577558D01*
X29519873Y-14577557D01*
X29519873Y-14577555D01*
X29441232Y-14423212D01*
X29339414Y-14283072D01*
X29216928Y-14160586D01*
X29076788Y-14058768D01*
X29076787Y-14058767D01*
X29076785Y-14058766D01*
X28922441Y-13980125D01*
X28922438Y-13980123D01*
X28757706Y-13926598D01*
X28757702Y-13926597D01*
X28586614Y-13899500D01*
X28586611Y-13899500D01*
X28413389Y-13899500D01*
X28413386Y-13899500D01*
X28242297Y-13926597D01*
X28242293Y-13926598D01*
X28077561Y-13980123D01*
X28077558Y-13980125D01*
X27923214Y-14058766D01*
X27783073Y-14160585D01*
X27660585Y-14283073D01*
X27558766Y-14423214D01*
X27480125Y-14577558D01*
X27480123Y-14577561D01*
X27426598Y-14742293D01*
X27426597Y-14742297D01*
X27399500Y-14913385D01*
X26100500Y-14913385D01*
X26100500Y-14406898D01*
X26089877Y-14318436D01*
X26034361Y-14177658D01*
X25942922Y-14057078D01*
X25822342Y-13965639D01*
X25822341Y-13965638D01*
X25822339Y-13965637D01*
X25681565Y-13910123D01*
X25593106Y-13899500D01*
X25593102Y-13899500D01*
X24406898Y-13899500D01*
X24406893Y-13899500D01*
X24318434Y-13910123D01*
X24177660Y-13965637D01*
X24177656Y-13965640D01*
X24057081Y-14057075D01*
X24057075Y-14057081D01*
X23965640Y-14177656D01*
X23965637Y-14177660D01*
X23910123Y-14318434D01*
X23899500Y-14406893D01*
X13252643Y-14406893D01*
X13205965Y-14399500D01*
X13205962Y-14399500D01*
X12954038Y-14399500D01*
X12954035Y-14399500D01*
X12705219Y-14438908D01*
X12465620Y-14516759D01*
X12241157Y-14631128D01*
X12037345Y-14779206D01*
X11859206Y-14957345D01*
X11711128Y-15161157D01*
X11596759Y-15385620D01*
X11518908Y-15625219D01*
X11479500Y-15874034D01*
X9600500Y-15874034D01*
X9600500Y-14906898D01*
X9589877Y-14818436D01*
X9559850Y-14742293D01*
X9534362Y-14677660D01*
X9534361Y-14677659D01*
X9534361Y-14677658D01*
X9442922Y-14557078D01*
X9322342Y-14465639D01*
X9322341Y-14465638D01*
X9322339Y-14465637D01*
X9181565Y-14410123D01*
X9093106Y-14399500D01*
X9093102Y-14399500D01*
X6906898Y-14399500D01*
X6906893Y-14399500D01*
X6818434Y-14410123D01*
X6677660Y-14465637D01*
X6677656Y-14465640D01*
X6557081Y-14557075D01*
X6557075Y-14557081D01*
X6465640Y-14677656D01*
X6465637Y-14677660D01*
X6410123Y-14818434D01*
X6399500Y-14906893D01*
X600000Y-14906893D01*
X600000Y-13105130D01*
X38849500Y-13105130D01*
X38849500Y-14894860D01*
X38849501Y-14894863D01*
X38852414Y-14919990D01*
X38868908Y-14957344D01*
X38897794Y-15022765D01*
X38977235Y-15102206D01*
X39080009Y-15147585D01*
X39105135Y-15150500D01*
X40894864Y-15150499D01*
X40919991Y-15147585D01*
X41022765Y-15102206D01*
X41102206Y-15022765D01*
X41147585Y-14919991D01*
X41150500Y-14894865D01*
X41150499Y-13105136D01*
X41150498Y-13105130D01*
X61709500Y-13105130D01*
X61709500Y-14894860D01*
X61709501Y-14894863D01*
X61712414Y-14919990D01*
X61728908Y-14957344D01*
X61757794Y-15022765D01*
X61837235Y-15102206D01*
X61940009Y-15147585D01*
X61965135Y-15150500D01*
X63754864Y-15150499D01*
X63779991Y-15147585D01*
X63882765Y-15102206D01*
X63962206Y-15022765D01*
X64007585Y-14919991D01*
X64010500Y-14894865D01*
X64010499Y-13993385D01*
X68899500Y-13993385D01*
X68899500Y-14166614D01*
X68926597Y-14337702D01*
X68926598Y-14337706D01*
X68980123Y-14502438D01*
X68980125Y-14502441D01*
X69045694Y-14631130D01*
X69058768Y-14656788D01*
X69160586Y-14796928D01*
X69283072Y-14919414D01*
X69423212Y-15021232D01*
X69577555Y-15099873D01*
X69577557Y-15099873D01*
X69577558Y-15099874D01*
X69577561Y-15099876D01*
X69742293Y-15153401D01*
X69742297Y-15153402D01*
X69913386Y-15180500D01*
X69913389Y-15180500D01*
X70086614Y-15180500D01*
X70257702Y-15153402D01*
X70257706Y-15153401D01*
X70422438Y-15099876D01*
X70422440Y-15099874D01*
X70422445Y-15099873D01*
X70576788Y-15021232D01*
X70716928Y-14919414D01*
X70839414Y-14796928D01*
X70941232Y-14656788D01*
X71019873Y-14502445D01*
X71019874Y-14502440D01*
X71019876Y-14502438D01*
X71073401Y-14337706D01*
X71073402Y-14337702D01*
X71100500Y-14166614D01*
X71100500Y-13993385D01*
X76519500Y-13993385D01*
X76519500Y-14166614D01*
X76546597Y-14337702D01*
X76546598Y-14337706D01*
X76600123Y-14502438D01*
X76600125Y-14502441D01*
X76665694Y-14631130D01*
X76678768Y-14656788D01*
X76780586Y-14796928D01*
X76903072Y-14919414D01*
X77043212Y-15021232D01*
X77197555Y-15099873D01*
X77197557Y-15099873D01*
X77197558Y-15099874D01*
X77197561Y-15099876D01*
X77362293Y-15153401D01*
X77362297Y-15153402D01*
X77533386Y-15180500D01*
X77533389Y-15180500D01*
X77706614Y-15180500D01*
X77877702Y-15153402D01*
X77877706Y-15153401D01*
X78042438Y-15099876D01*
X78042440Y-15099874D01*
X78042445Y-15099873D01*
X78196788Y-15021232D01*
X78336928Y-14919414D01*
X78459414Y-14796928D01*
X78561232Y-14656788D01*
X78639873Y-14502445D01*
X78639874Y-14502440D01*
X78639876Y-14502438D01*
X78693401Y-14337706D01*
X78693402Y-14337702D01*
X78720500Y-14166614D01*
X78720500Y-13993385D01*
X78693402Y-13822297D01*
X78693401Y-13822293D01*
X78679689Y-13780092D01*
X78671011Y-13753385D01*
X82899500Y-13753385D01*
X82899500Y-13926614D01*
X82926597Y-14097702D01*
X82926598Y-14097706D01*
X82980123Y-14262438D01*
X82980125Y-14262441D01*
X83053728Y-14406898D01*
X83058768Y-14416788D01*
X83160586Y-14556928D01*
X83283072Y-14679414D01*
X83423212Y-14781232D01*
X83577555Y-14859873D01*
X83577557Y-14859873D01*
X83577558Y-14859874D01*
X83577561Y-14859876D01*
X83742293Y-14913401D01*
X83742297Y-14913402D01*
X83913386Y-14940500D01*
X83913389Y-14940500D01*
X84086614Y-14940500D01*
X84257702Y-14913402D01*
X84257706Y-14913401D01*
X84422438Y-14859876D01*
X84422440Y-14859874D01*
X84422445Y-14859873D01*
X84576788Y-14781232D01*
X84716928Y-14679414D01*
X84839414Y-14556928D01*
X84941232Y-14416788D01*
X85019873Y-14262445D01*
X85019874Y-14262440D01*
X85019876Y-14262438D01*
X85073401Y-14097706D01*
X85073402Y-14097702D01*
X85100500Y-13926614D01*
X85100500Y-13753385D01*
X85073402Y-13582297D01*
X85073401Y-13582293D01*
X85019876Y-13417561D01*
X85019874Y-13417558D01*
X85019873Y-13417557D01*
X85019873Y-13417555D01*
X84941232Y-13263212D01*
X84839414Y-13123072D01*
X84716928Y-13000586D01*
X84576788Y-12898768D01*
X84576787Y-12898767D01*
X84576785Y-12898766D01*
X84422441Y-12820125D01*
X84422438Y-12820123D01*
X84257706Y-12766598D01*
X84257702Y-12766597D01*
X84086614Y-12739500D01*
X84086611Y-12739500D01*
X83913389Y-12739500D01*
X83913386Y-12739500D01*
X83742297Y-12766597D01*
X83742293Y-12766598D01*
X83577561Y-12820123D01*
X83577558Y-12820125D01*
X83423214Y-12898766D01*
X83283073Y-13000585D01*
X83160585Y-13123073D01*
X83058766Y-13263214D01*
X82980125Y-13417558D01*
X82980123Y-13417561D01*
X82926598Y-13582293D01*
X82926597Y-13582297D01*
X82899500Y-13753385D01*
X78671011Y-13753385D01*
X78639876Y-13657561D01*
X78639874Y-13657558D01*
X78639873Y-13657557D01*
X78639873Y-13657555D01*
X78561232Y-13503212D01*
X78459414Y-13363072D01*
X78336928Y-13240586D01*
X78196788Y-13138768D01*
X78196787Y-13138767D01*
X78196785Y-13138766D01*
X78042441Y-13060125D01*
X78042438Y-13060123D01*
X77877706Y-13006598D01*
X77877702Y-13006597D01*
X77706614Y-12979500D01*
X77706611Y-12979500D01*
X77533389Y-12979500D01*
X77533386Y-12979500D01*
X77362297Y-13006597D01*
X77362293Y-13006598D01*
X77197561Y-13060123D01*
X77197558Y-13060125D01*
X77043214Y-13138766D01*
X76903073Y-13240585D01*
X76780585Y-13363073D01*
X76678766Y-13503214D01*
X76600125Y-13657558D01*
X76600123Y-13657561D01*
X76546598Y-13822293D01*
X76546597Y-13822297D01*
X76519500Y-13993385D01*
X71100500Y-13993385D01*
X71073402Y-13822297D01*
X71073401Y-13822293D01*
X71019876Y-13657561D01*
X71019874Y-13657558D01*
X71019873Y-13657557D01*
X71019873Y-13657555D01*
X70941232Y-13503212D01*
X70839414Y-13363072D01*
X70716928Y-13240586D01*
X70576788Y-13138768D01*
X70576787Y-13138767D01*
X70576785Y-13138766D01*
X70422441Y-13060125D01*
X70422438Y-13060123D01*
X70257706Y-13006598D01*
X70257702Y-13006597D01*
X70086614Y-12979500D01*
X70086611Y-12979500D01*
X69913389Y-12979500D01*
X69913386Y-12979500D01*
X69742297Y-13006597D01*
X69742293Y-13006598D01*
X69577561Y-13060123D01*
X69577558Y-13060125D01*
X69423214Y-13138766D01*
X69283073Y-13240585D01*
X69160585Y-13363073D01*
X69058766Y-13503214D01*
X68980125Y-13657558D01*
X68980123Y-13657561D01*
X68926598Y-13822293D01*
X68926597Y-13822297D01*
X68899500Y-13993385D01*
X64010499Y-13993385D01*
X64010499Y-13105136D01*
X64007585Y-13080009D01*
X63962206Y-12977235D01*
X63882765Y-12897794D01*
X63779991Y-12852415D01*
X63779990Y-12852414D01*
X63779988Y-12852414D01*
X63754868Y-12849500D01*
X61965139Y-12849500D01*
X61965136Y-12849501D01*
X61940009Y-12852414D01*
X61837235Y-12897794D01*
X61757794Y-12977235D01*
X61712414Y-13080011D01*
X61709500Y-13105130D01*
X41150498Y-13105130D01*
X41147585Y-13080009D01*
X41102206Y-12977235D01*
X41022765Y-12897794D01*
X40919991Y-12852415D01*
X40919990Y-12852414D01*
X40919988Y-12852414D01*
X40894868Y-12849500D01*
X39105139Y-12849500D01*
X39105136Y-12849501D01*
X39080009Y-12852414D01*
X38977235Y-12897794D01*
X38897794Y-12977235D01*
X38852414Y-13080011D01*
X38849500Y-13105130D01*
X600000Y-13105130D01*
X600000Y-11453385D01*
X68899500Y-11453385D01*
X68899500Y-11626614D01*
X68926597Y-11797702D01*
X68926598Y-11797706D01*
X68980123Y-11962438D01*
X68980125Y-11962441D01*
X68980126Y-11962444D01*
X68980127Y-11962445D01*
X69058768Y-12116788D01*
X69160586Y-12256928D01*
X69283072Y-12379414D01*
X69423212Y-12481232D01*
X69577555Y-12559873D01*
X69577557Y-12559873D01*
X69577558Y-12559874D01*
X69577561Y-12559876D01*
X69742293Y-12613401D01*
X69742297Y-12613402D01*
X69913386Y-12640500D01*
X69913389Y-12640500D01*
X70086614Y-12640500D01*
X70257702Y-12613402D01*
X70257706Y-12613401D01*
X70422438Y-12559876D01*
X70422440Y-12559874D01*
X70422445Y-12559873D01*
X70576788Y-12481232D01*
X70716928Y-12379414D01*
X70839414Y-12256928D01*
X70941232Y-12116788D01*
X71019873Y-11962445D01*
X71019874Y-11962440D01*
X71019876Y-11962438D01*
X71073401Y-11797706D01*
X71073402Y-11797702D01*
X71100500Y-11626614D01*
X71100500Y-11453385D01*
X76519500Y-11453385D01*
X76519500Y-11626614D01*
X76546597Y-11797702D01*
X76546598Y-11797706D01*
X76600123Y-11962438D01*
X76600125Y-11962441D01*
X76600126Y-11962444D01*
X76600127Y-11962445D01*
X76678768Y-12116788D01*
X76780586Y-12256928D01*
X76903072Y-12379414D01*
X77043212Y-12481232D01*
X77197555Y-12559873D01*
X77197557Y-12559873D01*
X77197558Y-12559874D01*
X77197561Y-12559876D01*
X77362293Y-12613401D01*
X77362297Y-12613402D01*
X77533386Y-12640500D01*
X77533389Y-12640500D01*
X77706614Y-12640500D01*
X77877702Y-12613402D01*
X77877706Y-12613401D01*
X78042438Y-12559876D01*
X78042440Y-12559874D01*
X78042445Y-12559873D01*
X78196788Y-12481232D01*
X78336928Y-12379414D01*
X78459414Y-12256928D01*
X78561232Y-12116788D01*
X78639873Y-11962445D01*
X78639874Y-11962440D01*
X78639876Y-11962438D01*
X78693401Y-11797706D01*
X78693402Y-11797702D01*
X78720500Y-11626614D01*
X78720500Y-11453385D01*
X78693402Y-11282297D01*
X78693401Y-11282293D01*
X78639876Y-11117561D01*
X78639872Y-11117552D01*
X78624147Y-11086689D01*
X78624146Y-11086688D01*
X78561233Y-10963214D01*
X78561232Y-10963212D01*
X78459414Y-10823072D01*
X78336928Y-10700586D01*
X78196788Y-10598768D01*
X78196787Y-10598767D01*
X78196785Y-10598766D01*
X78042441Y-10520125D01*
X78042438Y-10520123D01*
X77877706Y-10466598D01*
X77877702Y-10466597D01*
X77706614Y-10439500D01*
X77706611Y-10439500D01*
X77533389Y-10439500D01*
X77533386Y-10439500D01*
X77362297Y-10466597D01*
X77362293Y-10466598D01*
X77197561Y-10520123D01*
X77197558Y-10520125D01*
X77043214Y-10598766D01*
X76903073Y-10700585D01*
X76780585Y-10823073D01*
X76678766Y-10963214D01*
X76600125Y-11117558D01*
X76600123Y-11117561D01*
X76546598Y-11282293D01*
X76546597Y-11282297D01*
X76519500Y-11453385D01*
X71100500Y-11453385D01*
X71073402Y-11282297D01*
X71073401Y-11282293D01*
X71019876Y-11117561D01*
X71019874Y-11117558D01*
X71019873Y-11117557D01*
X71019873Y-11117555D01*
X70941232Y-10963212D01*
X70839414Y-10823072D01*
X70716928Y-10700586D01*
X70576788Y-10598768D01*
X70576787Y-10598767D01*
X70576785Y-10598766D01*
X70422441Y-10520125D01*
X70422438Y-10520123D01*
X70257706Y-10466598D01*
X70257702Y-10466597D01*
X70086614Y-10439500D01*
X70086611Y-10439500D01*
X69913389Y-10439500D01*
X69913386Y-10439500D01*
X69742297Y-10466597D01*
X69742293Y-10466598D01*
X69577561Y-10520123D01*
X69577558Y-10520125D01*
X69423214Y-10598766D01*
X69283073Y-10700585D01*
X69160585Y-10823073D01*
X69058766Y-10963214D01*
X68980125Y-11117558D01*
X68980123Y-11117561D01*
X68926598Y-11282293D01*
X68926597Y-11282297D01*
X68899500Y-11453385D01*
X600000Y-11453385D01*
X600000Y-8406893D01*
X68899500Y-8406893D01*
X68899500Y-9593106D01*
X68910123Y-9681565D01*
X68965637Y-9822339D01*
X68965638Y-9822341D01*
X68965639Y-9822342D01*
X69057078Y-9942922D01*
X69177658Y-10034361D01*
X69177659Y-10034361D01*
X69177660Y-10034362D01*
X69224063Y-10052661D01*
X69318436Y-10089877D01*
X69406898Y-10100500D01*
X69406900Y-10100500D01*
X70593100Y-10100500D01*
X70593102Y-10100500D01*
X70681564Y-10089877D01*
X70822342Y-10034361D01*
X70942922Y-9942922D01*
X71034361Y-9822342D01*
X71089877Y-9681564D01*
X71100500Y-9593102D01*
X71100500Y-8913385D01*
X76519500Y-8913385D01*
X76519500Y-9086614D01*
X76546597Y-9257702D01*
X76546598Y-9257706D01*
X76600123Y-9422438D01*
X76600125Y-9422441D01*
X76600126Y-9422444D01*
X76600127Y-9422445D01*
X76678768Y-9576788D01*
X76780586Y-9716928D01*
X76903072Y-9839414D01*
X77043212Y-9941232D01*
X77197555Y-10019873D01*
X77197557Y-10019873D01*
X77197558Y-10019874D01*
X77197561Y-10019876D01*
X77362293Y-10073401D01*
X77362297Y-10073402D01*
X77533386Y-10100500D01*
X77533389Y-10100500D01*
X77706614Y-10100500D01*
X77877702Y-10073402D01*
X77877706Y-10073401D01*
X78042438Y-10019876D01*
X78042440Y-10019874D01*
X78042445Y-10019873D01*
X78196788Y-9941232D01*
X78256726Y-9897684D01*
X82700000Y-9897684D01*
X82700000Y-10102315D01*
X82732008Y-10304412D01*
X82795243Y-10499027D01*
X82888139Y-10681348D01*
X82888143Y-10681353D01*
X82920523Y-10725920D01*
X82920524Y-10725920D01*
X83600000Y-10046444D01*
X83600000Y-10052661D01*
X83627259Y-10154394D01*
X83679920Y-10245606D01*
X83754394Y-10320080D01*
X83845606Y-10372741D01*
X83947339Y-10400000D01*
X83953553Y-10400000D01*
X83274078Y-11079475D01*
X83318647Y-11111858D01*
X83500972Y-11204756D01*
X83695587Y-11267991D01*
X83897685Y-11300000D01*
X84102315Y-11300000D01*
X84304412Y-11267991D01*
X84499027Y-11204756D01*
X84681342Y-11111863D01*
X84681350Y-11111858D01*
X84725920Y-11079475D01*
X84046445Y-10400000D01*
X84052661Y-10400000D01*
X84154394Y-10372741D01*
X84245606Y-10320080D01*
X84320080Y-10245606D01*
X84372741Y-10154394D01*
X84400000Y-10052661D01*
X84400000Y-10046445D01*
X85079475Y-10725920D01*
X85111858Y-10681350D01*
X85111863Y-10681342D01*
X85204756Y-10499027D01*
X85267991Y-10304412D01*
X85300000Y-10102315D01*
X85300000Y-9897684D01*
X85267991Y-9695587D01*
X85204756Y-9500972D01*
X85111858Y-9318647D01*
X85079475Y-9274078D01*
X84400000Y-9953553D01*
X84400000Y-9947339D01*
X84372741Y-9845606D01*
X84320080Y-9754394D01*
X84245606Y-9679920D01*
X84154394Y-9627259D01*
X84052661Y-9600000D01*
X84046445Y-9600000D01*
X84725920Y-8920524D01*
X84725920Y-8920523D01*
X84681353Y-8888143D01*
X84681348Y-8888139D01*
X84499027Y-8795243D01*
X84304412Y-8732008D01*
X84102315Y-8700000D01*
X83897685Y-8700000D01*
X83695587Y-8732008D01*
X83500972Y-8795243D01*
X83318651Y-8888139D01*
X83318647Y-8888141D01*
X83274078Y-8920523D01*
X83953555Y-9600000D01*
X83947339Y-9600000D01*
X83845606Y-9627259D01*
X83754394Y-9679920D01*
X83679920Y-9754394D01*
X83627259Y-9845606D01*
X83600000Y-9947339D01*
X83600000Y-9953555D01*
X82920523Y-9274078D01*
X82888141Y-9318647D01*
X82888139Y-9318651D01*
X82795243Y-9500972D01*
X82732008Y-9695587D01*
X82700000Y-9897684D01*
X78256726Y-9897684D01*
X78336928Y-9839414D01*
X78459414Y-9716928D01*
X78561232Y-9576788D01*
X78639873Y-9422445D01*
X78639874Y-9422440D01*
X78639876Y-9422438D01*
X78693401Y-9257706D01*
X78693402Y-9257702D01*
X78720500Y-9086614D01*
X78720500Y-8913385D01*
X78693402Y-8742297D01*
X78693401Y-8742293D01*
X78639876Y-8577561D01*
X78639874Y-8577558D01*
X78639873Y-8577557D01*
X78639873Y-8577555D01*
X78561232Y-8423212D01*
X78459414Y-8283072D01*
X78336928Y-8160586D01*
X78196788Y-8058768D01*
X78196787Y-8058767D01*
X78196785Y-8058766D01*
X78189649Y-8055130D01*
X90799500Y-8055130D01*
X90799500Y-9944860D01*
X90799501Y-9944863D01*
X90802414Y-9969990D01*
X90815665Y-9999999D01*
X90847794Y-10072765D01*
X90927235Y-10152206D01*
X91030009Y-10197585D01*
X91055135Y-10200500D01*
X92944864Y-10200499D01*
X92969991Y-10197585D01*
X93072765Y-10152206D01*
X93152206Y-10072765D01*
X93197585Y-9969991D01*
X93200500Y-9944865D01*
X93200499Y-9387401D01*
X93219406Y-9329213D01*
X93268906Y-9293249D01*
X93330092Y-9293249D01*
X93379592Y-9329213D01*
X93393653Y-9356811D01*
X93427449Y-9460825D01*
X93427451Y-9460828D01*
X93512251Y-9627259D01*
X93513240Y-9629199D01*
X93624310Y-9782073D01*
X93757927Y-9915690D01*
X93910801Y-10026760D01*
X94079168Y-10112547D01*
X94258882Y-10170940D01*
X94258883Y-10170940D01*
X94258886Y-10170941D01*
X94445516Y-10200500D01*
X94445519Y-10200500D01*
X94634484Y-10200500D01*
X94821113Y-10170941D01*
X94821114Y-10170940D01*
X94821118Y-10170940D01*
X95000832Y-10112547D01*
X95169199Y-10026760D01*
X95322073Y-9915690D01*
X95455690Y-9782073D01*
X95566760Y-9629199D01*
X95652547Y-9460832D01*
X95710940Y-9281118D01*
X95740500Y-9094481D01*
X95740500Y-8905519D01*
X95740500Y-8905515D01*
X95710941Y-8718886D01*
X95710940Y-8718882D01*
X95652547Y-8539168D01*
X95566760Y-8370801D01*
X95455690Y-8217927D01*
X95322073Y-8084310D01*
X95169199Y-7973240D01*
X95169198Y-7973239D01*
X95169196Y-7973238D01*
X95000832Y-7887453D01*
X94821113Y-7829058D01*
X94634484Y-7799500D01*
X94634481Y-7799500D01*
X94445519Y-7799500D01*
X94445516Y-7799500D01*
X94258886Y-7829058D01*
X94079167Y-7887453D01*
X93910803Y-7973238D01*
X93757928Y-8084309D01*
X93624309Y-8217928D01*
X93513238Y-8370803D01*
X93427451Y-8539171D01*
X93427449Y-8539174D01*
X93393653Y-8643189D01*
X93357689Y-8692689D01*
X93299498Y-8711596D01*
X93241308Y-8692688D01*
X93205344Y-8643188D01*
X93200499Y-8612596D01*
X93200499Y-8055139D01*
X93200499Y-8055136D01*
X93197585Y-8030009D01*
X93152206Y-7927235D01*
X93072765Y-7847794D01*
X92969991Y-7802415D01*
X92969990Y-7802414D01*
X92969988Y-7802414D01*
X92944868Y-7799500D01*
X91055139Y-7799500D01*
X91055136Y-7799501D01*
X91030009Y-7802414D01*
X90927235Y-7847794D01*
X90847794Y-7927235D01*
X90802414Y-8030011D01*
X90799500Y-8055130D01*
X78189649Y-8055130D01*
X78042441Y-7980125D01*
X78042438Y-7980123D01*
X77877706Y-7926598D01*
X77877702Y-7926597D01*
X77706614Y-7899500D01*
X77706611Y-7899500D01*
X77533389Y-7899500D01*
X77533386Y-7899500D01*
X77362297Y-7926597D01*
X77362293Y-7926598D01*
X77197561Y-7980123D01*
X77197558Y-7980125D01*
X77043214Y-8058766D01*
X76903073Y-8160585D01*
X76780585Y-8283073D01*
X76678766Y-8423214D01*
X76600125Y-8577558D01*
X76600123Y-8577561D01*
X76546598Y-8742293D01*
X76546597Y-8742297D01*
X76519500Y-8913385D01*
X71100500Y-8913385D01*
X71100500Y-8406898D01*
X71089877Y-8318436D01*
X71034361Y-8177658D01*
X70942922Y-8057078D01*
X70822342Y-7965639D01*
X70822341Y-7965638D01*
X70822339Y-7965637D01*
X70681565Y-7910123D01*
X70593106Y-7899500D01*
X70593102Y-7899500D01*
X69406898Y-7899500D01*
X69406893Y-7899500D01*
X69318434Y-7910123D01*
X69177660Y-7965637D01*
X69177656Y-7965640D01*
X69057081Y-8057075D01*
X69057075Y-8057081D01*
X68965640Y-8177656D01*
X68965637Y-8177660D01*
X68910123Y-8318434D01*
X68899500Y-8406893D01*
X600000Y-8406893D01*
X600000Y-4878710D01*
X3149500Y-4878710D01*
X3149500Y-5121289D01*
X3181161Y-5361781D01*
X3181161Y-5361786D01*
X3243944Y-5596092D01*
X3243948Y-5596105D01*
X3336772Y-5820204D01*
X3336774Y-5820208D01*
X3336776Y-5820212D01*
X3458064Y-6030289D01*
X3458066Y-6030292D01*
X3605729Y-6222731D01*
X3605731Y-6222733D01*
X3605735Y-6222738D01*
X3777262Y-6394265D01*
X3777266Y-6394268D01*
X3777268Y-6394270D01*
X3969707Y-6541933D01*
X3969711Y-6541936D01*
X4179788Y-6663224D01*
X4403900Y-6756054D01*
X4638211Y-6818838D01*
X4878712Y-6850500D01*
X4878713Y-6850500D01*
X5121287Y-6850500D01*
X5121288Y-6850500D01*
X5361789Y-6818838D01*
X5596100Y-6756054D01*
X5820212Y-6663224D01*
X6030289Y-6541936D01*
X6222738Y-6394265D01*
X6394265Y-6222738D01*
X6541936Y-6030289D01*
X6663224Y-5820212D01*
X6756054Y-5596100D01*
X6818838Y-5361789D01*
X6850500Y-5121288D01*
X6850500Y-4878712D01*
X6850500Y-4878710D01*
X93149500Y-4878710D01*
X93149500Y-5121289D01*
X93181161Y-5361781D01*
X93181161Y-5361786D01*
X93243944Y-5596092D01*
X93243948Y-5596105D01*
X93336772Y-5820204D01*
X93336774Y-5820208D01*
X93336776Y-5820212D01*
X93458064Y-6030289D01*
X93458066Y-6030292D01*
X93605729Y-6222731D01*
X93605731Y-6222733D01*
X93605735Y-6222738D01*
X93777262Y-6394265D01*
X93777266Y-6394268D01*
X93777268Y-6394270D01*
X93969707Y-6541933D01*
X93969711Y-6541936D01*
X94179788Y-6663224D01*
X94403900Y-6756054D01*
X94638211Y-6818838D01*
X94878712Y-6850500D01*
X94878713Y-6850500D01*
X95121287Y-6850500D01*
X95121288Y-6850500D01*
X95361789Y-6818838D01*
X95596100Y-6756054D01*
X95820212Y-6663224D01*
X96030289Y-6541936D01*
X96222738Y-6394265D01*
X96394265Y-6222738D01*
X96541936Y-6030289D01*
X96663224Y-5820212D01*
X96756054Y-5596100D01*
X96818838Y-5361789D01*
X96850500Y-5121288D01*
X96850500Y-4878712D01*
X96818838Y-4638211D01*
X96756054Y-4403900D01*
X96663224Y-4179788D01*
X96541936Y-3969711D01*
X96394265Y-3777262D01*
X96222738Y-3605735D01*
X96222733Y-3605731D01*
X96222731Y-3605729D01*
X96030292Y-3458066D01*
X96030289Y-3458064D01*
X95820212Y-3336776D01*
X95820208Y-3336774D01*
X95820204Y-3336772D01*
X95596105Y-3243948D01*
X95596104Y-3243947D01*
X95596100Y-3243946D01*
X95361789Y-3181162D01*
X95361786Y-3181161D01*
X95361784Y-3181161D01*
X95121289Y-3149500D01*
X95121288Y-3149500D01*
X94878712Y-3149500D01*
X94878710Y-3149500D01*
X94638218Y-3181161D01*
X94638213Y-3181161D01*
X94403907Y-3243944D01*
X94403894Y-3243948D01*
X94179795Y-3336772D01*
X93969707Y-3458066D01*
X93777268Y-3605729D01*
X93605729Y-3777268D01*
X93458066Y-3969707D01*
X93336772Y-4179795D01*
X93243948Y-4403894D01*
X93243944Y-4403907D01*
X93181161Y-4638213D01*
X93181161Y-4638218D01*
X93149500Y-4878710D01*
X6850500Y-4878710D01*
X6818838Y-4638211D01*
X6756054Y-4403900D01*
X6663224Y-4179788D01*
X6541936Y-3969711D01*
X6394265Y-3777262D01*
X6222738Y-3605735D01*
X6222733Y-3605731D01*
X6222731Y-3605729D01*
X6030292Y-3458066D01*
X6030289Y-3458064D01*
X5820212Y-3336776D01*
X5820208Y-3336774D01*
X5820204Y-3336772D01*
X5596105Y-3243948D01*
X5596104Y-3243947D01*
X5596100Y-3243946D01*
X5361789Y-3181162D01*
X5361786Y-3181161D01*
X5361784Y-3181161D01*
X5121289Y-3149500D01*
X5121288Y-3149500D01*
X4878712Y-3149500D01*
X4878710Y-3149500D01*
X4638218Y-3181161D01*
X4638213Y-3181161D01*
X4403907Y-3243944D01*
X4403894Y-3243948D01*
X4179795Y-3336772D01*
X3969707Y-3458066D01*
X3777268Y-3605729D01*
X3605729Y-3777268D01*
X3458066Y-3969707D01*
X3336772Y-4179795D01*
X3243948Y-4403894D01*
X3243944Y-4403907D01*
X3181161Y-4638213D01*
X3181161Y-4638218D01*
X3149500Y-4878710D01*
X600000Y-4878710D01*
X600000Y-2330671D01*
X604483Y-2301219D01*
X652096Y-2148422D01*
X661147Y-2119376D01*
X665378Y-2108218D01*
X784350Y-1843875D01*
X789891Y-1833315D01*
X939868Y-1585221D01*
X946632Y-1575424D01*
X1125407Y-1347235D01*
X1133319Y-1338303D01*
X1338303Y-1133319D01*
X1347235Y-1125407D01*
X1575424Y-946632D01*
X1585221Y-939868D01*
X1833315Y-789891D01*
X1843875Y-784350D01*
X2108218Y-665378D01*
X2119361Y-661151D01*
X2301223Y-604481D01*
X2330672Y-600000D01*
X83162650Y-600000D01*
X83220841Y-618907D01*
G37*
%TD.AperFunction*%
%TD*%
M02*
