%TF.GenerationSoftware,KiCad,Pcbnew,10.0.4*%
%TF.CreationDate,2026-07-18T15:52:29+02:00*%
%TF.ProjectId,BluePill-SmartNode-RS485,426c7565-5069-46c6-9c2d-536d6172744e,rev?*%
%TF.SameCoordinates,Original*%
%TF.FileFunction,Copper,L2,Inr*%
%TF.FilePolarity,Positive*%
%FSLAX46Y46*%
G04 Gerber Fmt 4.6, Leading zero omitted, Abs format (unit mm)*
G04 Created by KiCad (PCBNEW 10.0.4) date 2026-07-18 15:52:29*
%MOMM*%
%LPD*%
G01*
G04 APERTURE LIST*
G04 Aperture macros list*
%AMRoundRect*
0 Rectangle with rounded corners*
0 $1 Rounding radius*
0 $2 $3 $4 $5 $6 $7 $8 $9 X,Y pos of 4 corners*
0 Add a 4 corners polygon primitive as box body*
4,1,4,$2,$3,$4,$5,$6,$7,$8,$9,$2,$3,0*
0 Add four circle primitives for the rounded corners*
1,1,$1+$1,$2,$3*
1,1,$1+$1,$4,$5*
1,1,$1+$1,$6,$7*
1,1,$1+$1,$8,$9*
0 Add four rect primitives between the rounded corners*
20,1,$1+$1,$2,$3,$4,$5,0*
20,1,$1+$1,$4,$5,$6,$7,0*
20,1,$1+$1,$6,$7,$8,$9,0*
20,1,$1+$1,$8,$9,$2,$3,0*%
G04 Aperture macros list end*
%TA.AperFunction,ComponentPad*%
%ADD10RoundRect,0.250000X-1.050000X-1.050000X1.050000X-1.050000X1.050000X1.050000X-1.050000X1.050000X0*%
%TD*%
%TA.AperFunction,ComponentPad*%
%ADD11C,2.600000*%
%TD*%
%TA.AperFunction,ComponentPad*%
%ADD12C,3.000000*%
%TD*%
%TA.AperFunction,ComponentPad*%
%ADD13C,2.500000*%
%TD*%
%TA.AperFunction,ComponentPad*%
%ADD14R,1.800000X1.800000*%
%TD*%
%TA.AperFunction,ComponentPad*%
%ADD15C,1.800000*%
%TD*%
%TA.AperFunction,ComponentPad*%
%ADD16C,1.600000*%
%TD*%
%TA.AperFunction,ComponentPad*%
%ADD17RoundRect,0.249999X0.850001X-0.850001X0.850001X0.850001X-0.850001X0.850001X-0.850001X-0.850001X0*%
%TD*%
%TA.AperFunction,ComponentPad*%
%ADD18C,2.200000*%
%TD*%
%TA.AperFunction,ComponentPad*%
%ADD19RoundRect,0.250000X-0.550000X-0.550000X0.550000X-0.550000X0.550000X0.550000X-0.550000X0.550000X0*%
%TD*%
%TA.AperFunction,ComponentPad*%
%ADD20R,1.700000X1.700000*%
%TD*%
%TA.AperFunction,ComponentPad*%
%ADD21C,1.700000*%
%TD*%
%TA.AperFunction,ComponentPad*%
%ADD22R,1.905000X2.000000*%
%TD*%
%TA.AperFunction,ComponentPad*%
%ADD23O,1.905000X2.000000*%
%TD*%
%TA.AperFunction,ComponentPad*%
%ADD24RoundRect,0.250000X0.550000X-0.550000X0.550000X0.550000X-0.550000X0.550000X-0.550000X-0.550000X0*%
%TD*%
G04 APERTURE END LIST*
D10*
%TO.N,REL2_COM*%
%TO.C,J_REL2*%
X39000000Y-72000000D03*
D11*
%TO.N,REL2_NO*%
X44080000Y-72000000D03*
%TO.N,REL2_NC*%
X49160000Y-72000000D03*
%TD*%
D12*
%TO.N,REL1_COM*%
%TO.C,K1*%
X18000000Y-54000000D03*
D13*
%TO.N,5V*%
X19950000Y-60050000D03*
D12*
%TO.N,REL1_NO*%
X32150000Y-60050000D03*
%TO.N,REL1_NC*%
X32200000Y-48000000D03*
D13*
%TO.N,K1_DRV*%
X19950000Y-48050000D03*
%TD*%
D14*
%TO.N,K3_DRV*%
%TO.C,LED3*%
X18000000Y-42000000D03*
D15*
%TO.N,LED3_A*%
X20540000Y-42000000D03*
%TD*%
D16*
%TO.N,3V3*%
%TO.C,R_PULL1*%
X108000000Y-18000000D03*
%TO.N,PB0*%
X118160000Y-18000000D03*
%TD*%
D17*
%TO.N,12V_IN*%
%TO.C,D_REVERSE*%
X25000000Y-29000000D03*
D18*
%TO.N,VIN*%
X25000000Y-18840000D03*
%TD*%
D16*
%TO.N,3V3*%
%TO.C,R_PULL2*%
X108000000Y-28000000D03*
%TO.N,PB1*%
X118160000Y-28000000D03*
%TD*%
%TO.N,5V*%
%TO.C,C_DEC4*%
X122000000Y-38000000D03*
%TO.N,GND*%
X127000000Y-38000000D03*
%TD*%
D19*
%TO.N,3V3*%
%TO.C,C_BULK3*%
X108000000Y-40000000D03*
D16*
%TO.N,GND*%
X110000000Y-40000000D03*
%TD*%
D19*
%TO.N,12V_IN*%
%TO.C,C_BULK1*%
X55000000Y-29000000D03*
D16*
%TO.N,GND*%
X58500000Y-29000000D03*
%TD*%
%TO.N,485_A*%
%TO.C,R_TERM*%
X108000000Y-8000000D03*
%TO.N,485_B*%
X118160000Y-8000000D03*
%TD*%
D14*
%TO.N,K2_DRV*%
%TO.C,LED2*%
X18000000Y-31000000D03*
D15*
%TO.N,LED2_A*%
X20540000Y-31000000D03*
%TD*%
D14*
%TO.N,K1_DRV*%
%TO.C,LED1*%
X18000000Y-20000000D03*
D15*
%TO.N,LED1_A*%
X20540000Y-20000000D03*
%TD*%
D20*
%TO.N,GND*%
%TO.C,J_I2C*%
X42000000Y-7000000D03*
D21*
%TO.N,3V3*%
X42000000Y-9540000D03*
%TO.N,PB7*%
X42000000Y-12080000D03*
%TO.N,PB6*%
X42000000Y-14620000D03*
%TD*%
D22*
%TO.N,GND*%
%TO.C,U_REG3V3*%
X10000000Y-36000000D03*
D23*
%TO.N,3V3*%
X12540000Y-36000000D03*
%TO.N,5V*%
X15080000Y-36000000D03*
%TD*%
D16*
%TO.N,5V*%
%TO.C,C_DEC2*%
X80000000Y-33000000D03*
%TO.N,GND*%
X85000000Y-33000000D03*
%TD*%
D10*
%TO.N,VIN*%
%TO.C,J_POWER*%
X12000000Y-7000000D03*
D11*
%TO.N,GND*%
X17080000Y-7000000D03*
%TD*%
D10*
%TO.N,485_A*%
%TO.C,J_RS485*%
X78000000Y-7000000D03*
D11*
%TO.N,485_B*%
X83080000Y-7000000D03*
%TO.N,GND*%
X88160000Y-7000000D03*
%TD*%
D20*
%TO.N,GND*%
%TO.C,J_DS18B20*%
X30000000Y-7000000D03*
D21*
%TO.N,PB0*%
X30000000Y-9540000D03*
%TO.N,3V3*%
X30000000Y-12080000D03*
%TD*%
D12*
%TO.N,REL3_COM*%
%TO.C,K3*%
X60000000Y-54000000D03*
D13*
%TO.N,5V*%
X61950000Y-60050000D03*
D12*
%TO.N,REL3_NO*%
X74150000Y-60050000D03*
%TO.N,REL3_NC*%
X74200000Y-48000000D03*
D13*
%TO.N,K3_DRV*%
X61950000Y-48050000D03*
%TD*%
D20*
%TO.N,5V*%
%TO.C,U2*%
X50000000Y-41000000D03*
D21*
%TO.N,GND*%
X52540000Y-41000000D03*
X55080000Y-41000000D03*
%TO.N,3V3*%
X57620000Y-41000000D03*
%TO.N,N/C*%
X60160000Y-41000000D03*
X62700000Y-41000000D03*
%TO.N,PB7*%
X65240000Y-41000000D03*
%TO.N,PB6*%
X67780000Y-41000000D03*
%TO.N,N/C*%
X70320000Y-41000000D03*
X72860000Y-41000000D03*
X75400000Y-41000000D03*
X77940000Y-41000000D03*
X80480000Y-41000000D03*
X83020000Y-41000000D03*
X85560000Y-41000000D03*
%TO.N,PA9*%
X88100000Y-41000000D03*
%TO.N,PA8*%
X90640000Y-41000000D03*
%TO.N,N/C*%
X93180000Y-41000000D03*
X95720000Y-41000000D03*
X98260000Y-41000000D03*
%TD*%
D16*
%TO.N,12V_IN*%
%TO.C,C_DEC1*%
X63000000Y-29000000D03*
%TO.N,GND*%
X68000000Y-29000000D03*
%TD*%
D12*
%TO.N,REL2_COM*%
%TO.C,K2*%
X39000000Y-54000000D03*
D13*
%TO.N,5V*%
X40950000Y-60050000D03*
D12*
%TO.N,REL2_NO*%
X53150000Y-60050000D03*
%TO.N,REL2_NC*%
X53200000Y-48000000D03*
D13*
%TO.N,K2_DRV*%
X40950000Y-48050000D03*
%TD*%
D16*
%TO.N,5V*%
%TO.C,R2*%
X108000000Y-60000000D03*
%TO.N,LED2_A*%
X118160000Y-60000000D03*
%TD*%
D19*
%TO.N,PA3*%
%TO.C,U_MAX485*%
X122000000Y-18000000D03*
D16*
%TO.N,PA4*%
X122000000Y-20540000D03*
X122000000Y-23080000D03*
%TO.N,PA2*%
X122000000Y-25620000D03*
%TO.N,GND*%
X129620000Y-25620000D03*
%TO.N,485_A*%
X129620000Y-23080000D03*
%TO.N,485_B*%
X129620000Y-20540000D03*
%TO.N,5V*%
X129620000Y-18000000D03*
%TD*%
D14*
%TO.N,K4_DRV*%
%TO.C,LED4*%
X122000000Y-60000000D03*
D15*
%TO.N,LED4_A*%
X124540000Y-60000000D03*
%TD*%
D19*
%TO.N,5V*%
%TO.C,C_BULK2*%
X71000000Y-29000000D03*
D16*
%TO.N,GND*%
X73000000Y-29000000D03*
%TD*%
%TO.N,3V3*%
%TO.C,C_DEC3*%
X122000000Y-28000000D03*
%TO.N,GND*%
X127000000Y-28000000D03*
%TD*%
D24*
%TO.N,PA0*%
%TO.C,U_ULN2003*%
X40000000Y-30000000D03*
D16*
%TO.N,PA1*%
X42540000Y-30000000D03*
%TO.N,PA8*%
X45080000Y-30000000D03*
%TO.N,PA9*%
X47620000Y-30000000D03*
%TO.N,N/C*%
X50160000Y-30000000D03*
X52700000Y-30000000D03*
X55240000Y-30000000D03*
%TO.N,GND*%
X57780000Y-30000000D03*
%TO.N,5V*%
X57780000Y-22380000D03*
%TO.N,N/C*%
X55240000Y-22380000D03*
X52700000Y-22380000D03*
X50160000Y-22380000D03*
%TO.N,K4_DRV*%
X47620000Y-22380000D03*
%TO.N,K3_DRV*%
X45080000Y-22380000D03*
%TO.N,K2_DRV*%
X42540000Y-22380000D03*
%TO.N,K1_DRV*%
X40000000Y-22380000D03*
%TD*%
%TO.N,5V*%
%TO.C,R1*%
X108000000Y-50000000D03*
%TO.N,LED1_A*%
X118160000Y-50000000D03*
%TD*%
D22*
%TO.N,12V_IN*%
%TO.C,U_REG5V*%
X10000000Y-24000000D03*
D23*
%TO.N,GND*%
X12540000Y-24000000D03*
%TO.N,5V*%
X15080000Y-24000000D03*
%TD*%
D12*
%TO.N,REL4_COM*%
%TO.C,K4*%
X81000000Y-54000000D03*
D13*
%TO.N,5V*%
X82950000Y-60050000D03*
D12*
%TO.N,REL4_NO*%
X95150000Y-60050000D03*
%TO.N,REL4_NC*%
X95200000Y-48000000D03*
D13*
%TO.N,K4_DRV*%
X82950000Y-48050000D03*
%TD*%
D10*
%TO.N,REL3_COM*%
%TO.C,J_REL3*%
X60000000Y-72000000D03*
D11*
%TO.N,REL3_NO*%
X65080000Y-72000000D03*
%TO.N,REL3_NC*%
X70160000Y-72000000D03*
%TD*%
D16*
%TO.N,5V*%
%TO.C,R3*%
X108000000Y-70000000D03*
%TO.N,LED3_A*%
X118160000Y-70000000D03*
%TD*%
%TO.N,5V*%
%TO.C,R4*%
X122000000Y-48000000D03*
%TO.N,LED4_A*%
X132160000Y-48000000D03*
%TD*%
D20*
%TO.N,3V3*%
%TO.C,J_DHT22*%
X55000000Y-7000000D03*
D21*
%TO.N,PB1*%
X55000000Y-9540000D03*
%TO.N,N/C*%
X55000000Y-12080000D03*
%TO.N,GND*%
X55000000Y-14620000D03*
%TD*%
D10*
%TO.N,REL1_COM*%
%TO.C,J_REL1*%
X19000000Y-72000000D03*
D11*
%TO.N,REL1_NO*%
X24080000Y-72000000D03*
%TO.N,REL1_NC*%
X29160000Y-72000000D03*
%TD*%
D10*
%TO.N,REL4_COM*%
%TO.C,J_REL4*%
X81000000Y-72000000D03*
D11*
%TO.N,REL4_NO*%
X86080000Y-72000000D03*
%TO.N,REL4_NC*%
X91160000Y-72000000D03*
%TD*%
D20*
%TO.N,N/C*%
%TO.C,U1*%
X50000000Y-18000000D03*
D21*
X52540000Y-18000000D03*
X55080000Y-18000000D03*
X57620000Y-18000000D03*
%TO.N,PA0*%
X60160000Y-18000000D03*
%TO.N,PA1*%
X62700000Y-18000000D03*
%TO.N,PA2*%
X65240000Y-18000000D03*
%TO.N,PA3*%
X67780000Y-18000000D03*
%TO.N,PA4*%
X70320000Y-18000000D03*
%TO.N,N/C*%
X72860000Y-18000000D03*
X75400000Y-18000000D03*
X77940000Y-18000000D03*
%TO.N,PB0*%
X80480000Y-18000000D03*
%TO.N,PB1*%
X83020000Y-18000000D03*
%TO.N,N/C*%
X85560000Y-18000000D03*
X88100000Y-18000000D03*
X90640000Y-18000000D03*
%TO.N,3V3*%
X93180000Y-18000000D03*
%TO.N,GND*%
X95720000Y-18000000D03*
X98260000Y-18000000D03*
%TD*%
M02*
