%TF.GenerationSoftware,KiCad,Pcbnew,10.0.4*%
%TF.CreationDate,2026-07-20T14:31:09+02:00*%
%TF.ProjectId,BluePill-SmartNode-RS485,426c7565-5069-46c6-9c2d-536d6172744e,rev?*%
%TF.SameCoordinates,Original*%
%TF.FileFunction,Copper,L4,Bot*%
%TF.FilePolarity,Positive*%
%FSLAX46Y46*%
G04 Gerber Fmt 4.6, Leading zero omitted, Abs format (unit mm)*
G04 Created by KiCad (PCBNEW 10.0.4) date 2026-07-20 14:31:09*
%MOMM*%
%LPD*%
G01*
G04 APERTURE LIST*
G04 Aperture macros list*
%AMRoundRect*
0 Rectangle with rounded corners*
0 $1 Rounding radius*
0 $2 $3 $4 $5 $6 $7 $8 $9 X,Y pos of 4 corners*
0 Add a 4 corners polygon primitive as box body*
4,1,4,$2,$3,$4,$5,$6,$7,$8,$9,$2,$3,0*
0 Add four circle primitives for the rounded corners*
1,1,$1+$1,$2,$3*
1,1,$1+$1,$4,$5*
1,1,$1+$1,$6,$7*
1,1,$1+$1,$8,$9*
0 Add four rect primitives between the rounded corners*
20,1,$1+$1,$2,$3,$4,$5,0*
20,1,$1+$1,$4,$5,$6,$7,0*
20,1,$1+$1,$6,$7,$8,$9,0*
20,1,$1+$1,$8,$9,$2,$3,0*%
G04 Aperture macros list end*
%TA.AperFunction,ComponentPad*%
%ADD10C,1.600000*%
%TD*%
%TA.AperFunction,ComponentPad*%
%ADD11RoundRect,0.250000X-0.550000X-0.550000X0.550000X-0.550000X0.550000X0.550000X-0.550000X0.550000X0*%
%TD*%
%TA.AperFunction,ComponentPad*%
%ADD12R,1.700000X1.700000*%
%TD*%
%TA.AperFunction,ComponentPad*%
%ADD13C,1.700000*%
%TD*%
%TA.AperFunction,ComponentPad*%
%ADD14R,1.905000X2.000000*%
%TD*%
%TA.AperFunction,ComponentPad*%
%ADD15O,1.905000X2.000000*%
%TD*%
%TA.AperFunction,ComponentPad*%
%ADD16C,2.500000*%
%TD*%
%TA.AperFunction,ComponentPad*%
%ADD17RoundRect,0.250000X-1.000000X-1.000000X1.000000X-1.000000X1.000000X1.000000X-1.000000X1.000000X0*%
%TD*%
%TA.AperFunction,ComponentPad*%
%ADD18R,1.800000X1.800000*%
%TD*%
%TA.AperFunction,ComponentPad*%
%ADD19C,1.800000*%
%TD*%
%TA.AperFunction,ComponentPad*%
%ADD20RoundRect,0.250000X-1.050000X-1.050000X1.050000X-1.050000X1.050000X1.050000X-1.050000X1.050000X0*%
%TD*%
%TA.AperFunction,ComponentPad*%
%ADD21C,2.600000*%
%TD*%
%TA.AperFunction,ComponentPad*%
%ADD22RoundRect,0.249999X-0.850001X-0.850001X0.850001X-0.850001X0.850001X0.850001X-0.850001X0.850001X0*%
%TD*%
%TA.AperFunction,ComponentPad*%
%ADD23C,2.200000*%
%TD*%
%TA.AperFunction,ViaPad*%
%ADD24C,0.600000*%
%TD*%
%TA.AperFunction,Conductor*%
%ADD25C,0.400000*%
%TD*%
G04 APERTURE END LIST*
D10*
%TO.P,C_DEC1,1*%
%TO.N,12V_IN*%
X31000000Y-25000000D03*
%TO.P,C_DEC1,2*%
%TO.N,GND*%
X36000000Y-25000000D03*
%TD*%
D11*
%TO.P,C_BULK2,1*%
%TO.N,5V*%
X20000000Y-37000000D03*
D10*
%TO.P,C_BULK2,2*%
%TO.N,GND*%
X22000000Y-37000000D03*
%TD*%
D12*
%TO.P,U2,1*%
%TO.N,GND*%
X62860000Y-14000000D03*
D13*
%TO.P,U2,2*%
X62860000Y-16540000D03*
%TO.P,U2,3*%
%TO.N,3V3*%
X62860000Y-19080000D03*
%TO.P,U2,4*%
%TO.N,N/C*%
X62860000Y-21620000D03*
%TO.P,U2,5*%
X62860000Y-24160000D03*
%TO.P,U2,6*%
X62860000Y-26700000D03*
%TO.P,U2,7*%
X62860000Y-29240000D03*
%TO.P,U2,8*%
X62860000Y-31780000D03*
%TO.P,U2,9*%
X62860000Y-34320000D03*
%TO.P,U2,10*%
X62860000Y-36860000D03*
%TO.P,U2,11*%
X62860000Y-39400000D03*
%TO.P,U2,12*%
X62860000Y-41940000D03*
%TO.P,U2,13*%
X62860000Y-44480000D03*
%TO.P,U2,14*%
X62860000Y-47020000D03*
%TO.P,U2,15*%
X62860000Y-49560000D03*
%TO.P,U2,16*%
X62860000Y-52100000D03*
%TO.P,U2,17*%
%TO.N,PB6*%
X62860000Y-54640000D03*
%TO.P,U2,18*%
%TO.N,PB7*%
X62860000Y-57180000D03*
%TO.P,U2,19*%
%TO.N,N/C*%
X62860000Y-59720000D03*
%TO.P,U2,20*%
X62860000Y-62260000D03*
%TD*%
D14*
%TO.P,U_REG3V3,1*%
%TO.N,GND*%
X8000000Y-48000000D03*
D15*
%TO.P,U_REG3V3,2*%
%TO.N,3V3*%
X10540000Y-48000000D03*
%TO.P,U_REG3V3,3*%
%TO.N,5V*%
X13080000Y-48000000D03*
%TD*%
D16*
%TO.P,K1,11*%
%TO.N,REL1_COM*%
X70000000Y-39000000D03*
%TO.P,K1,12*%
%TO.N,REL1_NC*%
X84200000Y-33000000D03*
%TO.P,K1,14*%
%TO.N,REL1_NO*%
X84200000Y-45000000D03*
D17*
%TO.P,K1,A1*%
%TO.N,5V*%
X72000000Y-33000000D03*
D16*
%TO.P,K1,A2*%
%TO.N,K1_DRV*%
X72000000Y-45000000D03*
%TD*%
D10*
%TO.P,C_DEC2,1*%
%TO.N,5V*%
X31000000Y-37000000D03*
%TO.P,C_DEC2,2*%
%TO.N,GND*%
X36000000Y-37000000D03*
%TD*%
D11*
%TO.P,U_MAX485,1*%
%TO.N,PA3*%
X9000000Y-59000000D03*
D10*
%TO.P,U_MAX485,2*%
%TO.N,PA4*%
X9000000Y-61540000D03*
%TO.P,U_MAX485,3*%
X9000000Y-64080000D03*
%TO.P,U_MAX485,4*%
%TO.N,PA2*%
X9000000Y-66620000D03*
%TO.P,U_MAX485,5*%
%TO.N,GND*%
X16620000Y-66620000D03*
%TO.P,U_MAX485,6*%
%TO.N,RS485_A*%
X16620000Y-64080000D03*
%TO.P,U_MAX485,7*%
%TO.N,RS485_B*%
X16620000Y-61540000D03*
%TO.P,U_MAX485,8*%
%TO.N,5V*%
X16620000Y-59000000D03*
%TD*%
%TO.P,C_DEC4,1*%
%TO.N,5V*%
X24000000Y-60000000D03*
%TO.P,C_DEC4,2*%
%TO.N,GND*%
X29000000Y-60000000D03*
%TD*%
D18*
%TO.P,LED1,1*%
%TO.N,K1_DRV*%
X92000000Y-9000000D03*
D19*
%TO.P,LED1,2*%
%TO.N,LED1_A*%
X94540000Y-9000000D03*
%TD*%
D14*
%TO.P,U_REG5V,1*%
%TO.N,12V_IN*%
X8000000Y-37000000D03*
D15*
%TO.P,U_REG5V,2*%
%TO.N,GND*%
X10540000Y-37000000D03*
%TO.P,U_REG5V,3*%
%TO.N,5V*%
X13080000Y-37000000D03*
%TD*%
D12*
%TO.P,U1,1*%
%TO.N,N/C*%
X40000000Y-14000000D03*
D13*
%TO.P,U1,2*%
X40000000Y-16540000D03*
%TO.P,U1,3*%
X40000000Y-19080000D03*
%TO.P,U1,4*%
X40000000Y-21620000D03*
%TO.P,U1,5*%
%TO.N,PA0*%
X40000000Y-24160000D03*
%TO.P,U1,6*%
%TO.N,PA1*%
X40000000Y-26700000D03*
%TO.P,U1,7*%
%TO.N,PA2*%
X40000000Y-29240000D03*
%TO.P,U1,8*%
%TO.N,PA3*%
X40000000Y-31780000D03*
%TO.P,U1,9*%
%TO.N,PA4*%
X40000000Y-34320000D03*
%TO.P,U1,10*%
%TO.N,N/C*%
X40000000Y-36860000D03*
%TO.P,U1,11*%
X40000000Y-39400000D03*
%TO.P,U1,12*%
X40000000Y-41940000D03*
%TO.P,U1,13*%
%TO.N,PB0*%
X40000000Y-44480000D03*
%TO.P,U1,14*%
%TO.N,N/C*%
X40000000Y-47020000D03*
%TO.P,U1,15*%
X40000000Y-49560000D03*
%TO.P,U1,16*%
X40000000Y-52100000D03*
%TO.P,U1,17*%
X40000000Y-54640000D03*
%TO.P,U1,18*%
%TO.N,3V3*%
X40000000Y-57180000D03*
%TO.P,U1,19*%
%TO.N,GND*%
X40000000Y-59720000D03*
%TO.P,U1,20*%
X40000000Y-62260000D03*
%TD*%
D16*
%TO.P,K2,11*%
%TO.N,REL2_COM*%
X70000000Y-60000000D03*
%TO.P,K2,12*%
%TO.N,REL2_NC*%
X84200000Y-54000000D03*
%TO.P,K2,14*%
%TO.N,REL2_NO*%
X84200000Y-66000000D03*
D17*
%TO.P,K2,A1*%
%TO.N,5V*%
X72000000Y-54000000D03*
D16*
%TO.P,K2,A2*%
%TO.N,K2_DRV*%
X72000000Y-66000000D03*
%TD*%
D20*
%TO.P,J_POWER,1*%
%TO.N,VIN_RAW*%
X8000000Y-16000000D03*
D21*
%TO.P,J_POWER,2*%
%TO.N,GND*%
X13080000Y-16000000D03*
%TD*%
D12*
%TO.P,J_I2C,1*%
%TO.N,GND*%
X93000000Y-55000000D03*
D13*
%TO.P,J_I2C,2*%
%TO.N,3V3*%
X93000000Y-57540000D03*
%TO.P,J_I2C,3*%
%TO.N,PB7*%
X93000000Y-60080000D03*
%TO.P,J_I2C,4*%
%TO.N,PB6*%
X93000000Y-62620000D03*
%TD*%
D11*
%TO.P,C_BULK3,1*%
%TO.N,3V3*%
X20000000Y-48000000D03*
D10*
%TO.P,C_BULK3,2*%
%TO.N,GND*%
X22000000Y-48000000D03*
%TD*%
D22*
%TO.P,D_REVERSE,1*%
%TO.N,12V_IN*%
X8000000Y-27000000D03*
D23*
%TO.P,D_REVERSE,2*%
%TO.N,VIN_RAW*%
X18160000Y-27000000D03*
%TD*%
D11*
%TO.P,U_ULN2003,1*%
%TO.N,PA0*%
X70000000Y-9000000D03*
D10*
%TO.P,U_ULN2003,2*%
%TO.N,PA1*%
X70000000Y-11540000D03*
%TO.P,U_ULN2003,3*%
%TO.N,N/C*%
X70000000Y-14080000D03*
%TO.P,U_ULN2003,4*%
X70000000Y-16620000D03*
%TO.P,U_ULN2003,5*%
X70000000Y-19160000D03*
%TO.P,U_ULN2003,6*%
X70000000Y-21700000D03*
%TO.P,U_ULN2003,7*%
X70000000Y-24240000D03*
%TO.P,U_ULN2003,8*%
%TO.N,GND*%
X70000000Y-26780000D03*
%TO.P,U_ULN2003,9*%
%TO.N,5V*%
X77620000Y-26780000D03*
%TO.P,U_ULN2003,10*%
%TO.N,N/C*%
X77620000Y-24240000D03*
%TO.P,U_ULN2003,11*%
X77620000Y-21700000D03*
%TO.P,U_ULN2003,12*%
X77620000Y-19160000D03*
%TO.P,U_ULN2003,13*%
X77620000Y-16620000D03*
%TO.P,U_ULN2003,14*%
X77620000Y-14080000D03*
%TO.P,U_ULN2003,15*%
%TO.N,K2_DRV*%
X77620000Y-11540000D03*
%TO.P,U_ULN2003,16*%
%TO.N,K1_DRV*%
X77620000Y-9000000D03*
%TD*%
D11*
%TO.P,C_BULK1,1*%
%TO.N,12V_IN*%
X25000000Y-15000000D03*
D10*
%TO.P,C_BULK1,2*%
%TO.N,GND*%
X28500000Y-15000000D03*
%TD*%
%TO.P,C_DEC3,1*%
%TO.N,3V3*%
X31000000Y-48000000D03*
%TO.P,C_DEC3,2*%
%TO.N,GND*%
X36000000Y-48000000D03*
%TD*%
%TO.P,R2,1*%
%TO.N,5V*%
X84000000Y-24000000D03*
%TO.P,R2,2*%
%TO.N,LED2_A*%
X84000000Y-13840000D03*
%TD*%
D12*
%TO.P,J_DS18B20,1*%
%TO.N,GND*%
X93000000Y-40000000D03*
D13*
%TO.P,J_DS18B20,2*%
%TO.N,PB0*%
X93000000Y-42540000D03*
%TO.P,J_DS18B20,3*%
%TO.N,3V3*%
X93000000Y-45080000D03*
%TD*%
D20*
%TO.P,J_REL2,1*%
%TO.N,REL2_COM*%
X48000000Y-72000000D03*
D21*
%TO.P,J_REL2,2*%
%TO.N,REL2_NO*%
X53080000Y-72000000D03*
%TO.P,J_REL2,3*%
%TO.N,REL2_NC*%
X58160000Y-72000000D03*
%TD*%
D10*
%TO.P,R_PULL1,1*%
%TO.N,3V3*%
X49400000Y-60000000D03*
%TO.P,R_PULL1,2*%
%TO.N,PB0*%
X59560000Y-60000000D03*
%TD*%
D18*
%TO.P,LED2,1*%
%TO.N,K2_DRV*%
X92000000Y-19000000D03*
D19*
%TO.P,LED2,2*%
%TO.N,LED2_A*%
X94540000Y-19000000D03*
%TD*%
D20*
%TO.P,J_RS485,1*%
%TO.N,RS485_A*%
X24000000Y-71000000D03*
D21*
%TO.P,J_RS485,2*%
%TO.N,RS485_B*%
X29080000Y-71000000D03*
%TO.P,J_RS485,3*%
%TO.N,GND*%
X34160000Y-71000000D03*
%TD*%
D10*
%TO.P,R1,1*%
%TO.N,5V*%
X78000000Y-3500000D03*
%TO.P,R1,2*%
%TO.N,LED1_A*%
X88160000Y-3500000D03*
%TD*%
D20*
%TO.P,J_REL1,1*%
%TO.N,REL1_COM*%
X71000000Y-74100000D03*
D21*
%TO.P,J_REL1,2*%
%TO.N,REL1_NO*%
X76080000Y-74100000D03*
%TO.P,J_REL1,3*%
%TO.N,REL1_NC*%
X81160000Y-74100000D03*
%TD*%
D10*
%TO.P,R_TERM,1*%
%TO.N,RS485_A*%
X9000000Y-70000000D03*
%TO.P,R_TERM,2*%
%TO.N,RS485_B*%
X19160000Y-70000000D03*
%TD*%
D24*
%TO.N,3V3*%
X12857500Y-58519300D03*
%TO.N,PB6*%
X86839500Y-56575100D03*
%TO.N,PB0*%
X81889400Y-57822000D03*
%TO.N,REL2_NC*%
X73944700Y-54507000D03*
%TD*%
%TO.N,12V_IN*%
D25*
X31000000Y-25000000D02*
X10000000Y-25000000D01*
X10000000Y-25000000D02*
X8000000Y-27000000D01*
X8000000Y-27000000D02*
X8000000Y-37000000D01*
%TO.N,3V3*%
X30910000Y-48090000D02*
X29678300Y-49321700D01*
X62860000Y-19080000D02*
X69220000Y-25440000D01*
X69220000Y-25440000D02*
X73360000Y-25440000D01*
X47180000Y-57180000D02*
X50000000Y-60000000D01*
X40000000Y-57180000D02*
X47180000Y-57180000D01*
X20525000Y-48607700D02*
X20525000Y-49321700D01*
X29678300Y-49321700D02*
X20525000Y-49321700D01*
X31000000Y-48000000D02*
X30910000Y-48090000D01*
X20525000Y-48525000D02*
X20000000Y-48000000D01*
X20525000Y-50851800D02*
X12857500Y-58519300D01*
X73360000Y-25440000D02*
X93000000Y-45080000D01*
X40000000Y-57180000D02*
X30910000Y-48090000D01*
X20525000Y-48525000D02*
X20525000Y-48607700D01*
X20525000Y-49321700D02*
X20525000Y-50851800D01*
%TO.N,PB6*%
X86577700Y-56313300D02*
X64533300Y-56313300D01*
X86839500Y-56575100D02*
X86577700Y-56313300D01*
X86839500Y-56575100D02*
X86839500Y-56313300D01*
X64533300Y-56313300D02*
X62860000Y-54640000D01*
X86839500Y-56313300D02*
X86839500Y-56575100D01*
%TO.N,PB7*%
X63025000Y-57015000D02*
X86145700Y-57015000D01*
X86145700Y-57015000D02*
X89210700Y-60080000D01*
X62860000Y-57180000D02*
X63025000Y-57015000D01*
X89210700Y-60080000D02*
X93000000Y-60080000D01*
%TO.N,K1_DRV*%
X92000000Y-9000000D02*
X90598300Y-9000000D01*
X90598300Y-9000000D02*
X90269000Y-8670700D01*
X77949300Y-8670700D02*
X77620000Y-9000000D01*
X90269000Y-8670700D02*
X77949300Y-8670700D01*
%TO.N,PA3*%
X9000000Y-55825400D02*
X9000000Y-59000000D01*
X40000000Y-31780000D02*
X33045400Y-31780000D01*
X33045400Y-31780000D02*
X9000000Y-55825400D01*
%TO.N,PA4*%
X12822400Y-57420700D02*
X9000000Y-61243100D01*
X31497700Y-34320000D02*
X12822400Y-52995300D01*
X12822400Y-52995300D02*
X12822400Y-57420700D01*
X9000000Y-61243100D02*
X9000000Y-61540000D01*
X40000000Y-34320000D02*
X31497700Y-34320000D01*
%TO.N,RS485_A*%
X10700000Y-70000000D02*
X9000000Y-70000000D01*
X10318000Y-71318000D02*
X9000000Y-70000000D01*
X24000000Y-71000000D02*
X23682000Y-71318000D01*
X16620000Y-64080000D02*
X10700000Y-70000000D01*
X23682000Y-71318000D02*
X10318000Y-71318000D01*
%TO.N,RS485_B*%
X19160000Y-70000000D02*
X19987900Y-69172100D01*
X19987900Y-69172100D02*
X27252100Y-69172100D01*
X27252100Y-69172100D02*
X29080000Y-71000000D01*
%TO.N,PA0*%
X55160000Y-9000000D02*
X70000000Y-9000000D01*
X40000000Y-24160000D02*
X55160000Y-9000000D01*
%TO.N,PA1*%
X55160000Y-11540000D02*
X70000000Y-11540000D01*
X40000000Y-26700000D02*
X55160000Y-11540000D01*
%TO.N,PB0*%
X62326400Y-63637900D02*
X60160000Y-61471500D01*
X81889400Y-57822000D02*
X69250700Y-57822000D01*
X60160000Y-60000000D02*
X44640000Y-44480000D01*
X69250700Y-57822000D02*
X63434800Y-63637900D01*
X44640000Y-44480000D02*
X40000000Y-44480000D01*
X60160000Y-61471500D02*
X60160000Y-60000000D01*
X82933800Y-57822000D02*
X81889400Y-57822000D01*
X63434800Y-63637900D02*
X62326400Y-63637900D01*
X81889400Y-57822000D02*
X82933800Y-57822000D01*
%TO.N,REL2_COM*%
X55048500Y-64951500D02*
X65048500Y-64951500D01*
X48000000Y-72000000D02*
X55048500Y-64951500D01*
X65048500Y-64951500D02*
X70000000Y-60000000D01*
%TO.N,REL2_NC*%
X83693000Y-54507000D02*
X84200000Y-54000000D01*
X73944700Y-54507000D02*
X83693000Y-54507000D01*
%TO.N,REL2_NO*%
X55988100Y-69091900D02*
X81108100Y-69091900D01*
X81108100Y-69091900D02*
X84200000Y-66000000D01*
X53080000Y-72000000D02*
X55988100Y-69091900D01*
%TO.N,K2_DRV*%
X85080000Y-19000000D02*
X77620000Y-11540000D01*
X92000000Y-19000000D02*
X85080000Y-19000000D01*
%TO.N,LED2_A*%
X94540000Y-19000000D02*
X89380000Y-13840000D01*
X89380000Y-13840000D02*
X84000000Y-13840000D01*
%TD*%
M02*
