%TF.GenerationSoftware,KiCad,Pcbnew,10.0.4*%
%TF.CreationDate,2026-07-18T15:52:29+02:00*%
%TF.ProjectId,BluePill-SmartNode-RS485,426c7565-5069-46c6-9c2d-536d6172744e,rev?*%
%TF.SameCoordinates,Original*%
%TF.FileFunction,Other,User*%
%FSLAX46Y46*%
G04 Gerber Fmt 4.6, Leading zero omitted, Abs format (unit mm)*
G04 Created by KiCad (PCBNEW 10.0.4) date 2026-07-18 15:52:29*
%MOMM*%
%LPD*%
G01*
G04 APERTURE LIST*
%ADD10C,0.050000*%
G04 APERTURE END LIST*
%TO.C,J_REL2*%
D10*
X35960000Y-66290000D02*
X52210000Y-66290000D01*
X52210000Y-77100000D01*
X35960000Y-77100000D01*
X35960000Y-66290000D01*
%TO.C,K1*%
X16450000Y-61950000D02*
X16450000Y-46050000D01*
X16450000Y-61950000D02*
X36550000Y-61950000D01*
X36550000Y-46050000D02*
X16450000Y-46050000D01*
X36550000Y-46050000D02*
X36550000Y-61950000D01*
%TO.C,LED3*%
X16060000Y-38790000D02*
X22490000Y-38790000D01*
X22490000Y-45210000D01*
X16060000Y-45210000D01*
X16060000Y-38790000D01*
%TO.C,R_PULL1*%
X106950000Y-16500000D02*
X119210000Y-16500000D01*
X119210000Y-19500000D01*
X106950000Y-19500000D01*
X106950000Y-16500000D01*
%TO.C,D_REVERSE*%
X23400000Y-17490000D02*
X26600000Y-17490000D01*
X26600000Y-30350000D01*
X23400000Y-30350000D01*
X23400000Y-17490000D01*
%TO.C,R_PULL2*%
X106950000Y-26500000D02*
X119210000Y-26500000D01*
X119210000Y-29500000D01*
X106950000Y-29500000D01*
X106950000Y-26500000D01*
%TO.C,C_DEC4*%
X120950000Y-36500000D02*
X128050000Y-36500000D01*
X128050000Y-39500000D01*
X120950000Y-39500000D01*
X120950000Y-36500000D01*
%TO.C,C_BULK3*%
X111750000Y-40000000D02*
G75*
G02*
X106250000Y-40000000I-2750000J0D01*
G01*
X106250000Y-40000000D02*
G75*
G02*
X111750000Y-40000000I2750000J0D01*
G01*
%TO.C,C_BULK1*%
X61000000Y-29000000D02*
G75*
G02*
X52500000Y-29000000I-4250000J0D01*
G01*
X52500000Y-29000000D02*
G75*
G02*
X61000000Y-29000000I4250000J0D01*
G01*
%TO.C,R_TERM*%
X106950000Y-6500000D02*
X119210000Y-6500000D01*
X119210000Y-9500000D01*
X106950000Y-9500000D01*
X106950000Y-6500000D01*
%TO.C,LED2*%
X16060000Y-27790000D02*
X22490000Y-27790000D01*
X22490000Y-34210000D01*
X16060000Y-34210000D01*
X16060000Y-27790000D01*
%TO.C,LED1*%
X16060000Y-16790000D02*
X22490000Y-16790000D01*
X22490000Y-23210000D01*
X16060000Y-23210000D01*
X16060000Y-16790000D01*
%TO.C,J_I2C*%
X40230000Y-5230000D02*
X43770000Y-5230000D01*
X43770000Y-16390000D01*
X40230000Y-16390000D01*
X40230000Y-5230000D01*
%TO.C,U_REG3V3*%
X7290000Y-32600000D02*
X17790000Y-32600000D01*
X17790000Y-37500000D01*
X7290000Y-37500000D01*
X7290000Y-32600000D01*
%TO.C,C_DEC2*%
X78950000Y-31500000D02*
X86050000Y-31500000D01*
X86050000Y-34500000D01*
X78950000Y-34500000D01*
X78950000Y-31500000D01*
%TO.C,J_POWER*%
X8960000Y-1290000D02*
X20130000Y-1290000D01*
X20130000Y-12100000D01*
X8960000Y-12100000D01*
X8960000Y-1290000D01*
%TO.C,J_RS485*%
X74960000Y-1290000D02*
X91210000Y-1290000D01*
X91210000Y-12100000D01*
X74960000Y-12100000D01*
X74960000Y-1290000D01*
%TO.C,J_DS18B20*%
X28230000Y-5230000D02*
X31770000Y-5230000D01*
X31770000Y-13850000D01*
X28230000Y-13850000D01*
X28230000Y-5230000D01*
%TO.C,K3*%
X58450000Y-61950000D02*
X58450000Y-46050000D01*
X58450000Y-61950000D02*
X78550000Y-61950000D01*
X78550000Y-46050000D02*
X58450000Y-46050000D01*
X78550000Y-46050000D02*
X78550000Y-61950000D01*
%TO.C,U2*%
X48230000Y-39230000D02*
X100030000Y-39230000D01*
X48230000Y-42770000D02*
X48230000Y-39230000D01*
X100030000Y-39230000D02*
X100030000Y-42770000D01*
X100030000Y-42770000D02*
X48230000Y-42770000D01*
%TO.C,C_DEC1*%
X61950000Y-27500000D02*
X69050000Y-27500000D01*
X69050000Y-30500000D01*
X61950000Y-30500000D01*
X61950000Y-27500000D01*
%TO.C,K2*%
X37450000Y-61950000D02*
X37450000Y-46050000D01*
X37450000Y-61950000D02*
X57550000Y-61950000D01*
X57550000Y-46050000D02*
X37450000Y-46050000D01*
X57550000Y-46050000D02*
X57550000Y-61950000D01*
%TO.C,R2*%
X106950000Y-58500000D02*
X119210000Y-58500000D01*
X119210000Y-61500000D01*
X106950000Y-61500000D01*
X106950000Y-58500000D01*
%TO.C,U_MAX485*%
X120940000Y-16480000D02*
X130670000Y-16480000D01*
X130670000Y-27140000D01*
X120940000Y-27140000D01*
X120940000Y-16480000D01*
%TO.C,LED4*%
X120060000Y-56790000D02*
X126490000Y-56790000D01*
X126490000Y-63210000D01*
X120060000Y-63210000D01*
X120060000Y-56790000D01*
%TO.C,C_BULK2*%
X74750000Y-29000000D02*
G75*
G02*
X69250000Y-29000000I-2750000J0D01*
G01*
X69250000Y-29000000D02*
G75*
G02*
X74750000Y-29000000I2750000J0D01*
G01*
%TO.C,C_DEC3*%
X120950000Y-26500000D02*
X128050000Y-26500000D01*
X128050000Y-29500000D01*
X120950000Y-29500000D01*
X120950000Y-26500000D01*
%TO.C,U_ULN2003*%
X38480000Y-21330000D02*
X59300000Y-21330000D01*
X59300000Y-31060000D01*
X38480000Y-31060000D01*
X38480000Y-21330000D01*
%TO.C,R1*%
X106950000Y-48500000D02*
X119210000Y-48500000D01*
X119210000Y-51500000D01*
X106950000Y-51500000D01*
X106950000Y-48500000D01*
%TO.C,U_REG5V*%
X7290000Y-20600000D02*
X17790000Y-20600000D01*
X17790000Y-25500000D01*
X7290000Y-25500000D01*
X7290000Y-20600000D01*
%TO.C,K4*%
X79450000Y-61950000D02*
X79450000Y-46050000D01*
X79450000Y-61950000D02*
X99550000Y-61950000D01*
X99550000Y-46050000D02*
X79450000Y-46050000D01*
X99550000Y-46050000D02*
X99550000Y-61950000D01*
%TO.C,J_REL3*%
X56960000Y-66290000D02*
X73210000Y-66290000D01*
X73210000Y-77100000D01*
X56960000Y-77100000D01*
X56960000Y-66290000D01*
%TO.C,R3*%
X106950000Y-68500000D02*
X119210000Y-68500000D01*
X119210000Y-71500000D01*
X106950000Y-71500000D01*
X106950000Y-68500000D01*
%TO.C,R4*%
X120950000Y-46500000D02*
X133210000Y-46500000D01*
X133210000Y-49500000D01*
X120950000Y-49500000D01*
X120950000Y-46500000D01*
%TO.C,J_DHT22*%
X53230000Y-5230000D02*
X56770000Y-5230000D01*
X56770000Y-16390000D01*
X53230000Y-16390000D01*
X53230000Y-5230000D01*
%TO.C,J_REL1*%
X15960000Y-66290000D02*
X32210000Y-66290000D01*
X32210000Y-77100000D01*
X15960000Y-77100000D01*
X15960000Y-66290000D01*
%TO.C,J_REL4*%
X77960000Y-66290000D02*
X94210000Y-66290000D01*
X94210000Y-77100000D01*
X77960000Y-77100000D01*
X77960000Y-66290000D01*
%TO.C,U1*%
X48230000Y-16230000D02*
X100030000Y-16230000D01*
X48230000Y-19770000D02*
X48230000Y-16230000D01*
X100030000Y-16230000D02*
X100030000Y-19770000D01*
X100030000Y-19770000D02*
X48230000Y-19770000D01*
%TD*%
M02*
