%TF.GenerationSoftware,KiCad,Pcbnew,10.0.4*%
%TF.CreationDate,2026-07-18T16:56:01+02:00*%
%TF.ProjectId,BluePill-SmartNode-RS485,426c7565-5069-46c6-9c2d-536d6172744e,rev?*%
%TF.SameCoordinates,Original*%
%TF.FileFunction,Other,User*%
%FSLAX46Y46*%
G04 Gerber Fmt 4.6, Leading zero omitted, Abs format (unit mm)*
G04 Created by KiCad (PCBNEW 10.0.4) date 2026-07-18 16:56:01*
%MOMM*%
%LPD*%
G01*
G04 APERTURE LIST*
%ADD10C,0.050000*%
G04 APERTURE END LIST*
%TO.C,C_DEC1*%
D10*
X29950000Y-23500000D02*
X37050000Y-23500000D01*
X37050000Y-26500000D01*
X29950000Y-26500000D01*
X29950000Y-23500000D01*
%TO.C,C_BULK2*%
X23750000Y-37000000D02*
G75*
G02*
X18250000Y-37000000I-2750000J0D01*
G01*
X18250000Y-37000000D02*
G75*
G02*
X23750000Y-37000000I2750000J0D01*
G01*
%TO.C,U2*%
X61090000Y-12230000D02*
X64630000Y-12230000D01*
X61090000Y-64030000D02*
X61090000Y-12230000D01*
X64630000Y-12230000D02*
X64630000Y-64030000D01*
X64630000Y-64030000D02*
X61090000Y-64030000D01*
%TO.C,U_REG3V3*%
X5290000Y-44600000D02*
X15790000Y-44600000D01*
X15790000Y-49500000D01*
X5290000Y-49500000D01*
X5290000Y-44600000D01*
%TO.C,K1*%
X68200000Y-30900000D02*
X68200000Y-47100000D01*
X68200000Y-47100000D02*
X88000000Y-47100000D01*
X88000000Y-30900000D02*
X68200000Y-30900000D01*
X88000000Y-47100000D02*
X88000000Y-30900000D01*
%TO.C,C_DEC2*%
X29950000Y-35500000D02*
X37050000Y-35500000D01*
X37050000Y-38500000D01*
X29950000Y-38500000D01*
X29950000Y-35500000D01*
%TO.C,U_MAX485*%
X7940000Y-57480000D02*
X17670000Y-57480000D01*
X17670000Y-68140000D01*
X7940000Y-68140000D01*
X7940000Y-57480000D01*
%TO.C,C_DEC4*%
X22950000Y-58500000D02*
X30050000Y-58500000D01*
X30050000Y-61500000D01*
X22950000Y-61500000D01*
X22950000Y-58500000D01*
%TO.C,LED1*%
X90060000Y-5790000D02*
X96490000Y-5790000D01*
X96490000Y-12210000D01*
X90060000Y-12210000D01*
X90060000Y-5790000D01*
%TO.C,U_REG5V*%
X5290000Y-33600000D02*
X15790000Y-33600000D01*
X15790000Y-38500000D01*
X5290000Y-38500000D01*
X5290000Y-33600000D01*
%TO.C,U1*%
X38230000Y-12230000D02*
X41770000Y-12230000D01*
X38230000Y-64030000D02*
X38230000Y-12230000D01*
X41770000Y-12230000D02*
X41770000Y-64030000D01*
X41770000Y-64030000D02*
X38230000Y-64030000D01*
%TO.C,K2*%
X68200000Y-51900000D02*
X68200000Y-68100000D01*
X68200000Y-68100000D02*
X88000000Y-68100000D01*
X88000000Y-51900000D02*
X68200000Y-51900000D01*
X88000000Y-68100000D02*
X88000000Y-51900000D01*
%TO.C,J_POWER*%
X4960000Y-10290000D02*
X16130000Y-10290000D01*
X16130000Y-21100000D01*
X4960000Y-21100000D01*
X4960000Y-10290000D01*
%TO.C,J_I2C*%
X91230000Y-53230000D02*
X94770000Y-53230000D01*
X94770000Y-64390000D01*
X91230000Y-64390000D01*
X91230000Y-53230000D01*
%TO.C,C_BULK3*%
X23750000Y-48000000D02*
G75*
G02*
X18250000Y-48000000I-2750000J0D01*
G01*
X18250000Y-48000000D02*
G75*
G02*
X23750000Y-48000000I2750000J0D01*
G01*
%TO.C,D_REVERSE*%
X6650000Y-25400000D02*
X19510000Y-25400000D01*
X19510000Y-28600000D01*
X6650000Y-28600000D01*
X6650000Y-25400000D01*
%TO.C,U_ULN2003*%
X68940000Y-7480000D02*
X78670000Y-7480000D01*
X78670000Y-28300000D01*
X68940000Y-28300000D01*
X68940000Y-7480000D01*
%TO.C,C_BULK1*%
X31000000Y-15000000D02*
G75*
G02*
X22500000Y-15000000I-4250000J0D01*
G01*
X22500000Y-15000000D02*
G75*
G02*
X31000000Y-15000000I4250000J0D01*
G01*
%TO.C,C_DEC3*%
X29950000Y-46500000D02*
X37050000Y-46500000D01*
X37050000Y-49500000D01*
X29950000Y-49500000D01*
X29950000Y-46500000D01*
%TO.C,R2*%
X82500000Y-12790000D02*
X85500000Y-12790000D01*
X85500000Y-25050000D01*
X82500000Y-25050000D01*
X82500000Y-12790000D01*
%TO.C,J_DS18B20*%
X91230000Y-38230000D02*
X94770000Y-38230000D01*
X94770000Y-46850000D01*
X91230000Y-46850000D01*
X91230000Y-38230000D01*
%TO.C,J_REL2*%
X44960000Y-66290000D02*
X61210000Y-66290000D01*
X61210000Y-77100000D01*
X44960000Y-77100000D01*
X44960000Y-66290000D01*
%TO.C,R_PULL1*%
X48950000Y-58500000D02*
X61210000Y-58500000D01*
X61210000Y-61500000D01*
X48950000Y-61500000D01*
X48950000Y-58500000D01*
%TO.C,LED2*%
X90060000Y-15790000D02*
X96490000Y-15790000D01*
X96490000Y-22210000D01*
X90060000Y-22210000D01*
X90060000Y-15790000D01*
%TO.C,J_RS485*%
X20960000Y-65290000D02*
X37210000Y-65290000D01*
X37210000Y-76100000D01*
X20960000Y-76100000D01*
X20960000Y-65290000D01*
%TO.C,R1*%
X82500000Y1210000D02*
X85500000Y1210000D01*
X85500000Y-11050000D01*
X82500000Y-11050000D01*
X82500000Y1210000D01*
%TO.C,J_REL1*%
X67960000Y-66290000D02*
X84210000Y-66290000D01*
X84210000Y-77100000D01*
X67960000Y-77100000D01*
X67960000Y-66290000D01*
%TO.C,R_TERM*%
X7950000Y-68500000D02*
X20210000Y-68500000D01*
X20210000Y-71500000D01*
X7950000Y-71500000D01*
X7950000Y-68500000D01*
%TD*%
M02*
