M48
; DRILL file KiCad 10.0.4 date 2026-07-18T16:56:01
; FORMAT={-:-/ absolute / metric / decimal}
; #@! TF.CreationDate,2026-07-18T16:56:01+02:00
; #@! TF.GenerationSoftware,Kicad,Pcbnew,10.0.4
; #@! TF.FileFunction,MixedPlating,1,4
FMAT,2
METRIC
; #@! TA.AperFunction,Plated,PTH,ViaDrill
T1C0.300
; #@! TA.AperFunction,Plated,PTH,ComponentDrill
T2C0.800
; #@! TA.AperFunction,Plated,PTH,ComponentDrill
T3C0.900
; #@! TA.AperFunction,Plated,PTH,ComponentDrill
T4C1.000
; #@! TA.AperFunction,Plated,PTH,ComponentDrill
T5C1.100
; #@! TA.AperFunction,Plated,PTH,ComponentDrill
T6C1.300
; #@! TA.AperFunction,NonPlated,NPTH,ComponentDrill
T7C3.200
%
G90
G05
T1
X12.857Y-58.519
X73.945Y-54.507
X81.889Y-57.822
X86.84Y-56.575
T2
X9.0Y-59.0
X9.0Y-61.54
X9.0Y-64.08
X9.0Y-66.62
X9.0Y-70.0
X16.62Y-59.0
X16.62Y-61.54
X16.62Y-64.08
X16.62Y-66.62
X19.16Y-70.0
X20.0Y-37.0
X20.0Y-48.0
X22.0Y-37.0
X22.0Y-48.0
X24.0Y-60.0
X25.0Y-15.0
X28.5Y-15.0
X29.0Y-60.0
X31.0Y-25.0
X31.0Y-37.0
X31.0Y-48.0
X36.0Y-25.0
X36.0Y-37.0
X36.0Y-48.0
X50.0Y-60.0
X60.16Y-60.0
X70.0Y-9.0
X70.0Y-11.54
X70.0Y-14.08
X70.0Y-16.62
X70.0Y-19.16
X70.0Y-21.7
X70.0Y-24.24
X70.0Y-26.78
X77.62Y-9.0
X77.62Y-11.54
X77.62Y-14.08
X77.62Y-16.62
X77.62Y-19.16
X77.62Y-21.7
X77.62Y-24.24
X77.62Y-26.78
X84.0Y0.16
X84.0Y-10.0
X84.0Y-13.84
X84.0Y-24.0
T3
X92.0Y-9.0
X92.0Y-19.0
X94.54Y-9.0
X94.54Y-19.0
T4
X40.0Y-14.0
X40.0Y-16.54
X40.0Y-19.08
X40.0Y-21.62
X40.0Y-24.16
X40.0Y-26.7
X40.0Y-29.24
X40.0Y-31.78
X40.0Y-34.32
X40.0Y-36.86
X40.0Y-39.4
X40.0Y-41.94
X40.0Y-44.48
X40.0Y-47.02
X40.0Y-49.56
X40.0Y-52.1
X40.0Y-54.64
X40.0Y-57.18
X40.0Y-59.72
X40.0Y-62.26
X62.86Y-14.0
X62.86Y-16.54
X62.86Y-19.08
X62.86Y-21.62
X62.86Y-24.16
X62.86Y-26.7
X62.86Y-29.24
X62.86Y-31.78
X62.86Y-34.32
X62.86Y-36.86
X62.86Y-39.4
X62.86Y-41.94
X62.86Y-44.48
X62.86Y-47.02
X62.86Y-49.56
X62.86Y-52.1
X62.86Y-54.64
X62.86Y-57.18
X62.86Y-59.72
X62.86Y-62.26
X93.0Y-40.0
X93.0Y-42.54
X93.0Y-45.08
X93.0Y-55.0
X93.0Y-57.54
X93.0Y-60.08
X93.0Y-62.62
T5
X8.0Y-27.0
X8.0Y-37.0
X8.0Y-48.0
X10.54Y-37.0
X10.54Y-48.0
X13.08Y-37.0
X13.08Y-48.0
X18.16Y-27.0
T6
X8.0Y-16.0
X13.08Y-16.0
X24.0Y-71.0
X29.08Y-71.0
X34.16Y-71.0
X48.0Y-72.0
X53.08Y-72.0
X58.16Y-72.0
X70.0Y-39.0
X70.0Y-60.0
X71.0Y-72.0
X72.0Y-33.0
X72.0Y-45.0
X72.0Y-54.0
X72.0Y-66.0
X76.08Y-72.0
X81.16Y-72.0
X84.2Y-33.0
X84.2Y-45.0
X84.2Y-54.0
X84.2Y-66.0
T7
X5.0Y-5.0
X5.0Y-75.0
X95.0Y-5.0
X95.0Y-75.0
M30
