M48
; DRILL file KiCad 10.0.4 date 2026-07-18T15:52:30
; FORMAT={-:-/ absolute / metric / decimal}
; #@! TF.CreationDate,2026-07-18T15:52:30+02:00
; #@! TF.GenerationSoftware,Kicad,Pcbnew,10.0.4
; #@! TF.FileFunction,MixedPlating,1,4
FMAT,2
METRIC
; #@! TA.AperFunction,Plated,PTH,ComponentDrill
T1C0.800
; #@! TA.AperFunction,Plated,PTH,ComponentDrill
T2C0.900
; #@! TA.AperFunction,Plated,PTH,ComponentDrill
T3C1.000
; #@! TA.AperFunction,Plated,PTH,ComponentDrill
T4C1.100
; #@! TA.AperFunction,Plated,PTH,ComponentDrill
T5C1.300
; #@! TA.AperFunction,NonPlated,NPTH,ComponentDrill
T6C3.200
%
G90
G05
T1
X40.0Y-22.38
X40.0Y-30.0
X42.54Y-22.38
X42.54Y-30.0
X45.08Y-22.38
X45.08Y-30.0
X47.62Y-22.38
X47.62Y-30.0
X50.16Y-22.38
X50.16Y-30.0
X52.7Y-22.38
X52.7Y-30.0
X55.0Y-29.0
X55.24Y-22.38
X55.24Y-30.0
X57.78Y-22.38
X57.78Y-30.0
X58.5Y-29.0
X63.0Y-29.0
X68.0Y-29.0
X71.0Y-29.0
X73.0Y-29.0
X80.0Y-33.0
X85.0Y-33.0
X108.0Y-8.0
X108.0Y-18.0
X108.0Y-28.0
X108.0Y-40.0
X108.0Y-50.0
X108.0Y-60.0
X108.0Y-70.0
X110.0Y-40.0
X118.16Y-8.0
X118.16Y-18.0
X118.16Y-28.0
X118.16Y-50.0
X118.16Y-60.0
X118.16Y-70.0
X122.0Y-18.0
X122.0Y-20.54
X122.0Y-23.08
X122.0Y-25.62
X122.0Y-28.0
X122.0Y-38.0
X122.0Y-48.0
X127.0Y-28.0
X127.0Y-38.0
X129.62Y-18.0
X129.62Y-20.54
X129.62Y-23.08
X129.62Y-25.62
X132.16Y-48.0
T2
X18.0Y-20.0
X18.0Y-31.0
X18.0Y-42.0
X20.54Y-20.0
X20.54Y-31.0
X20.54Y-42.0
X122.0Y-60.0
X124.54Y-60.0
T3
X19.95Y-48.05
X19.95Y-60.05
X30.0Y-7.0
X30.0Y-9.54
X30.0Y-12.08
X40.95Y-48.05
X40.95Y-60.05
X42.0Y-7.0
X42.0Y-9.54
X42.0Y-12.08
X42.0Y-14.62
X50.0Y-18.0
X50.0Y-41.0
X52.54Y-18.0
X52.54Y-41.0
X55.0Y-7.0
X55.0Y-9.54
X55.0Y-12.08
X55.0Y-14.62
X55.08Y-18.0
X55.08Y-41.0
X57.62Y-18.0
X57.62Y-41.0
X60.16Y-18.0
X60.16Y-41.0
X61.95Y-48.05
X61.95Y-60.05
X62.7Y-18.0
X62.7Y-41.0
X65.24Y-18.0
X65.24Y-41.0
X67.78Y-18.0
X67.78Y-41.0
X70.32Y-18.0
X70.32Y-41.0
X72.86Y-18.0
X72.86Y-41.0
X75.4Y-18.0
X75.4Y-41.0
X77.94Y-18.0
X77.94Y-41.0
X80.48Y-18.0
X80.48Y-41.0
X82.95Y-48.05
X82.95Y-60.05
X83.02Y-18.0
X83.02Y-41.0
X85.56Y-18.0
X85.56Y-41.0
X88.1Y-18.0
X88.1Y-41.0
X90.64Y-18.0
X90.64Y-41.0
X93.18Y-18.0
X93.18Y-41.0
X95.72Y-18.0
X95.72Y-41.0
X98.26Y-18.0
X98.26Y-41.0
T4
X10.0Y-24.0
X10.0Y-36.0
X12.54Y-24.0
X12.54Y-36.0
X15.08Y-24.0
X15.08Y-36.0
X25.0Y-18.84
X25.0Y-29.0
T5
X12.0Y-7.0
X17.08Y-7.0
X18.0Y-54.0
X19.0Y-72.0
X24.08Y-72.0
X29.16Y-72.0
X32.15Y-60.05
X32.2Y-48.0
X39.0Y-54.0
X39.0Y-72.0
X44.08Y-72.0
X49.16Y-72.0
X53.15Y-60.05
X53.2Y-48.0
X60.0Y-54.0
X60.0Y-72.0
X65.08Y-72.0
X70.16Y-72.0
X74.15Y-60.05
X74.2Y-48.0
X78.0Y-7.0
X81.0Y-54.0
X81.0Y-72.0
X83.08Y-7.0
X86.08Y-72.0
X88.16Y-7.0
X91.16Y-72.0
X95.15Y-60.05
X95.2Y-48.0
T6
X10.13Y-77.4
X28.77Y-69.039
X124.0Y-6.0
X124.0Y-74.0
M30
